<?xml version="1.0" standalone="no"?>
<!DOCTYPE svg PUBLIC "-//W3C//DTD SVG 20010904//EN"
 "http://www.w3.org/TR/2001/REC-SVG-20010904/DTD/svg10.dtd">
<svg version="1.0" xmlns="http://www.w3.org/2000/svg"
 width="1344.000000pt" height="896.000000pt" viewBox="0 0 1344.000000 896.000000"
 preserveAspectRatio="xMidYMid meet">

<g transform="translate(0.000000,896.000000) scale(0.100000,-0.100000)"
fill="#000000" stroke="none">
<path d="M2252 8540 c3 -409 3 -419 23 -424 11 -3 189 -12 395 -21 206 -9 393
-20 415 -25 31 -6 20 -7 -45 -4 -47 2 -157 6 -245 9 -175 6 -456 20 -720 35
-336 20 -870 41 -1105 43 -180 2 -200 -3 -256 -61 -62 -64 -80 -151 -65 -317
93 -1034 129 -1448 171 -1970 22 -275 44 -543 50 -595 5 -52 12 -131 15 -175
3 -44 16 -219 30 -390 14 -170 26 -332 28 -360 2 -28 5 -7 7 50 l3 100 8 -125
c4 -69 17 -240 28 -380 21 -253 51 -663 71 -960 6 -85 12 -171 15 -190 2 -19
1 -28 -1 -19 -3 10 -13 15 -27 12 -16 -3 -26 2 -34 19 -7 13 -22 124 -33 248
-12 124 -34 347 -50 495 -16 149 -36 367 -45 485 -16 221 -30 421 -65 880 -11
146 -29 396 -40 555 -73 1060 -87 1201 -125 1275 -20 39 -65 67 -130 79 -27 6
-157 13 -288 17 l-237 6 0 -2986 c0 -1778 4 -2986 9 -2986 5 0 103 23 218 51
114 28 324 77 466 109 288 66 334 84 367 150 34 66 39 147 24 365 -8 110 -21
307 -29 438 -8 130 -19 288 -25 350 -15 170 -14 182 14 195 19 8 26 8 30 -1 2
-7 5 26 7 73 l2 85 11 -85 c7 -47 14 -76 17 -65 7 27 16 -42 34 -255 14 -169
18 -286 9 -264 -3 6 -11 78 -18 160 -9 96 -14 126 -14 84 0 -36 3 -103 8 -150
18 -183 32 -328 60 -641 34 -370 47 -431 107 -492 102 -106 181 -108 673 -19
184 34 359 64 388 68 50 6 52 6 52 -17 0 -32 9 -43 47 -62 33 -17 165 -25 213
-13 14 3 52 9 85 12 91 9 106 11 160 23 28 5 64 13 80 15 17 3 69 14 118 24
48 11 87 17 87 13 0 -3 4 -1 8 5 4 6 59 26 122 44 63 17 121 37 127 42 7 6 22
8 32 5 14 -3 18 -1 14 9 -4 10 3 14 21 14 14 0 26 5 26 10 0 6 9 10 19 10 11
0 26 7 35 15 8 8 19 15 25 15 6 0 11 5 11 10 0 6 -5 10 -10 10 -6 0 -1 9 10
20 16 16 80 33 288 75 147 30 278 59 292 65 14 5 93 21 175 35 83 14 256 46
385 70 332 63 844 152 1340 235 234 39 522 88 640 110 256 46 553 98 857 150
133 22 232 44 247 54 67 43 80 109 65 323 -6 89 -8 174 -5 187 8 32 27 35 101
19 33 -8 75 -16 95 -19 103 -15 262 -48 275 -58 19 -14 32 -89 34 -193 1 -45
4 -93 7 -105 3 -13 7 -70 10 -128 5 -103 7 -133 23 -295 7 -74 34 -146 71
-190 5 -6 7 -15 3 -18 -3 -4 3 -7 15 -7 16 0 20 -4 15 -17 -5 -12 -2 -15 10
-10 11 4 17 1 17 -8 0 -7 13 -16 30 -20 16 -4 32 -10 35 -15 3 -5 25 -18 50
-30 46 -22 62 -50 52 -90 -3 -11 -1 -20 5 -20 5 0 6 -4 3 -10 -4 -6 1 -7 11
-3 12 4 15 3 10 -5 -5 -8 0 -12 13 -13 12 -1 36 -2 54 -3 20 -1 31 -7 29 -15
-1 -7 2 -10 7 -7 12 8 42 -4 36 -13 -2 -4 9 -7 25 -6 17 1 30 -1 30 -5 0 -4
11 -6 25 -5 13 2 29 -3 36 -11 6 -8 18 -14 26 -14 29 0 1 -20 -30 -22 -85 -4
162 -16 348 -17 184 -1 217 1 270 18 34 12 145 29 255 41 107 12 199 25 205
28 5 4 16 7 23 8 27 4 57 64 32 64 -5 0 -10 -6 -10 -12 0 -10 -2 -10 -9 0 -4
8 -11 13 -15 13 -24 -3 -46 0 -42 7 2 4 -11 7 -30 7 -19 -1 -34 3 -34 8 0 5
-7 7 -15 3 -8 -3 -15 0 -15 5 0 6 -9 9 -19 6 -11 -3 -30 2 -42 11 -12 8 -19
10 -15 4 4 -7 2 -12 -3 -12 -6 0 -11 5 -11 12 0 6 -3 8 -6 5 -4 -4 -15 2 -25
14 -12 14 -18 16 -22 7 -3 -8 -6 -5 -6 6 -1 11 -4 16 -8 13 -3 -4 -17 0 -30 8
-13 9 -29 13 -35 9 -7 -4 -8 -3 -4 4 5 8 -1 12 -18 12 -13 0 -26 3 -28 8 -4
10 -67 42 -84 42 -8 0 -14 5 -14 10 0 6 -8 10 -18 10 -11 0 -36 16 -57 37 -35
34 -37 39 -31 82 4 25 9 71 12 101 10 123 28 229 41 246 12 16 20 17 96 6 102
-14 237 -38 257 -46 23 -8 48 -12 275 -42 22 -3 58 -10 80 -16 22 -5 48 -12
57 -13 10 -2 23 -7 29 -10 24 -15 74 61 108 166 19 57 42 118 52 134 10 17 30
83 44 145 14 63 30 131 35 150 25 87 31 133 19 140 -6 4 -39 10 -73 14 -33 3
-72 8 -86 11 -72 13 -308 47 -444 65 -182 24 -206 31 -207 62 0 13 -3 41 -5
62 -5 44 18 113 44 132 23 17 88 25 244 29 73 2 133 4 133 5 0 1 7 3 15 5 8 2
35 12 60 23 47 21 224 36 212 18 -3 -5 2 -6 12 -3 9 4 33 -2 54 -13 20 -11 45
-20 54 -20 10 0 15 -5 13 -12 -4 -9 7 -13 32 -14 20 0 39 -6 41 -13 3 -9 8 -9
20 1 13 11 14 11 8 0 -6 -10 1 -12 29 -9 32 3 41 11 66 51 17 26 42 73 56 104
14 31 44 75 68 97 40 39 42 45 55 133 7 50 10 115 7 144 -3 29 -36 157 -72
283 -37 127 -73 261 -80 298 -7 38 -15 70 -18 73 -3 3 -22 7 -43 10 -22 2 -50
6 -64 9 -31 6 -275 23 -435 30 -112 5 -142 7 -270 20 -53 6 -113 22 -131 36
-21 16 -86 20 -157 9 -70 -11 -251 -14 -312 -6 -16 2 -113 7 -215 10 -102 4
-201 9 -220 11 -19 3 -89 7 -155 10 -182 8 -430 24 -530 35 -103 11 -205 17
-387 25 -180 7 -189 12 -207 110 -17 91 -51 408 -51 474 0 32 -9 101 -19 154
-26 124 -46 284 -70 547 -19 208 -64 646 -116 1130 -14 129 -41 395 -60 590
-20 195 -42 379 -50 407 -20 67 -75 127 -130 141 -22 6 -128 13 -235 16 -373
12 -685 27 -725 36 -22 5 -99 10 -170 11 -72 1 -139 5 -150 9 -21 8 -28 49
-10 62 7 5 7 8 0 8 -7 0 -10 158 -10 453 0 248 -1 458 -3 465 -6 18 -59 15
-66 -4 -4 -9 -6 -233 -6 -497 1 -381 -2 -482 -12 -489 -18 -11 -195 -10 -238
1 -38 10 -145 18 -345 26 -71 3 -168 8 -215 10 -156 10 -273 14 -500 20 -309
7 -806 24 -855 30 -22 2 -104 4 -182 4 l-143 1 11 28 c10 26 16 219 19 637 0
110 1 210 0 223 l0 22 -586 0 -586 0 4 -420z m905 -476 c-3 -3 -12 -4 -19 -1
-8 3 -5 6 6 6 11 1 17 -2 13 -5z m-1786 -420 c14 -13 16 -20 7 -40 -15 -32
-44 -31 -55 4 -18 49 10 70 48 36z m115 -5 c4 -8 9 -8 17 0 17 17 49 13 77 -9
l25 -20 -45 1 c-56 1 -92 11 -98 27 -5 15 14 16 24 1z m209 -9 c-4 -7 3 -9 19
-6 15 3 24 1 21 -5 -8 -11 -55 -12 -55 -1 0 9 10 22 17 22 2 0 1 -5 -2 -10z
m95 -10 c12 -8 9 -10 -12 -10 -16 0 -28 5 -28 10 0 13 20 13 40 0z m144 1 c3
-5 -6 -8 -19 -8 -14 0 -28 3 -31 8 -3 5 6 9 20 9 14 0 27 -4 30 -9z m61 -1 c4
-6 -5 -9 -19 -8 -15 1 -26 6 -26 10 0 12 38 10 45 -2z m39 2 c3 -5 -1 -9 -9
-9 -8 0 -15 4 -15 9 0 4 4 8 9 8 6 0 12 -4 15 -8z m163 -6 c4 -3 -21 -6 -55
-6 -34 0 -62 4 -62 8 0 10 107 8 117 -2z m2055 -15 c4 -12 189 -18 206 -7 7 4
21 5 30 1 24 -10 232 -12 238 -3 9 14 44 -12 44 -32 0 -19 -8 -19 -156 -18
-128 2 -157 5 -164 18 -8 13 -9 13 -10 -2 0 -16 -12 -18 -109 -18 -94 0 -110
2 -117 18 -9 21 -11 35 -7 45 6 10 41 9 45 -2z m2638 -69 c0 -10 -6 -26 -12
-35 -11 -15 -13 -13 -15 18 -1 24 3 35 13 35 8 0 14 -8 14 -18z m-248 -12 c22
-20 15 -26 -16 -14 -9 3 -16 12 -16 20 0 19 7 18 32 -6z m401 14 c9 -9 -4 -34
-18 -34 -14 0 -27 25 -18 34 4 3 12 6 18 6 6 0 14 -3 18 -6z m131 -66 c-3 -4
-9 -8 -14 -8 -14 0 -18 24 -7 50 l9 25 9 -29 c4 -16 6 -33 3 -38z m-4974 12
c393 -6 920 -15 1170 -20 250 -5 599 -12 775 -15 176 -3 496 -10 710 -15 215
-6 584 -14 820 -20 237 -5 486 -12 555 -15 69 -2 323 -7 565 -11 242 -3 448
-8 457 -10 20 -6 22 -16 43 -294 8 -113 24 -297 35 -410 11 -113 26 -286 35
-385 9 -99 27 -281 40 -405 13 -124 34 -317 45 -430 11 -113 36 -326 55 -475
19 -148 43 -358 55 -465 11 -107 27 -242 35 -300 8 -58 22 -172 30 -255 8 -82
29 -256 45 -385 24 -190 59 -499 73 -640 2 -23 -2 -25 -73 -37 -78 -13 -444
-66 -540 -78 -83 -10 -563 -82 -660 -99 -47 -8 -173 -26 -280 -40 -107 -14
-256 -35 -330 -46 -269 -41 -329 -50 -965 -140 -179 -26 -263 -38 -435 -65
-14 -2 -43 -6 -65 -9 -22 -3 -98 -14 -170 -25 -71 -12 -256 -37 -410 -57 -154
-19 -350 -46 -435 -59 -85 -13 -297 -43 -470 -65 -351 -45 -561 -74 -695 -95
-87 -13 -223 -31 -580 -79 l-170 -22 -7 45 c-8 45 -100 1060 -158 1736 -16
187 -36 410 -45 495 -8 85 -31 337 -50 560 -19 223 -42 475 -50 560 -93 988
-185 2067 -178 2082 2 3 117 4 256 2 138 -2 574 -9 967 -14z m-1963 -1162 c-3
-8 -6 -5 -6 6 -1 11 2 17 5 13 3 -3 4 -12 1 -19z m9021 -2190 c15 -15 15 -64
2 -120 -6 -24 -40 -176 -75 -338 -81 -374 -84 -384 -114 -388 -38 -6 -71 17
-71 49 0 29 40 242 109 579 33 159 44 198 62 212 25 21 69 24 87 6z m-867
-678 c23 -13 24 -28 3 -51 -14 -16 -14 -19 8 -32 12 -8 50 -21 82 -27 36 -7
69 -22 85 -36 14 -13 29 -24 33 -24 4 0 5 -7 2 -15 -5 -13 -25 -15 -125 -10
-111 4 -118 3 -124 -15 -7 -22 12 -54 44 -77 12 -8 19 -19 16 -24 -4 -5 -2 -9
2 -9 5 0 9 -8 10 -17 12 -194 13 -190 -26 -198 -16 -3 -20 5 -26 53 -4 31 -9
77 -11 101 -2 24 -7 48 -12 53 -5 5 -47 11 -93 14 -46 3 -94 6 -106 9 -12 2
-60 7 -105 10 -133 11 -155 19 -168 63 -5 20 -10 65 -10 98 0 49 4 63 18 70 9
4 85 8 169 8 143 1 154 3 184 25 51 38 112 51 150 31z m1341 -16 c61 -32 61
-91 1 -120 -46 -22 -313 -35 -313 -15 0 6 -20 32 -45 58 -25 25 -45 48 -45 50
0 5 33 39 34 35 1 -2 8 -1 16 2 56 19 310 12 352 -10z m-648 -366 c-5 -8 -2
-9 11 -4 15 5 16 4 5 -9 -10 -12 -15 -13 -21 -3 -7 12 -3 28 7 28 3 0 2 -5 -2
-12z m-7917 -1120 c-3 -7 -5 -2 -5 12 0 14 2 19 5 13 2 -7 2 -19 0 -25z m118
-280 c-16 -5 -36 -10 -44 -10 -11 -1 -13 -17 -8 -77 5 -79 -5 -51 -17 45 l-6
51 52 1 c48 0 50 -1 23 -10z"/>
<path d="M1122 7395 c0 -19 4 -35 9 -35 5 0 9 3 10 8 0 4 2 19 4 35 2 18 -1
27 -10 27 -8 0 -13 -13 -13 -35z"/>
<path d="M1031 7391 c-1 -27 2 -32 11 -23 8 8 8 17 0 34 -10 22 -11 21 -11
-11z"/>
<path d="M1160 7410 c-13 -8 -12 -11 5 -24 23 -17 39 -7 29 17 -7 19 -13 21
-34 7z"/>
<path d="M1066 7391 c-3 -5 1 -14 9 -21 13 -10 15 -9 15 9 0 21 -14 28 -24 12z"/>
<path d="M1740 7391 c0 -8 -22 -10 -67 -8 -38 2 -76 0 -86 -5 -11 -6 -23 -6
-30 0 -7 6 -35 10 -63 10 -45 1 -51 -2 -47 -17 4 -16 21 -17 194 -17 130 1
189 4 189 12 0 6 -14 11 -31 12 -17 0 -37 6 -45 13 -10 8 -14 8 -14 0z"/>
<path d="M2000 7372 c0 -21 4 -22 58 -21 31 1 63 0 71 -2 7 -2 15 1 18 7 8 23
-91 38 -109 16 -8 -10 -13 -8 -24 5 -12 17 -13 16 -14 -5z"/>
<path d="M2320 7379 c0 -5 -5 -7 -10 -4 -6 4 -17 1 -25 -5 -11 -9 -15 -9 -15
-1 0 6 -4 11 -10 11 -5 0 -10 -6 -10 -14 0 -9 15 -16 43 -18 47 -6 61 1 51 25
-7 19 -24 23 -24 6z"/>
<path d="M2166 7371 c-3 -5 1 -15 10 -22 13 -10 17 -10 25 2 5 8 9 17 9 22 0
10 -38 9 -44 -2z"/>
<path d="M2360 7369 c0 -14 21 -21 70 -24 34 -3 50 1 54 10 3 8 2 16 -2 19
-12 7 -122 3 -122 -5z"/>
<path d="M1112 7309 c-15 -18 -28 -26 -39 -22 -11 4 -14 2 -11 -8 6 -18 45
-20 59 -3 16 19 39 17 55 -3 16 -23 28 -11 19 17 -5 16 -13 21 -30 18 -16 -3
-22 -1 -18 8 9 25 -13 21 -35 -7z"/>
<path d="M1135 7270 c3 -5 8 -10 11 -10 2 0 4 5 4 10 0 6 -5 10 -11 10 -5 0
-7 -4 -4 -10z"/>
<path d="M6235 7270 c3 -5 8 -10 11 -10 2 0 4 5 4 10 0 6 -5 10 -11 10 -5 0
-7 -4 -4 -10z"/>
<path d="M6390 7262 c0 -14 6 -22 16 -22 14 0 15 3 3 18 -7 9 -15 19 -16 21
-2 2 -3 -5 -3 -17z"/>
<path d="M6310 7260 c0 -5 9 -10 20 -10 11 0 20 5 20 10 0 6 -9 10 -20 10 -11
0 -20 -4 -20 -10z"/>
<path d="M1540 7250 c0 -5 7 -10 15 -10 8 0 18 0 22 -1 4 0 9 4 11 10 2 6 -8
11 -22 11 -14 0 -26 -4 -26 -10z"/>
<path d="M1610 7250 c0 -14 23 -17 100 -14 41 1 90 3 108 3 17 1 32 4 32 9 0
4 -54 8 -120 8 -66 1 -120 -2 -120 -6z"/>
<path d="M1983 7252 c-62 -1 -113 -6 -113 -10 0 -10 228 -13 235 -2 9 14 -3
15 -122 12z"/>
<path d="M2137 7239 c8 -8 16 -8 30 0 16 9 14 10 -11 11 -22 0 -27 -3 -19 -11z"/>
<path d="M2210 7240 c0 -7 42 -10 115 -9 63 0 115 5 115 10 0 5 -52 9 -115 9
-72 0 -115 -4 -115 -10z"/>
<path d="M2460 7239 c0 -5 42 -9 94 -8 52 1 100 -2 106 -6 8 -5 11 -3 8 6 -4
11 -30 14 -106 16 -58 0 -102 -3 -102 -8z"/>
<path d="M2701 7237 c22 -16 121 -16 126 1 4 9 -14 12 -69 12 -60 -1 -70 -3
-57 -13z"/>
<path d="M2840 7240 c0 -5 7 -10 16 -10 8 0 12 5 9 10 -3 6 -10 10 -16 10 -5
0 -9 -4 -9 -10z"/>
<path d="M1143 7055 c-35 -35 -40 -62 -7 -34 14 11 18 10 31 -6 8 -11 17 -32
20 -47 6 -30 29 -44 37 -22 3 8 13 14 23 13 11 0 13 -3 6 -6 -15 -6 -17 -39
-3 -48 6 -3 10 -14 10 -24 0 -10 9 -21 21 -24 15 -4 22 1 30 19 31 84 -34 214
-108 214 -15 0 -39 -14 -60 -35z"/>
<path d="M1560 7056 c0 -32 12 -39 36 -22 13 10 23 11 31 4 9 -7 18 -7 28 2
12 10 19 10 27 2 11 -11 66 -6 81 8 5 4 21 2 35 -6 36 -19 41 -18 35 6 -5 19
-21 25 -53 21 -47 -6 -162 -5 -166 1 -3 4 -16 8 -30 8 -19 0 -24 -5 -24 -24z"/>
<path d="M1870 7055 c-14 -17 -14 -17 33 -19 30 -2 57 9 57 23 0 13 -78 10
-90 -4z"/>
<path d="M1967 7049 c-4 -15 -2 -19 10 -15 8 3 17 6 19 6 2 0 4 7 4 15 0 23
-27 18 -33 -6z"/>
<path d="M2016 7056 c3 -9 11 -16 16 -16 13 0 5 23 -10 28 -7 2 -10 -2 -6 -12z"/>
<path d="M3530 6966 l0 -24 148 -1 c81 -1 162 -4 180 -7 17 -4 52 -3 77 0 36
6 45 11 45 27 0 20 1 20 -72 5 -15 -4 -29 -2 -32 3 -3 5 -34 6 -70 4 -38 -3
-66 -1 -70 5 -4 6 -19 7 -43 1 -35 -7 -120 -4 -150 6 -8 3 -13 -5 -13 -19z"/>
<path d="M6597 6979 c-9 -6 -22 -7 -27 -4 -6 3 -10 1 -10 -4 0 -7 25 -11 62
-11 36 0 58 4 53 9 -17 15 -59 20 -78 10z"/>
<path d="M4020 6960 c0 -12 7 -20 18 -20 9 -1 80 -1 157 -1 77 -1 155 -5 172
-11 18 -5 38 -6 45 -2 7 5 23 7 36 5 19 -2 23 1 20 20 -2 18 -10 22 -38 24
-19 1 -39 -1 -45 -4 -15 -9 -269 -7 -276 2 -3 4 -17 4 -30 -2 -16 -5 -31 -5
-42 0 -14 8 -17 6 -17 -11z"/>
<path d="M6705 6970 c-4 -6 5 -10 19 -10 14 0 26 5 26 10 0 6 -9 10 -19 10
-11 0 -23 -4 -26 -10z"/>
<path d="M1582 6945 c3 -19 10 -20 123 -21 79 -1 122 2 127 10 5 8 11 7 20 -2
6 -6 29 -12 50 -12 31 0 38 4 38 20 0 18 -7 20 -54 20 -29 0 -110 1 -180 3
-123 3 -127 2 -124 -18z"/>
<path d="M2052 6949 c3 -23 7 -24 91 -26 60 -2 87 1 87 9 0 9 3 9 12 0 7 -7
29 -12 51 -12 31 0 38 3 35 18 -3 15 -17 17 -128 17 -69 0 -131 4 -138 9 -10
6 -13 2 -10 -15z"/>
<path d="M1950 6940 c0 -18 5 -21 38 -18 25 2 37 8 37 18 0 10 -12 16 -37 18
-33 3 -38 0 -38 -18z"/>
<path d="M6342 6935 c-10 -12 -7 -14 18 -12 16 1 32 8 35 15 6 17 -37 15 -53
-3z"/>
<path d="M6570 6878 c0 -65 -7 -63 271 -60 139 2 255 5 259 7 4 2 4 21 1 42
l-6 38 -263 3 -262 2 0 -32z m330 -26 c0 -11 -39 -12 -45 -1 -4 5 5 9 19 9 14
0 26 -4 26 -8z m110 -2 c0 -13 -30 -13 -50 0 -11 7 -7 10 18 10 17 0 32 -4 32
-10z"/>
<path d="M1600 6847 c0 -22 11 -27 33 -16 14 8 18 8 13 0 -4 -7 1 -11 14 -11
18 0 19 3 10 20 -12 23 -70 29 -70 7z"/>
<path d="M1686 6853 c-3 -3 6 -12 20 -20 20 -10 30 -10 40 -2 8 6 12 15 9 19
-5 8 -61 11 -69 3z"/>
<path d="M1793 6853 c-13 -2 -23 -10 -23 -18 0 -17 52 -24 109 -13 25 5 56 6
69 3 15 -4 22 -1 22 10 0 12 -13 15 -57 15 -32 0 -67 2 -78 4 -11 2 -30 2 -42
-1z"/>
<path d="M2103 6853 c-89 -3 -113 -7 -113 -18 0 -11 25 -14 120 -17 119 -3
120 -3 120 20 0 12 -3 21 -7 20 -5 -1 -59 -4 -120 -5z"/>
<path d="M2467 6853 c-4 -3 -54 -6 -112 -5 -83 1 -105 -1 -105 -12 0 -11 25
-14 113 -16 61 -1 136 -3 166 -5 66 -3 91 3 91 22 0 11 -13 14 -60 12 -33 -1
-63 1 -67 4 -8 9 -18 9 -26 0z"/>
<path d="M2652 6852 c-6 -2 -12 -10 -12 -18 0 -11 16 -14 65 -14 58 0 65 2 65
19 0 17 -7 19 -53 19 -29 -1 -58 -3 -65 -6z"/>
<path d="M1186 6809 c-33 -26 -46 -56 -39 -92 7 -36 22 -25 21 15 -1 38 26 61
64 55 17 -2 29 2 33 11 14 37 -37 44 -79 11z"/>
<path d="M1220 6730 c-7 -4 -8 -10 -4 -13 15 -8 54 -3 54 8 0 12 -33 15 -50 5z"/>
<path d="M6750 6690 l-134 -5 1 -25 c0 -14 1 -35 2 -47 l1 -23 238 6 c130 4
240 9 244 13 4 3 1 24 -6 46 l-14 40 -99 0 c-54 0 -159 -2 -233 -5z m298 -42
c-6 -18 -28 -21 -28 -4 0 9 7 16 16 16 9 0 14 -5 12 -12z m-93 -8 c-3 -5 -19
-10 -35 -10 -16 0 -32 5 -35 10 -4 6 10 10 35 10 25 0 39 -4 35 -10z"/>
<path d="M4514 6627 c-167 -201 -210 -255 -299 -377 -131 -180 -204 -270 -237
-289 -20 -13 -42 -15 -92 -11 l-67 6 2 -53 c1 -29 5 -57 9 -63 4 -7 33 2 80
26 41 20 95 42 120 50 48 15 282 193 288 220 3 11 12 14 30 10 15 -3 72 -8
128 -12 l101 -6 174 67 c96 38 206 80 244 95 l70 26 187 -125 187 -125 188 3
c103 1 186 0 183 -2 -3 -3 -66 -7 -140 -8 -74 -1 -152 -6 -173 -11 -43 -9 -32
-15 -278 148 -70 46 -133 86 -141 89 -16 6 -171 -47 -376 -129 l-112 -45 -123
6 -122 5 -142 -112 c-79 -61 -148 -108 -153 -105 -6 4 -16 2 -23 -3 -7 -5 -30
-20 -52 -32 -22 -12 -57 -32 -79 -43 -29 -17 -46 -38 -71 -87 -32 -64 -32 -66
-24 -155 4 -49 8 -96 8 -104 1 -15 139 -12 691 14 318 16 452 22 685 30 142 5
286 12 735 35 107 5 290 12 405 16 116 3 215 10 220 14 12 10 1 153 -46 615
-37 354 -29 334 -139 373 -133 47 -105 66 -214 -151 -135 -272 -173 -337 -196
-337 -11 0 -64 18 -117 39 -54 21 -122 46 -152 55 -53 15 -54 15 -122 -14
-117 -49 -126 -49 -191 8 -31 28 -74 67 -95 89 -125 126 -200 181 -290 212
-95 34 -217 94 -298 148 -69 46 -100 63 -112 62 -4 0 -31 -28 -59 -62z m1786
-147 c0 -5 -9 -6 -20 -3 -11 3 -20 9 -20 13 0 5 9 6 20 3 11 -3 20 -9 20 -13z
m46 -26 c18 -14 18 -14 -6 -3 -31 14 -36 19 -24 19 6 0 19 -7 30 -16z m-51
-194 c4 -6 43 -29 87 -51 79 -40 115 -65 106 -74 -3 -3 -51 20 -109 51 -57 30
-106 56 -110 57 -3 1 -62 -39 -130 -89 -140 -103 -172 -122 -114 -69 65 59
235 185 250 185 8 0 17 -5 20 -10z"/>
<path d="M1230 6671 c0 -17 30 -25 43 -12 8 8 8 11 0 11 -6 0 -18 3 -27 6 -9
3 -16 1 -16 -5z"/>
<path d="M2525 6641 c-102 -30 -138 -49 -132 -68 14 -47 57 -153 81 -199 14
-29 26 -57 26 -63 0 -14 6 -14 71 0 l51 11 -6 57 c-3 31 -9 107 -12 169 -4 61
-10 112 -13 111 -3 0 -33 -8 -66 -18z"/>
<path d="M1255 6620 c-5 -15 -13 -19 -31 -16 -13 3 -24 3 -24 0 0 -11 33 -54
41 -54 11 0 49 60 49 78 0 20 -28 14 -35 -8z"/>
<path d="M2805 6453 l6 -175 57 -42 c128 -95 248 -245 259 -325 l6 -41 137 0
c75 0 139 3 143 6 16 16 -97 266 -154 342 -25 33 -39 61 -36 72 3 12 -2 20
-14 23 -11 3 -19 11 -19 17 0 7 6 10 14 7 28 -11 36 15 17 52 -11 20 -22 44
-25 53 -3 9 -20 25 -37 34 -33 16 -33 16 -56 -12 l-24 -29 6 26 c6 25 1 30
-86 79 -51 29 -117 61 -146 71 l-53 18 5 -176z m73 91 c-13 -27 -38 -45 -38
-27 0 4 10 24 22 43 24 39 37 26 16 -16z m335 -444 c3 -13 0 -17 -9 -13 -8 3
-14 11 -14 19 0 8 -4 14 -10 14 -5 0 -10 7 -10 17 0 15 2 15 19 -1 10 -10 21
-26 24 -36z"/>
<path d="M6445 6599 c-4 -6 -3 -15 3 -21 6 -6 11 -4 15 6 7 18 -9 31 -18 15z"/>
<path d="M1241 6496 c-43 -14 -77 -70 -67 -110 5 -20 12 -27 24 -23 77 25 123
34 128 26 14 -23 26 -7 21 27 -11 65 -54 98 -106 80z"/>
<path d="M6853 6482 l-223 -2 0 -23 c0 -12 3 -33 7 -45 l6 -24 236 4 236 3 0
45 c0 38 -3 45 -20 45 -11 0 -120 -1 -242 -3z m-62 -51 c-6 -4 -22 -6 -34 -5
-12 1 -25 3 -29 3 -5 1 -8 4 -8 9 0 4 19 6 41 4 23 -3 36 -8 30 -11z m199 15
c0 -3 -4 -8 -10 -11 -5 -3 -10 -1 -10 4 0 6 5 11 10 11 6 0 10 -2 10 -4z m60
-6 c0 -5 -6 -10 -14 -10 -8 0 -18 5 -21 10 -3 6 3 10 14 10 12 0 21 -4 21 -10z
m-123 -6 c-3 -3 -12 -4 -19 -1 -8 3 -5 6 6 6 11 1 17 -2 13 -5z"/>
<path d="M3590 6370 c0 -5 5 -10 10 -10 6 0 10 5 10 10 0 6 -4 10 -10 10 -5 0
-10 -4 -10 -10z"/>
<path d="M1590 6348 c0 -19 6 -23 29 -23 16 0 33 3 37 7 12 12 -17 38 -42 38
-18 0 -24 -5 -24 -22z"/>
<path d="M1250 6350 c0 -5 4 -10 9 -10 6 0 13 5 16 10 3 6 -1 10 -9 10 -9 0
-16 -4 -16 -10z"/>
<path d="M1295 6350 c-4 -7 -2 -17 4 -23 17 -17 13 -27 -10 -27 -12 0 -19 -5
-16 -12 4 -12 24 -13 55 -3 18 6 15 40 -7 59 -14 12 -21 14 -26 6z"/>
<path d="M3590 6305 c0 -8 7 -15 15 -15 8 0 15 7 15 15 0 8 -7 15 -15 15 -8 0
-15 -7 -15 -15z"/>
<path d="M1244 6285 c-4 -8 -10 -12 -15 -9 -5 3 -9 2 -9 -1 0 -12 34 -65 41
-65 4 0 5 -9 2 -20 -3 -11 -12 -20 -19 -20 -8 0 -14 -6 -14 -14 0 -7 -9 -16
-21 -19 -17 -5 -20 -2 -16 15 4 16 3 18 -5 10 -7 -7 -13 -19 -14 -28 -2 -12 3
-14 24 -9 51 13 97 36 85 43 -8 5 -6 18 7 45 l18 37 -30 0 c-27 0 -30 3 -26
25 6 28 1 33 -8 10z"/>
<path d="M2465 6290 c-3 -6 1 -7 9 -4 18 7 21 14 7 14 -6 0 -13 -4 -16 -10z"/>
<path d="M6790 6273 c-72 -2 -127 -8 -131 -14 -3 -6 -3 -25 0 -42 7 -31 8 -32
66 -35 33 -2 138 -1 233 3 l173 7 -3 42 -3 41 -105 0 c-58 1 -161 -1 -230 -2z
m233 -60 c-13 -2 -33 -2 -45 0 -13 2 -3 4 22 4 25 0 35 -2 23 -4z"/>
<path d="M1610 6250 c0 -16 7 -20 30 -20 34 0 39 14 11 30 -29 15 -41 12 -41
-10z"/>
<path d="M2030 6255 c-10 -12 -10 -15 4 -15 9 0 16 7 16 15 0 8 -2 15 -4 15
-2 0 -9 -7 -16 -15z"/>
<path d="M3595 6230 c-4 -6 -3 -16 2 -23 11 -14 10 -35 -1 -59 -5 -10 -5 -25
-2 -34 7 -19 42 -13 38 7 -3 12 -8 61 -11 107 -1 15 -17 16 -26 2z m25 -100
c0 -5 -5 -10 -11 -10 -5 0 -7 5 -4 10 3 6 8 10 11 10 2 0 4 -4 4 -10z"/>
<path d="M2350 6205 c-13 -14 -22 -27 -19 -29 2 -2 14 10 27 25 29 36 24 38
-8 4z"/>
<path d="M1610 6185 c0 -8 2 -15 4 -15 2 0 6 7 10 15 3 8 1 15 -4 15 -6 0 -10
-7 -10 -15z"/>
<path d="M1306 6149 c6 -10 65 -39 79 -39 14 0 3 30 -14 40 -27 14 -74 13 -65
-1z"/>
<path d="M2280 6109 c-12 -16 -20 -32 -17 -35 2 -3 14 11 25 31 26 43 21 46
-8 4z"/>
<path d="M1205 6076 c-19 -28 -17 -107 2 -113 9 -3 12 7 10 33 -2 33 1 39 26
48 37 13 56 -6 62 -66 4 -40 2 -46 -16 -51 -12 -3 -22 0 -26 9 -3 8 -11 14
-19 14 -11 0 -11 -5 -2 -26 10 -21 16 -24 37 -19 15 4 38 7 54 7 26 1 27 3 27
55 0 34 -7 68 -20 93 -20 38 -22 40 -70 40 -41 0 -52 -4 -65 -24z"/>
<path d="M3610 6080 c-12 -8 -10 -10 8 -10 13 0 20 4 17 10 -7 12 -6 12 -25 0z"/>
<path d="M2220 5993 c-18 -38 -33 -69 -35 -71 -1 -1 -27 9 -59 23 -31 14 -63
25 -71 25 -16 0 -50 -100 -38 -110 9 -8 153 -34 157 -29 2 2 11 29 21 59 10
30 29 79 42 109 34 78 22 73 -17 -6z"/>
<path d="M3605 6050 c3 -5 10 -10 16 -10 5 0 9 5 9 10 0 6 -7 10 -16 10 -8 0
-12 -4 -9 -10z"/>
<path d="M1265 6010 c-3 -5 -1 -10 4 -10 6 0 11 5 11 10 0 6 -2 10 -4 10 -3 0
-8 -4 -11 -10z"/>
<path d="M1813 5973 c-7 -3 -13 -9 -13 -14 0 -12 47 -12 54 0 7 10 -23 20 -41
14z"/>
<path d="M1600 5883 c0 -20 5 -23 40 -23 35 0 40 3 40 23 0 19 -5 22 -40 22
-35 0 -40 -3 -40 -22z"/>
<path d="M1807 5892 c-25 -5 -17 -36 11 -40 16 -3 22 2 22 17 0 23 -8 29 -33
23z"/>
<path d="M2698 5852 c-5 -17 -2 -22 13 -22 13 0 19 7 19 23 0 16 -3 18 -9 8
-7 -11 -9 -11 -13 0 -3 8 -7 5 -10 -9z"/>
<path d="M3254 5758 c2 -20 10 -23 52 -26 62 -3 94 5 94 22 0 18 -20 25 -45
16 -11 -4 -33 -3 -50 1 -46 14 -55 11 -51 -13z"/>
<path d="M1313 5753 c-49 -25 -43 -43 12 -37 31 3 45 0 45 -8 0 -9 3 -9 12 0
9 9 9 18 0 37 -13 29 -24 30 -69 8z"/>
<path d="M3180 5750 c0 -24 35 -28 44 -4 9 23 8 24 -19 24 -18 0 -25 -5 -25
-20z"/>
<path d="M2605 5720 c-12 -20 7 -30 56 -30 35 0 51 4 56 15 3 9 2 19 -2 23 -4
4 -10 1 -12 -5 -6 -15 -59 -17 -68 -3 -3 6 -10 10 -15 10 -5 0 -12 -4 -15 -10z"/>
<path d="M1213 5713 c-23 -9 -14 -33 12 -33 18 0 25 5 25 20 0 19 -12 24 -37
13z"/>
<path d="M1883 5712 c-15 -2 -20 -8 -16 -18 4 -12 28 -14 124 -13 102 2 119 4
119 18 0 14 -15 16 -102 16 -57 0 -113 -1 -125 -3z"/>
<path d="M1320 5662 c-44 -15 -51 -66 -14 -101 25 -24 26 -25 59 -7 19 10 36
25 39 32 3 8 16 14 28 15 20 1 19 2 -5 9 -16 5 -35 17 -42 27 -12 16 -13 15
-8 -10 5 -26 4 -27 -42 -27 -39 0 -46 3 -43 18 2 11 14 18 36 20 32 3 43 16
20 24 -7 3 -20 3 -28 0z"/>
<path d="M3198 5653 c-29 -7 -21 -33 10 -35 37 -2 201 6 221 11 2 1 -2 8 -9
16 -9 11 -22 14 -43 9 -39 -8 -125 -9 -134 -1 -7 7 -18 7 -45 0z"/>
<path d="M2610 5605 c0 -12 15 -14 85 -12 60 1 85 6 85 15 0 9 -24 12 -85 12
-69 0 -85 -3 -85 -15z"/>
<path d="M1860 5586 c0 -23 3 -24 55 -23 30 1 55 4 55 8 0 4 21 6 47 4 26 -2
52 0 59 6 8 7 14 7 19 -1 10 -15 35 -12 35 5 0 13 -17 15 -112 14 -62 -1 -123
1 -135 5 -20 6 -23 4 -23 -18z"/>
<path d="M3660 5495 c0 -8 4 -15 10 -15 5 0 7 7 4 15 -4 8 -8 15 -10 15 -2 0
-4 -7 -4 -15z"/>
<path d="M1301 5424 c-19 -13 -22 -23 -18 -53 8 -60 30 -106 68 -139 40 -35
70 -40 89 -17 11 13 11 20 0 40 -10 20 -11 30 -2 51 10 21 9 33 -7 69 -28 64
-80 84 -130 49z m69 -38 c0 -3 -4 -8 -10 -11 -5 -3 -10 -1 -10 4 0 6 5 11 10
11 6 0 10 -2 10 -4z"/>
<path d="M3470 5351 c-14 -4 -20 -10 -14 -14 6 -3 20 0 30 8 21 16 20 16 -16
6z"/>
<path d="M6289 5355 c-3 -2 -60 -5 -127 -6 -67 0 -124 -4 -126 -8 -2 -3 2 -49
10 -101 7 -52 13 -112 14 -132 l0 -38 78 1 c42 0 113 4 157 9 73 9 136 14 223
18 l32 2 0 59 c0 97 -8 121 -40 121 -24 0 -28 -5 -34 -40 -3 -22 -10 -40 -14
-41 -4 0 -17 -2 -29 -3 -36 -4 -44 8 -53 77 -4 36 -11 70 -15 76 -6 11 -67 16
-76 6z m-166 -124 c8 -12 13 -45 13 -83 -1 -58 -3 -63 -25 -66 -33 -5 -38 4
-46 85 -7 74 -7 75 37 82 4 0 13 -8 21 -18z"/>
<path d="M2366 5324 c-3 -9 -6 -18 -6 -20 0 -9 89 -3 95 6 5 7 11 8 19 1 7 -6
42 -7 91 -2 43 4 93 6 112 4 24 -3 33 0 33 12 0 12 -14 15 -76 15 -41 0 -84
-5 -94 -10 -13 -7 -21 -7 -25 0 -4 6 -11 7 -17 4 -16 -10 -108 -11 -108 -2 0
14 -18 8 -24 -8z"/>
<path d="M2085 5320 c-22 -3 -68 -5 -102 -5 -54 0 -63 -2 -63 -17 0 -13 8 -18
25 -18 14 0 25 5 25 11 0 7 11 8 32 4 43 -10 130 -7 140 3 16 16 -16 28 -57
22z"/>
<path d="M2172 5310 c3 -15 14 -16 128 -12 25 1 40 7 40 15 0 9 -23 12 -85 12
-71 0 -85 -3 -83 -15z"/>
<path d="M5341 5312 c-59 -8 -110 -20 -118 -28 -8 -8 -13 -28 -11 -46 l3 -33
-73 -3 c-64 -3 -73 -5 -68 -19 4 -9 10 -59 13 -111 l6 -94 86 6 c47 4 160 11
251 16 91 5 169 9 174 9 5 1 4 7 -2 14 -6 6 -13 75 -17 152 -4 77 -9 141 -10
143 -2 2 -19 -1 -39 -6 -20 -6 -38 -7 -41 -2 -9 15 -51 16 -154 2z m216 -94
c-3 -8 -6 -5 -6 6 -1 11 2 17 5 13 3 -3 4 -12 1 -19z"/>
<path d="M3704 5308 c-7 -11 106 -9 131 2 13 6 -4 8 -53 7 -40 0 -75 -5 -78
-9z"/>
<path d="M1684 5294 c3 -9 6 -18 6 -20 0 -2 14 -4 30 -4 17 0 30 5 30 11 0 7
4 8 13 2 6 -5 40 -7 75 -5 47 3 62 7 62 19 0 12 -14 14 -77 12 -43 -1 -84 -7
-92 -13 -10 -8 -15 -8 -18 2 -3 6 -12 12 -20 12 -10 0 -13 -6 -9 -16z"/>
<path d="M5634 5283 c13 -74 18 -244 6 -258 -10 -13 -8 -15 11 -15 67 1 66 -3
52 143 -6 73 -12 138 -12 145 -1 7 -14 12 -32 12 -28 0 -30 -2 -25 -27z"/>
<path d="M4050 5244 c-14 -2 -54 -8 -90 -14 -36 -6 -107 -15 -159 -20 -130
-13 -142 -30 -21 -30 52 0 130 -7 173 -15 43 -8 104 -15 134 -15 l55 0 -7 43
c-11 62 -10 61 -85 51z"/>
<path d="M2098 5091 c5 -99 4 -102 -70 -115 -34 -6 -38 -5 -44 19 -6 24 -9 25
-79 25 -40 0 -80 3 -88 6 -18 7 -28 -49 -16 -86 5 -14 10 -52 13 -85 2 -33 7
-69 10 -80 6 -22 15 -148 16 -209 l0 -39 48 7 c26 3 112 10 192 16 80 5 276
21 435 35 418 35 934 75 978 75 l39 0 -6 38 c-4 20 -13 106 -20 191 -8 84 -19
158 -24 163 -9 9 -72 8 -292 -7 -104 -7 -110 -9 -110 -34 0 -16 -9 -21 -46
-27 -75 -11 -306 0 -332 17 -19 12 -24 12 -31 0 -11 -16 -161 -27 -161 -11 0
5 -11 10 -25 10 -25 0 -31 15 -37 100 l-3 35 -89 3 c-78 2 -89 5 -93 22 -5 18
-14 20 -88 20 l-82 0 5 -89z m352 -311 c0 -5 -9 -10 -20 -10 -11 0 -20 5 -20
10 0 6 9 10 20 10 11 0 20 -4 20 -10z"/>
<path d="M4610 5130 c0 -5 -13 -16 -30 -25 -25 -13 -30 -22 -30 -50 0 -19 -4
-35 -10 -35 -5 0 -10 9 -10 21 0 11 -4 18 -8 15 -5 -3 -15 6 -22 19 -13 24
-14 24 -27 5 -8 -11 -11 -25 -8 -30 8 -13 -8 -13 -22 1 -17 17 -56 7 -59 -16
-3 -21 -30 -45 -51 -45 -7 0 -13 -9 -13 -21 0 -20 3 -20 158 -13 86 4 182 7
213 7 l57 -1 -8 28 c-5 16 -6 31 -3 33 2 3 0 8 -6 12 -6 3 -11 -2 -12 -12 0
-16 -1 -16 -8 2 -4 11 -19 22 -32 25 -18 4 -26 15 -33 48 -6 23 -16 42 -23 42
-7 0 -13 -4 -13 -10z"/>
<path d="M7111 5020 c-80 -7 -108 -20 -94 -43 7 -11 294 0 306 12 4 4 5 15 1
24 -7 19 -57 20 -213 7z"/>
<path d="M4050 4960 c-47 -9 -107 -21 -133 -25 -89 -12 -40 -17 102 -10 140 7
141 7 141 31 0 28 1 28 -110 4z"/>
<path d="M6439 4886 c-3 -3 -44 -6 -92 -7 -91 -2 -117 -12 -72 -29 22 -8 100
-6 170 5 11 2 37 4 58 4 26 1 37 5 37 16 0 11 -12 15 -48 15 -27 0 -51 -2 -53
-4z"/>
<path d="M5615 4830 c3 -5 8 -10 11 -10 2 0 4 5 4 10 0 6 -5 10 -11 10 -5 0
-7 -4 -4 -10z"/>
<path d="M5440 4819 c-27 -5 -22 -6 25 -7 33 0 71 4 85 8 19 6 13 8 -25 7 -27
-1 -66 -5 -85 -8z"/>
<path d="M5345 4810 l-40 -7 43 -2 c23 0 42 4 42 9 0 6 -1 9 -2 9 -2 -1 -21
-5 -43 -9z"/>
<path d="M4045 4760 c3 -5 12 -7 20 -3 21 7 19 13 -6 13 -11 0 -18 -4 -14 -10z"/>
<path d="M3890 4750 c0 -6 7 -10 15 -10 8 0 15 2 15 4 0 2 -7 6 -15 10 -8 3
-15 1 -15 -4z"/>
<path d="M4030 4502 c-64 -3 -92 -11 -85 -23 4 -5 14 -8 23 -5 10 3 39 6 65 8
27 1 50 5 53 9 7 12 -7 14 -56 11z"/>
<path d="M3828 4489 c-9 -5 -33 -7 -52 -5 -23 3 -36 0 -40 -9 -2 -7 -3 -15 -1
-17 8 -7 195 16 195 25 0 5 -15 7 -34 4 -18 -3 -38 -2 -42 3 -5 5 -17 5 -26
-1z"/>
<path d="M2733 4413 c-36 -2 -63 -9 -63 -15 0 -6 12 -8 31 -4 17 3 49 6 70 6
22 0 39 5 39 10 0 6 -3 9 -7 8 -5 -1 -36 -3 -70 -5z"/>
<path d="M2430 4392 c-41 -6 -48 -22 -9 -21 50 2 97 15 79 22 -15 5 -26 5 -70
-1z"/>
<path d="M2545 4390 c6 -10 83 -5 93 5 3 3 -18 5 -47 5 -32 0 -50 -4 -46 -10z"/>
<path d="M5430 4375 c-17 -20 -11 -24 23 -18 15 3 26 11 24 17 -6 18 -33 18
-47 1z"/>
<path d="M5495 4380 c-4 -6 -3 -16 3 -22 13 -13 23 4 13 21 -7 10 -10 10 -16
1z"/>
<path d="M2208 4373 c-40 -6 -35 -23 6 -23 42 0 68 9 60 21 -5 9 -17 9 -66 2z"/>
<path d="M2300 4370 c0 -5 14 -10 30 -10 17 0 30 5 30 10 0 6 -13 10 -30 10
-16 0 -30 -4 -30 -10z"/>
<path d="M5295 4366 c-19 -14 -19 -15 -2 -21 9 -4 24 -2 32 5 9 7 26 9 46 5
24 -5 30 -4 27 6 -6 20 -79 23 -103 5z"/>
<path d="M2080 4360 c-28 -9 -22 -12 33 -15 25 -1 37 2 37 11 0 15 -30 17 -70
4z"/>
<path d="M5206 4356 c5 -14 54 -19 54 -6 0 4 -10 10 -22 14 -33 9 -38 7 -32
-8z"/>
<path d="M1877 4351 c-21 -3 -38 -9 -37 -13 0 -9 -7 -9 -38 3 -36 14 -52 11
-52 -11 0 -23 10 -25 29 -7 10 8 12 8 7 0 -6 -11 41 -11 99 0 11 3 26 5 33 6
6 0 12 8 12 16 0 8 -3 14 -7 14 -5 -1 -25 -5 -46 -8z"/>
<path d="M1980 4344 c0 -11 5 -14 16 -10 9 3 24 6 35 6 10 0 19 5 19 10 0 6
-16 10 -35 10 -25 0 -35 -4 -35 -16z"/>
<path d="M4716 4353 l-48 -4 4 -49 c3 -27 2 -53 -1 -58 -8 -11 -112 -39 -179
-48 -42 -5 -52 -10 -48 -23 3 -9 8 -57 11 -108 l7 -92 -33 -5 c-88 -14 -171
-17 -182 -7 -9 7 -46 6 -122 -4 -61 -8 -115 -15 -122 -15 -9 0 -11 -18 -6 -67
4 -38 7 -105 7 -150 l1 -83 50 0 c28 0 88 5 135 10 47 6 186 21 310 35 273 30
382 46 393 56 5 4 4 47 -2 95 -6 49 -16 147 -21 219 -6 71 -15 169 -21 217
l-12 88 -36 -2 c-20 -1 -58 -3 -85 -5z m-299 -609 c-3 -3 -12 -4 -19 -1 -8 3
-5 6 6 6 11 1 17 -2 13 -5z"/>
<path d="M5128 4353 c-27 -7 -22 -23 7 -23 16 0 25 6 25 15 0 15 -2 16 -32 8z"/>
<path d="M4968 4342 c-17 -2 -28 -9 -28 -19 0 -11 6 -14 23 -9 12 3 37 6 55 6
21 0 32 5 32 14 0 14 -18 16 -82 8z"/>
<path d="M5065 4340 c3 -5 13 -10 21 -10 8 0 14 5 14 10 0 6 -9 10 -21 10 -11
0 -17 -4 -14 -10z"/>
<path d="M4036 4331 c-20 -8 -20 -8 0 -12 10 -3 30 -2 44 2 14 4 20 7 13 8 -6
1 -17 3 -25 5 -7 3 -22 1 -32 -3z"/>
<path d="M3949 4326 c-2 -2 -49 -7 -104 -10 -55 -4 -102 -9 -104 -12 -3 -2 1
-10 8 -17 9 -9 14 -9 21 3 7 10 10 11 10 2 0 -8 10 -11 28 -8 15 3 59 8 97 11
83 8 105 13 105 26 0 9 -52 13 -61 5z"/>
<path d="M3332 4300 c-51 -5 -125 -11 -163 -15 l-70 -7 5 -37 c3 -20 13 -117
21 -216 8 -99 18 -192 21 -207 4 -20 1 -28 -13 -31 -25 -8 -164 -17 -303 -22
-63 -2 -136 -7 -162 -10 -45 -7 -47 -9 -41 -36 5 -29 3 -31 -43 -44 -7 -2 -8
-26 -2 -76 4 -41 9 -87 10 -103 l2 -28 66 6 c36 3 153 15 260 27 107 11 236
24 287 29 107 11 406 49 409 53 1 1 -8 97 -21 212 -13 116 -29 279 -36 363
l-13 152 -61 -1 c-33 -1 -102 -5 -153 -9z m-555 -736 c-11 -11 -66 -14 -72 -4
-3 6 3 10 17 10 13 0 30 5 38 10 14 9 29 -5 17 -16z m89 13 c4 -4 -5 -7 -19
-7 -15 0 -30 0 -34 -1 -4 0 -9 4 -11 10 -4 11 53 9 64 -2z"/>
<path d="M7405 4280 c-18 -8 -17 -9 8 -9 15 -1 27 4 27 9 0 12 -8 12 -35 0z"/>
<path d="M2298 4196 c-21 -7 -40 -11 -43 -8 -3 4 -16 8 -29 9 -17 2 -25 -3
-29 -18 -5 -20 -3 -20 61 -14 84 8 104 14 99 28 -5 17 -19 17 -59 3z"/>
<path d="M2000 4176 c0 -9 -14 -11 -55 -8 -40 3 -55 1 -55 -8 0 -10 -3 -10
-15 0 -13 10 -15 9 -15 -10 0 -22 2 -23 78 -16 42 3 88 8 102 10 14 3 45 7 70
11 50 7 55 9 45 25 -7 11 -91 8 -102 -4 -3 -3 -16 -1 -29 4 -18 7 -24 6 -24
-4z m-63 -22 c-3 -3 -12 -4 -19 -1 -8 3 -5 6 6 6 11 1 17 -2 13 -5z"/>
<path d="M7380 4054 c-8 -2 -94 -13 -190 -24 -163 -18 -436 -50 -730 -85 -69
-8 -197 -22 -285 -30 -88 -9 -248 -27 -355 -40 -195 -25 -637 -75 -659 -75 -6
0 -11 -7 -11 -16 0 -13 8 -15 48 -10 26 3 211 26 412 51 370 45 479 58 830 95
178 19 426 48 855 100 88 11 174 20 192 20 18 0 33 5 33 10 0 9 -106 12 -140
4z"/>
<path d="M5725 3960 c-28 -7 -27 -8 13 -9 23 0 42 4 42 9 0 11 -11 11 -55 0z"/>
<path d="M5660 3950 c0 -5 7 -10 15 -10 8 0 15 5 15 10 0 6 -7 10 -15 10 -8 0
-15 -4 -15 -10z"/>
<path d="M5559 3946 c-3 -3 -120 -15 -151 -16 -5 0 -8 -5 -8 -11 0 -7 12 -9
33 -5 17 3 64 8 102 12 79 7 123 23 64 24 -20 0 -38 -2 -40 -4z"/>
<path d="M5327 3924 c-3 -3 -42 -7 -86 -8 -45 -2 -81 -6 -81 -9 0 -4 0 -10 0
-15 0 -7 52 -3 170 14 54 7 77 24 34 24 -17 0 -33 -3 -37 -6z"/>
<path d="M7460 3912 c-51 -4 -459 -51 -495 -57 -16 -3 -70 -9 -120 -15 -49 -6
-164 -19 -255 -30 -225 -26 -530 -61 -1004 -115 -220 -25 -402 -47 -404 -50
-12 -12 8 -13 83 -5 669 70 1239 136 2153 249 66 8 93 16 81 24 -2 1 -20 1
-39 -1z"/>
<path d="M6086 3572 c-3 -5 -1 -26 4 -48 5 -21 14 -104 20 -184 6 -80 18 -210
26 -289 9 -79 12 -147 7 -152 -5 -5 -40 -11 -79 -15 l-71 -7 -7 104 c-7 89
-30 301 -41 364 -2 11 -4 56 -4 100 -1 68 -3 77 -15 65 -11 -12 -12 -31 -5
-100 5 -47 11 -112 14 -145 3 -33 14 -132 24 -220 11 -88 16 -164 12 -168 -4
-4 -34 -9 -66 -10 l-59 -2 -7 45 c-4 25 -13 114 -20 198 -6 83 -16 152 -21
152 -12 0 -10 -56 7 -205 8 -71 15 -146 15 -166 0 -34 -2 -37 -36 -44 -20 -3
-40 -3 -45 2 -10 11 -42 307 -37 349 3 22 0 34 -8 34 -9 0 -11 -21 -7 -80 5
-61 3 -80 -7 -80 -9 0 -9 -4 -2 -12 11 -13 32 -146 32 -199 0 -27 -3 -29 -39
-29 l-39 0 -9 103 c-4 56 -7 129 -6 162 1 33 -1 52 -3 43 -3 -10 -12 -18 -20
-18 -17 0 -17 -8 1 -140 21 -151 20 -157 -12 -163 -16 -3 -32 -2 -37 3 -11 11
-45 373 -39 420 2 19 4 41 5 48 2 17 18 15 18 -3 0 -23 0 -22 15 -65 8 -22 22
-51 30 -63 16 -22 16 -22 10 8 -14 62 -37 124 -51 135 -45 38 -63 -80 -43
-275 7 -71 13 -150 13 -175 l1 -45 -45 -6 c-25 -4 -48 -4 -52 0 -19 18 -35
456 -17 467 6 3 22 -5 36 -17 14 -13 24 -19 21 -14 -2 6 -16 36 -31 68 -15 32
-27 62 -27 67 0 6 -4 10 -10 10 -5 0 -10 -16 -10 -35 0 -19 -9 -58 -20 -87
-13 -36 -15 -47 -5 -34 14 18 15 11 15 -69 0 -49 5 -152 11 -228 6 -76 10
-139 8 -141 -10 -8 -66 -14 -76 -8 -7 4 -17 70 -25 157 -8 99 -15 140 -19 120
l-7 -30 -1 34 c0 19 -4 32 -7 29 -3 -3 2 -81 12 -172 15 -142 20 -166 34 -166
9 0 76 9 148 20 72 11 151 22 174 25 24 2 88 11 143 20 55 8 168 25 250 36 83
12 155 22 161 24 7 2 8 22 3 62 -4 32 -17 168 -28 303 -12 135 -24 266 -27
293 -5 44 -16 58 -28 39z"/>
<path d="M2263 3540 c-101 -15 -103 -16 -103 -59 0 -23 -7 -46 -16 -55 -14
-15 -13 -16 10 -16 24 0 148 15 214 26 22 3 30 9 25 17 -8 13 -9 19 -11 65 -2
29 -5 32 -34 31 -18 -1 -57 -5 -85 -9z"/>
<path d="M4870 3525 c-8 -2 -95 -16 -193 -31 l-178 -28 6 -117 7 -118 -38 -10
c-22 -5 -67 -13 -102 -17 -34 -4 -64 -9 -66 -13 -1 -3 3 -62 9 -131 14 -143
14 -144 -63 -154 -84 -12 -142 -28 -142 -39 0 -45 24 -283 29 -289 5 -6 251
27 731 97 63 10 118 20 121 24 4 3 1 67 -7 141 -7 74 -22 243 -34 375 -12 132
-24 257 -27 278 -6 37 -11 40 -53 32z"/>
<path d="M2058 3493 c-32 -9 -48 -19 -48 -30 0 -13 7 -14 38 -9 20 3 45 6 55
6 10 0 17 8 17 19 0 28 -9 30 -62 14z"/>
<path d="M4085 3401 c-5 -5 -35 -12 -65 -15 -105 -9 -149 -19 -154 -32 -3 -7
-2 -15 2 -18 8 -5 220 29 228 37 3 3 4 13 2 22 -2 11 -6 13 -13 6z"/>
<path d="M3810 3350 c0 -19 11 -26 23 -14 8 8 -3 34 -14 34 -5 0 -9 -9 -9 -20z"/>
<path d="M5655 3298 c-16 -49 -36 -130 -32 -134 5 -5 33 69 42 114 6 31 -1 46
-10 20z"/>
<path d="M2500 3263 c0 -7 13 -11 30 -11 17 1 30 7 30 13 0 8 -12 12 -30 11
-16 0 -30 -6 -30 -13z"/>
<path d="M2423 3262 c-13 -2 -23 -8 -23 -14 0 -6 10 -8 23 -4 12 3 28 6 35 6
6 0 12 4 12 8 0 9 -10 10 -47 4z"/>
<path d="M2260 3246 c0 -2 9 -6 20 -9 11 -3 20 -1 20 4 0 5 -9 9 -20 9 -11 0
-20 -2 -20 -4z"/>
<path d="M2315 3240 c3 -5 10 -10 16 -10 5 0 9 5 9 10 0 6 -7 10 -16 10 -8 0
-12 -4 -9 -10z"/>
<path d="M2175 3220 c-3 -5 -2 -10 4 -10 5 0 13 5 16 10 3 6 2 10 -4 10 -5 0
-13 -4 -16 -10z"/>
<path d="M3595 3207 l-60 -12 3 -40 c2 -22 8 -83 13 -135 38 -379 39 -354 -8
-369 -44 -13 -185 -43 -188 -39 -1 2 -5 41 -9 86 -9 120 -12 124 -83 106 -32
-8 -79 -17 -105 -20 l-47 -7 -5 34 c-3 19 -8 75 -11 124 -3 50 -8 115 -11 145
l-6 56 -160 -23 c-88 -12 -163 -24 -165 -27 -3 -3 2 -71 11 -152 13 -114 14
-149 5 -155 -7 -4 -64 -15 -126 -25 l-115 -18 6 -90 c7 -93 9 -141 7 -163 -1
-8 -14 -13 -32 -13 -59 0 -304 -42 -311 -53 -7 -11 -4 -32 9 -79 6 -23 38 -23
228 1 501 65 789 111 697 111 -18 0 -21 6 -20 40 0 22 3 40 7 41 3 0 15 2 26
5 11 2 38 7 60 10 22 3 67 12 100 19 44 10 62 10 67 2 4 -6 4 -15 2 -19 -3 -4
0 -8 6 -8 7 0 10 -12 8 -27 -3 -24 0 -28 22 -26 34 2 188 21 284 35 l78 11 -7
86 c-4 47 -17 201 -28 341 l-22 255 -30 2 c-17 1 -57 -4 -90 -10z m-1029 -784
c-7 -7 -26 7 -26 19 0 6 6 6 15 -2 9 -7 13 -15 11 -17z"/>
<path d="M5309 3172 c-6 -18 -15 -32 -20 -32 -5 0 -9 -7 -9 -15 0 -8 -4 -15
-10 -15 -5 0 -10 -4 -10 -9 0 -5 11 -4 25 2 14 7 25 20 25 30 0 10 5 27 11 39
6 11 8 22 5 25 -3 4 -11 -8 -17 -25z"/>
<path d="M2278 3076 c-70 -6 -98 -12 -98 -22 0 -23 16 -24 116 -9 55 8 105 15
112 15 6 0 12 7 12 15 0 9 -8 14 -22 12 -13 -1 -67 -6 -120 -11z"/>
<path d="M2040 3049 c-25 -3 -51 -4 -57 -2 -9 3 -13 -4 -13 -21 0 -22 4 -26
23 -22 12 3 55 10 95 16 50 8 72 16 72 26 0 15 -35 16 -120 3z"/>
<path d="M3198 2453 c7 -3 16 -2 19 1 4 3 -2 6 -13 5 -11 0 -14 -3 -6 -6z"/>
<path d="M4637 8946 c-4 -11 -1 -13 10 -9 13 5 15 2 11 -14 -4 -15 0 -23 12
-26 13 -3 16 -11 13 -30 -4 -18 -10 -24 -22 -21 -9 3 -6 -1 7 -7 27 -15 29
-29 2 -24 -18 3 -19 1 -9 -17 9 -17 13 -18 20 -7 7 11 9 11 9 -3 0 -9 -6 -19
-12 -21 -10 -4 -10 -6 0 -6 18 -1 15 -19 -5 -25 -14 -4 -14 -4 2 -3 11 0 30
-4 43 -11 18 -11 22 -10 22 2 0 8 13 16 29 18 17 2 28 1 25 -4 -3 -4 2 -8 10
-8 9 0 16 -4 16 -8 0 -15 46 -31 61 -21 8 5 10 9 4 9 -5 0 -4 4 4 9 9 6 19 4
29 -6 12 -12 16 -12 23 -1 7 10 9 9 9 -4 0 -11 6 -15 21 -11 12 4 25 0 31 -8
7 -10 8 -9 4 6 -5 16 -1 20 19 21 14 1 22 -2 19 -7 -3 -5 2 -9 11 -9 9 0 14
-4 11 -8 -3 -5 1 -9 9 -9 18 0 19 9 3 25 -7 7 -8 12 -2 12 5 0 15 -9 22 -20 7
-12 23 -20 38 -20 16 0 23 -4 18 -12 -4 -7 -3 -8 4 -4 6 4 24 0 40 -8 16 -8
32 -12 36 -9 3 4 6 0 6 -7 0 -7 3 -11 6 -7 3 3 22 -3 42 -13 19 -11 39 -17 44
-14 4 3 8 0 8 -6 0 -7 -9 -9 -22 -5 -16 4 -19 4 -9 -3 7 -5 10 -15 7 -21 -4
-6 -2 -11 3 -11 6 0 11 4 11 9 0 5 9 11 20 14 11 3 18 1 14 -4 -3 -5 1 -9 9
-9 8 0 17 -9 20 -20 3 -12 14 -20 26 -20 12 0 21 -6 21 -15 0 -16 -15 -21 -23
-7 -2 4 -3 2 -1 -4 1 -6 -2 -17 -7 -25 -8 -12 -10 -12 -19 1 -6 9 -10 11 -10
3 0 -22 39 -36 58 -21 15 11 15 11 4 -3 -10 -14 -10 -18 3 -23 9 -3 15 0 15 8
0 8 3 22 7 32 4 11 2 15 -4 11 -6 -4 -8 3 -5 18 l4 24 20 -22 c11 -12 17 -17
14 -10 -4 6 -1 15 6 19 8 5 6 10 -8 15 -17 7 -17 8 -1 8 9 1 17 8 17 16 0 8 6
15 14 15 8 0 14 6 13 13 -2 54 5 83 22 94 18 11 19 9 18 -38 -1 -27 1 -49 6
-49 4 0 7 46 7 103 0 56 1 118 1 137 1 19 1 56 0 83 l-1 47 -474 0 c-405 0
-475 -2 -479 -14z m933 -51 c0 -8 -2 -15 -4 -15 -2 0 -6 7 -10 15 -3 8 -1 15
4 15 6 0 10 -7 10 -15z m7 -117 c-3 -8 -6 -5 -6 6 -1 11 2 17 5 13 3 -3 4 -12
1 -19z m-32 -57 c3 -5 2 -12 -3 -15 -5 -3 -9 1 -9 9 0 17 3 19 12 6z m-25
-131 c0 -5 -2 -10 -4 -10 -3 0 -8 5 -11 10 -3 6 -1 10 4 10 6 0 11 -4 11 -10z
m-25 -20 c-3 -5 -14 -10 -23 -9 -14 0 -13 2 3 9 27 11 27 11 20 0z"/>
<path d="M9630 8935 c0 -14 5 -25 10 -25 6 0 10 4 10 10 0 5 6 7 13 4 7 -2 13
4 14 16 1 15 -4 20 -23 20 -19 0 -24 -5 -24 -25z"/>
<path d="M9704 8930 c4 -33 16 -54 16 -28 0 11 8 14 28 11 20 -4 23 -2 12 6
-8 5 -11 13 -8 17 4 3 18 -3 32 -14 14 -10 22 -22 19 -26 -3 -3 -1 -6 5 -6 11
0 28 -38 24 -54 -2 -5 5 -18 15 -29 11 -12 12 -17 4 -12 -11 6 -13 4 -8 -8 8
-20 -11 -33 -25 -19 -8 8 -8 15 0 25 9 11 7 16 -13 25 -21 10 -25 9 -25 -4 0
-8 7 -26 16 -40 9 -13 15 -26 13 -28 -8 -8 -85 -10 -97 -2 -19 11 -14 -9 6
-27 10 -10 27 -17 38 -17 23 0 77 -39 54 -40 -28 0 -89 21 -97 33 -5 7 -22 12
-40 12 -34 0 -34 -11 1 -25 17 -7 17 -9 4 -9 -19 -1 -26 -21 -7 -21 5 0 7 -4
4 -10 -3 -6 1 -7 9 -4 9 3 16 2 16 -4 0 -5 -25 -13 -56 -17 -51 -6 -54 -8 -37
-21 17 -14 17 -15 -2 -11 -14 2 -19 10 -18 24 1 12 -4 27 -12 33 -23 19 -18
33 9 28 22 -4 23 -2 21 28 -2 18 -7 39 -11 46 -5 10 -4 11 7 1 18 -18 34 -16
19 2 -10 12 -10 15 0 15 9 0 8 7 -4 25 -9 13 -16 28 -16 32 0 4 4 3 8 -3 4 -6
19 -14 34 -18 l28 -6 -20 35 c-11 20 -18 40 -15 46 4 5 0 9 -7 9 -11 0 -10 2
0 9 11 7 10 10 -3 15 -25 9 -28 8 -22 -14 3 -13 0 -20 -9 -20 -17 0 -18 -17
-1 -23 9 -3 9 -8 -2 -18 -9 -9 -11 -9 -7 -1 4 6 2 12 -3 12 -6 0 -11 -4 -11
-10 0 -5 -7 -7 -15 -4 -11 5 -15 -1 -15 -19 0 -14 6 -28 13 -30 7 -3 5 -6 -5
-6 -10 -1 -18 -8 -18 -16 0 -7 -7 -18 -16 -23 -12 -7 -15 -17 -11 -32 4 -17 0
-29 -15 -41 -13 -12 -18 -25 -14 -35 3 -9 1 -23 -5 -30 -6 -8 -8 -14 -4 -14 4
0 2 -6 -5 -14 -6 -8 -10 -23 -9 -33 2 -10 -1 -29 -5 -42 -6 -16 -4 -26 5 -32
11 -6 10 -9 -4 -15 -24 -9 -21 -24 6 -25 20 -1 20 -2 -5 -12 -30 -12 -38 -37
-12 -37 13 0 14 -3 5 -13 -14 -18 -4 -27 29 -27 17 0 31 8 39 23 7 12 21 23
31 23 10 0 16 -4 14 -8 -3 -4 -1 -8 5 -8 5 0 11 6 14 13 4 9 7 9 17 0 11 -10
10 -14 -3 -19 -22 -8 -22 -44 -1 -44 14 0 14 3 4 15 -11 13 -10 14 4 9 11 -4
16 -1 16 11 0 10 8 24 18 31 11 9 13 13 4 14 -7 0 -10 5 -7 10 4 6 10 8 15 5
5 -3 11 -1 15 4 3 7 15 7 30 1 15 -6 27 -6 30 0 14 22 23 8 13 -21 -14 -40 -6
-46 25 -18 14 12 36 27 49 33 22 11 25 28 13 64 -2 6 -15 12 -27 11 -13 0 -17
-3 -10 -6 18 -7 -16 -32 -43 -33 -11 0 -44 -6 -73 -14 -46 -12 -52 -11 -48 1
3 8 6 21 6 29 0 8 7 14 15 14 9 0 18 7 21 15 4 8 10 12 15 9 5 -3 6 1 3 9 -7
20 63 44 79 28 8 -8 7 -11 -6 -11 -11 0 -14 -5 -10 -17 4 -10 2 -14 -4 -10 -7
5 -9 0 -6 -13 3 -11 9 -17 14 -14 5 3 7 9 5 13 -3 4 0 13 5 21 8 12 12 12 16
2 2 -6 9 -9 15 -6 6 4 5 10 -3 15 -7 4 -10 11 -6 16 5 4 12 2 16 -5 4 -7 16
-10 27 -7 18 6 18 6 2 -8 -20 -16 -6 -39 18 -30 17 6 19 -13 2 -21 -9 -3 -8
-9 6 -20 10 -8 15 -19 11 -25 -3 -6 -1 -11 6 -11 8 0 6 -6 -4 -18 -10 -10 -17
-21 -17 -25 0 -11 72 0 80 13 4 7 13 10 19 6 7 -5 9 -1 5 8 -3 9 -1 16 5 16 6
0 11 -4 11 -9 0 -5 16 -12 35 -15 20 -4 33 -11 30 -16 -3 -6 1 -7 9 -4 9 3 13
11 9 18 -5 8 -3 8 8 -1 8 -7 33 -10 58 -7 24 2 42 1 39 -1 -6 -6 -93 -39 -228
-86 -47 -17 -94 -34 -105 -39 -151 -68 -316 -115 -387 -111 -20 1 -62 8 -92
16 -97 25 -116 27 -116 10 0 -8 4 -15 9 -15 11 0 8 -26 -4 -37 -4 -4 -5 -2 0
6 9 15 -20 9 -68 -16 -16 -8 -35 -12 -43 -9 -17 7 -42 -29 -50 -71 -5 -27 -9
-31 -20 -22 -19 15 -55 7 -69 -16 -10 -16 -10 -26 -1 -47 l12 -28 54 35 c30
19 61 35 70 35 37 -1 -118 -94 -207 -126 -29 -10 -53 -21 -53 -26 0 -4 11 -37
25 -73 33 -88 92 -187 197 -330 110 -149 94 -130 166 -197 58 -53 61 -59 51
-82 -7 -14 -16 -23 -20 -20 -5 3 -9 -4 -9 -15 0 -12 -5 -21 -11 -21 -5 0 -7
-5 -3 -11 3 -6 9 -7 13 -3 7 11 75 12 79 2 7 -23 1 -49 -10 -42 -10 6 -10 4 0
-7 17 -18 15 -42 -3 -35 -8 3 -14 0 -12 -7 1 -8 -14 -11 -53 -10 -30 1 -72 3
-94 3 -21 1 -45 7 -52 15 -8 8 -21 12 -29 9 -8 -4 -15 -1 -15 5 0 6 5 11 12
11 6 0 9 3 5 6 -6 7 -43 -12 -39 -20 6 -15 1 -26 -13 -26 -19 0 -38 -36 -30
-60 3 -10 21 -32 40 -49 58 -50 149 -65 220 -35 37 15 39 15 59 -8 21 -22 63
-120 71 -163 14 -74 25 -91 81 -126 28 -17 39 -19 69 -10 31 8 36 7 31 -5 -5
-13 10 -18 52 -17 17 1 15 -22 -3 -41 -8 -8 -15 -18 -15 -22 0 -10 -41 -44
-54 -44 -6 0 -17 -9 -24 -20 -13 -21 -38 -28 -26 -7 5 8 4 9 -4 2 -6 -6 -12
-24 -13 -40 -4 -53 32 -95 81 -95 25 0 185 -101 215 -136 20 -23 21 -24 35 -5
7 11 18 17 24 14 6 -3 8 -3 4 2 -4 4 -2 15 5 23 10 13 9 15 -5 9 -10 -3 -18
-2 -18 2 0 5 6 11 14 14 18 7 90 -26 80 -36 -4 -4 -2 -7 4 -7 7 0 12 -4 12
-10 0 -5 -7 -10 -15 -10 -24 0 -17 -14 15 -32 29 -17 40 -38 20 -38 -5 0 -10
6 -10 14 0 12 -4 12 -30 0 -28 -15 -39 -25 -22 -23 28 5 38 -4 40 -33 2 -28
-10 -47 -30 -48 -5 0 -8 7 -8 16 0 13 -3 14 -13 5 -8 -6 -17 -8 -20 -4 -4 3
-7 -1 -7 -10 0 -8 9 -18 19 -22 11 -3 22 -13 26 -22 5 -14 2 -13 -16 3 -22 19
-22 19 -17 -3 4 -16 2 -23 -9 -23 -11 0 -14 -6 -10 -21 4 -16 2 -19 -10 -14
-9 3 -20 0 -25 -7 -6 -10 -8 -10 -8 -1 0 7 12 23 26 36 18 17 21 24 10 24 -9
0 -16 -4 -16 -9 0 -4 -7 -8 -16 -8 -14 0 -14 3 -4 15 19 23 3 18 -22 -7 -16
-16 -17 -20 -5 -15 19 7 24 -17 7 -28 -5 -3 -10 -12 -10 -18 0 -7 4 -6 10 3 8
12 10 9 10 -12 0 -15 5 -30 10 -33 6 -4 7 -11 4 -17 -5 -7 -1 -9 9 -5 10 4 16
2 14 -5 -3 -14 74 -69 90 -63 6 2 14 1 17 -2 11 -12 102 -12 141 -1 22 6 43
11 47 10 4 -1 42 9 85 22 43 13 106 31 141 40 34 10 122 37 196 62 176 58 185
58 234 -9 47 -63 97 -109 138 -124 164 -65 246 -94 248 -92 15 21 95 142 137
209 30 47 60 94 67 105 6 11 18 31 24 45 12 25 247 377 343 515 75 108 232
322 245 335 3 3 23 28 45 55 101 128 370 394 398 395 4 0 17 9 29 20 12 11 30
20 39 20 10 0 21 4 24 10 3 5 15 15 27 21 16 8 19 8 13 -1 -5 -8 -3 -11 6 -8
8 3 13 13 11 22 -3 14 1 16 17 11 12 -4 21 -2 21 4 0 6 6 10 13 9 6 -2 11 3 9
10 -1 6 2 12 8 12 5 0 10 -5 10 -10 0 -6 10 -4 23 5 13 8 27 12 32 8 4 -5 5
-3 2 4 -4 6 -1 14 5 16 10 4 10 6 0 6 -7 1 -10 6 -7 11 4 7 11 8 18 1 17 -13
50 -17 65 -8 7 5 12 3 12 -3 0 -6 5 -8 10 -5 6 3 10 2 10 -4 0 -6 6 -8 14 -5
8 3 20 -3 27 -13 19 -25 37 -26 49 -3 6 11 15 20 21 20 6 0 7 -5 3 -12 -5 -8
-2 -9 12 -4 10 4 15 4 11 0 -4 -4 -2 -13 4 -20 7 -9 4 -14 -11 -19 -13 -4 -19
-12 -16 -20 3 -8 -3 -16 -12 -18 -16 -4 -16 -5 0 -6 9 0 20 4 23 10 5 7 14 4
27 -8 21 -18 21 -18 9 5 -6 12 -17 22 -24 22 -7 0 -6 4 3 10 22 14 30 12 30
-9 0 -11 9 -22 20 -26 24 -8 43 2 34 17 -5 7 -2 8 5 4 7 -5 18 -1 25 10 9 12
15 14 20 5 4 -7 -2 -19 -14 -29 -21 -17 -21 -19 -4 -32 16 -13 17 -13 11 2 -4
12 0 21 13 28 25 13 30 13 30 -5 0 -8 -7 -15 -15 -15 -10 0 -14 -7 -11 -22 3
-13 5 -27 5 -32 1 -4 11 -6 24 -3 12 4 29 1 37 -4 13 -9 12 -10 -2 -5 -12 3
-18 0 -18 -9 0 -13 18 -19 57 -18 6 0 13 -8 16 -18 4 -15 1 -16 -19 -9 -25 10
-28 7 -24 -23 1 -16 -2 -17 -22 -7 -22 11 -22 10 -4 -4 25 -20 36 -20 36 -1 0
8 9 15 19 15 14 0 18 -5 14 -20 -3 -11 -9 -18 -13 -15 -5 3 -12 0 -16 -6 -4
-7 -3 -9 3 -6 7 4 10 -4 9 -22 0 -19 -5 -27 -13 -24 -7 3 -13 9 -13 15 0 5 -5
6 -11 2 -8 -4 -7 -9 2 -15 19 -11 -29 -62 -53 -56 -10 3 -16 2 -13 -3 5 -9
-30 -52 -42 -50 -4 0 -26 -17 -49 -37 -22 -21 -92 -77 -155 -125 -170 -130
-239 -208 -404 -462 -75 -116 -92 -146 -83 -146 16 0 53 47 102 130 32 52 91
136 133 188 117 144 350 352 395 352 10 0 18 5 18 10 0 6 6 10 13 10 7 0 49
23 92 50 98 62 268 150 289 150 13 0 16 12 16 64 0 61 -2 67 -41 113 -23 26
-48 57 -58 68 -42 53 -129 163 -147 186 -10 14 -38 50 -62 79 -33 41 -40 55
-31 66 6 8 18 14 26 14 8 0 11 5 8 10 -3 6 -8 58 -10 118 -2 59 -6 122 -10
140 -5 22 -4 32 4 32 7 0 5 12 -6 33 -10 17 -19 48 -20 67 -2 57 -21 202 -32
243 -7 28 -5 70 6 150 9 62 19 114 23 117 11 9 42 131 36 146 -3 7 1 20 9 28
12 12 12 22 -1 75 -11 42 -13 65 -6 74 6 7 8 24 5 40 l-5 27 -1714 0 -1714 0
4 -30z m101 -130 c3 -5 1 -10 -4 -10 -6 0 -11 5 -11 10 0 6 2 10 4 10 3 0 8
-4 11 -10z m70 -50 c3 -5 1 -10 -4 -10 -6 0 -11 5 -11 10 0 6 2 10 4 10 3 0 8
-4 11 -10z m-135 -124 c0 -3 -4 -8 -10 -11 -5 -3 -10 -1 -10 4 0 6 5 11 10 11
6 0 10 -2 10 -4z m1330 -117 c25 -6 53 -18 64 -27 15 -13 17 -13 11 -2 -7 12
-6 13 7 3 8 -7 17 -10 20 -7 3 3 9 -7 12 -22 4 -14 5 -29 1 -32 -3 -3 -5 2 -5
11 0 10 -5 17 -11 17 -5 0 -8 -4 -5 -8 3 -5 -25 -9 -62 -9 -99 -1 -144 -13
-210 -58 -45 -31 -51 -31 -48 -1 4 32 40 88 68 105 72 45 84 47 158 30z
m-1476 -18 c4 -5 -3 -7 -14 -4 -23 6 -26 13 -6 13 8 0 17 -4 20 -9z m-24 -31
c-8 -5 -17 -7 -19 -4 -3 3 1 9 9 14 8 5 17 7 19 4 3 -3 -1 -9 -9 -14z m33 -15
c-3 -9 -8 -14 -10 -11 -3 3 -2 9 2 15 9 16 15 13 8 -4z m-18 -33 c-7 -8 -35 7
-35 18 0 6 7 6 20 -2 10 -7 17 -14 15 -16z m-95 -63 c0 -14 -17 -10 -23 5 -4
10 -1 13 9 9 7 -3 14 -9 14 -14z m1666 -16 c13 -12 24 -31 24 -41 0 -10 3 -22
7 -26 7 -7 28 -87 39 -151 3 -16 9 -39 14 -50 5 -11 12 -40 15 -65 3 -25 9
-70 14 -100 5 -30 8 -82 7 -116 -2 -52 -6 -65 -29 -88 -15 -15 -27 -32 -27
-39 0 -27 13 -57 24 -57 20 0 63 53 77 95 7 22 17 44 21 49 4 6 8 19 8 30 0
12 5 28 11 36 7 11 8 -4 4 -50 -8 -103 -10 -112 -44 -177 -17 -35 -32 -66 -33
-70 -1 -5 -14 -28 -30 -52 -15 -25 -28 -51 -28 -58 0 -7 -3 -13 -8 -13 -4 0
-13 -14 -20 -30 -8 -17 -30 -49 -51 -71 -31 -34 -43 -41 -75 -41 -64 0 -86 44
-85 171 l1 89 56 58 c95 98 167 184 176 211 5 16 4 40 -4 66 -7 23 -14 56 -16
75 -9 73 -63 152 -104 152 -11 0 -38 7 -60 16 -55 22 -55 52 1 83 24 14 38 28
35 36 -12 33 -18 88 -12 120 6 32 10 35 37 33 17 -1 42 -12 55 -25z m164 -78
c0 -5 -5 -3 -10 5 -5 8 -10 20 -10 25 0 6 5 3 10 -5 5 -8 10 -19 10 -25z
m-484 -40 c3 -33 8 -63 11 -68 7 -11 -21 -4 -29 8 -15 21 -7 137 8 122 2 -2 6
-30 10 -62z m-1546 -190 c0 -5 -84 -55 -94 -55 -17 0 8 21 47 40 47 22 47 22
47 15z m850 -81 c0 -8 4 -14 8 -14 14 0 33 -51 26 -72 -4 -13 -1 -19 8 -17 24
3 38 -1 38 -10 0 -5 5 -22 12 -38 6 -15 12 -30 13 -33 10 -39 17 -47 39 -43
13 3 27 0 30 -6 4 -6 2 -11 -5 -11 -8 0 -6 -6 4 -18 23 -25 21 -31 -5 -26 -13
2 -7 -2 12 -9 55 -19 63 -26 49 -43 -6 -8 -20 -12 -29 -9 -12 4 -21 -3 -30
-25 -7 -16 -17 -27 -23 -23 -6 3 -7 1 -3 -5 4 -6 14 -8 23 -5 11 4 14 2 11 -8
-3 -8 -13 -13 -23 -11 -11 2 -15 -1 -10 -10 3 -7 -1 -4 -9 6 -15 19 -17 19
-45 -13 -18 -19 -27 -39 -24 -51 3 -12 -2 -20 -15 -24 -22 -7 -38 -36 -20 -36
6 0 9 -3 6 -6 -3 -3 -16 1 -28 8 -18 11 -23 11 -34 -4 -7 -10 -18 -18 -25 -18
-6 0 -11 -5 -11 -11 0 -5 4 -8 9 -5 5 3 11 -1 15 -9 3 -8 1 -17 -4 -20 -6 -4
-10 -1 -10 4 0 6 -4 11 -9 11 -12 0 -9 -33 4 -43 6 -5 1 -6 -10 -2 -11 4 -26
8 -33 9 -7 1 -12 6 -11 12 0 5 5 8 9 7 10 -3 7 23 -3 33 -4 4 -7 0 -7 -9 0
-10 -12 -18 -35 -23 -19 -3 -35 -11 -35 -18 0 -6 -4 -6 -9 3 -7 10 -10 10 -16
1 -4 -7 -1 -16 6 -21 12 -7 11 -9 -1 -9 -9 0 -21 5 -27 11 -7 7 -17 8 -25 3
-12 -8 -17 -10 -36 -13 -5 0 -15 -12 -22 -26 -7 -13 -16 -22 -20 -20 -13 8
-18 -47 -8 -76 5 -16 13 -28 16 -28 19 3 32 -2 32 -12 0 -5 -4 -7 -10 -4 -5 3
-10 -1 -10 -9 0 -19 11 -21 27 -5 9 9 10 6 6 -10 -3 -12 -11 -20 -18 -18 -6 3
-12 0 -12 -7 0 -7 10 -12 21 -13 56 -1 66 -4 66 -18 0 -17 25 -20 35 -5 3 6
15 10 26 10 14 0 19 -7 19 -25 0 -14 4 -25 9 -25 19 0 19 -29 0 -51 -22 -26
-24 -35 -6 -43 6 -3 0 -4 -15 -1 -23 4 -26 2 -21 -12 3 -10 10 -24 16 -30 7
-9 5 -13 -7 -13 -9 0 -16 -7 -16 -15 0 -11 -10 -14 -41 -11 -26 3 -39 0 -36
-7 4 -13 77 -20 77 -8 0 5 8 11 18 15 9 3 22 8 28 11 7 3 16 -8 22 -25 11 -30
-3 -45 -14 -15 -5 12 -8 12 -20 0 -8 -7 -14 -17 -14 -21 0 -4 3 -4 7 -1 10 11
33 -42 26 -60 -5 -12 -2 -15 10 -10 19 7 23 -8 5 -17 -10 -5 -10 -7 0 -12 18
-8 15 -27 -3 -20 -18 7 -38 -35 -29 -59 7 -17 -11 -21 -21 -5 -3 6 -12 10 -20
10 -10 0 -11 -9 -4 -37 12 -52 12 -52 -13 -46 -15 3 -19 2 -11 -4 7 -5 10 -19
6 -32 -5 -20 -8 -21 -17 -10 -6 8 -19 20 -28 28 -16 12 -18 11 -18 -8 0 -12 6
-21 15 -21 17 0 20 -26 4 -36 -8 -4 -7 -9 2 -16 9 -5 4 -6 -13 -2 -35 8 -36
-8 -3 -30 14 -9 25 -24 24 -34 0 -13 -3 -12 -11 6 -6 12 -15 22 -21 22 -5 0
-4 -7 3 -15 7 -8 9 -15 5 -15 -4 0 -2 -7 5 -15 6 -8 8 -20 4 -26 -4 -8 -3 -9
4 -5 7 4 12 2 12 -3 0 -6 -6 -11 -12 -12 -10 0 -10 -2 0 -6 19 -7 14 -30 -8
-36 -24 -6 -38 12 -19 24 11 6 10 9 -4 15 -9 3 -14 11 -10 17 4 6 -2 8 -16 4
-17 -4 -21 -2 -17 9 3 8 -1 14 -9 14 -8 0 -15 -5 -15 -11 0 -6 -7 -9 -15 -5
-8 3 -15 1 -15 -5 0 -6 -9 -8 -22 -3 -31 9 -34 12 -18 27 10 9 11 9 6 0 -5 -8
-1 -13 9 -13 9 0 15 6 13 13 -9 25 -43 13 -50 -18 -5 -22 -6 -18 -3 13 6 46 4
49 -19 27 -24 -25 -46 -9 -35 27 4 17 7 33 7 37 -1 3 11 20 27 37 29 30 31 30
65 16 19 -7 44 -15 57 -16 12 -2 28 -8 36 -14 11 -10 14 -6 13 23 -1 18 -6 38
-10 42 -5 4 -6 2 -2 -4 4 -7 3 -13 -3 -13 -6 0 -13 11 -17 25 -3 13 -12 29
-20 36 -8 6 -11 15 -8 20 3 5 0 9 -5 9 -6 0 -11 7 -11 16 0 18 -45 65 -54 56
-3 -3 -6 0 -6 6 0 7 5 12 11 12 5 0 7 5 4 10 -4 6 -11 8 -16 4 -5 -3 -15 -2
-22 4 -17 13 -49 23 -43 14 3 -4 -4 -13 -14 -19 -15 -10 -19 -9 -24 10 -4 17
-13 22 -40 23 -20 0 -44 8 -54 17 -10 9 -22 14 -25 10 -4 -3 -7 -1 -7 7 0 10
-3 10 -15 0 -13 -11 -14 -10 -9 4 5 12 2 15 -12 10 -14 -4 -16 -3 -5 4 7 5 10
15 7 21 -4 6 -2 11 3 11 6 0 11 -6 11 -13 0 -7 10 -14 22 -14 13 -1 18 1 12 5
-6 4 -16 17 -23 29 -10 20 -8 27 20 55 36 38 59 85 59 123 0 40 -34 105 -78
151 l-40 41 34 26 c34 28 60 34 66 17 2 -6 13 -4 28 3 21 11 25 19 23 52 -4
56 -8 78 -17 93 -4 6 -3 12 3 12 22 0 14 89 -9 110 -9 8 1 100 11 100 5 0 9
-6 9 -13 0 -9 11 -12 35 -9 37 4 78 47 90 93 7 27 59 89 75 89 5 0 10 5 10 10
0 18 49 31 71 20 14 -8 19 -8 17 1 -2 6 3 14 11 17 8 3 11 0 7 -7 -4 -6 -3
-11 3 -11 5 0 13 9 16 20 3 11 12 20 18 20 7 0 6 4 -3 10 -13 8 -13 10 2 10 9
0 20 9 23 20 4 11 11 18 16 15 5 -3 14 -1 21 5 7 6 22 18 33 26 19 15 19 15
-2 4 -16 -7 -23 -7 -23 0 0 9 6 11 43 14 6 1 16 10 21 21 8 17 10 18 13 3 4
-15 6 -16 23 -1 10 9 17 20 14 25 -3 4 2 5 10 2 9 -3 16 -12 16 -20z m793 -31
c4 -2 5 -9 2 -14 -4 -5 -3 -9 2 -9 15 0 2 -392 -14 -412 -6 -7 -13 -22 -16
-33 -4 -19 -5 -18 -6 2 0 12 -6 25 -13 29 -6 4 -8 3 -4 -4 3 -6 1 -14 -6 -18
-7 -4 -10 -3 -5 1 4 5 1 18 -6 29 -7 12 -12 33 -12 49 1 22 -3 26 -20 22 -11
-3 -14 -2 -7 1 17 8 15 33 -3 40 -8 4 -15 14 -15 23 -1 18 -23 51 -35 51 -5 0
0 -10 11 -22 l19 -23 -22 19 c-25 21 -30 46 -10 46 9 0 9 2 0 8 -13 8 -12 14
15 92 8 22 8 21 16 66 9 49 46 77 91 68 17 -4 33 -8 38 -11z m-1788 -153 l16
-30 -66 0 c-61 0 -84 -11 -51 -23 8 -3 38 -36 67 -72 42 -54 54 -63 66 -54 7
7 12 18 9 26 -4 8 -1 11 5 7 8 -4 9 1 4 16 -12 39 18 18 44 -31 13 -24 59
-106 103 -181 83 -144 95 -186 50 -180 -44 6 -89 42 -178 144 -146 167 -224
279 -224 320 0 13 61 67 90 80 31 14 50 7 65 -22z m399 -107 c-17 -41 -56 -82
-62 -64 -4 12 57 101 69 101 4 0 1 -17 -7 -37z m36 -8 c0 -8 -4 -15 -10 -15
-5 0 -10 7 -10 15 0 8 5 15 10 15 6 0 10 -7 10 -15z m3435 -183 c-3 -3 -11 0
-18 7 -9 10 -8 11 6 5 10 -3 15 -9 12 -12z m-35 -12 c0 -15 -31 -40 -41 -34
-6 3 -2 12 8 20 10 7 13 14 7 14 -6 0 -17 -7 -24 -15 -7 -8 -9 -15 -6 -15 4 0
2 -9 -4 -20 -6 -11 -16 -17 -25 -14 -8 4 -12 10 -9 15 3 5 -2 6 -10 3 -20 -8
-20 3 -1 22 8 9 15 12 15 9 0 -4 12 2 27 13 25 18 63 19 63 2z m90 -24 c0 -11
-19 -15 -25 -6 -3 5 1 10 9 10 9 0 16 -2 16 -4z m-30 -24 c0 -5 -7 -9 -15 -9
-8 0 -12 4 -9 9 3 4 9 8 15 8 5 0 9 -4 9 -8z m-17 -52 c3 -11 1 -20 -4 -20 -5
0 -9 9 -9 20 0 11 2 20 4 20 2 0 6 -9 9 -20z m127 -4 c0 -2 -7 -7 -16 -10 -8
-3 -12 -2 -9 4 6 10 25 14 25 6z m10 -66 c0 -5 -8 -10 -17 -10 -15 0 -16 2 -3
10 19 12 20 12 20 0z m-3230 -16 c0 -2 -7 -4 -15 -4 -8 0 -15 4 -15 10 0 5 7
7 15 4 8 -4 15 -8 15 -10z m3280 -9 c0 -18 -36 -20 -46 -3 -4 6 -3 8 2 5 6 -3
16 -2 24 4 20 12 20 11 20 -6z m57 -100 c0 -8 -4 -15 -9 -15 -4 0 -8 7 -8 15
0 8 4 15 8 15 5 0 9 -7 9 -15z m-17 -55 c0 -5 -5 -10 -11 -10 -5 0 -7 5 -4 10
3 6 8 10 11 10 2 0 4 -4 4 -10z m-3157 -17 c-4 -11 -3 -14 5 -9 7 4 12 2 12
-3 0 -6 -4 -11 -9 -11 -14 0 -23 18 -16 30 10 16 15 12 8 -7z m-53 -13 c-24
-24 -26 -24 -34 -4 -4 12 -2 15 9 11 8 -4 17 -2 20 3 4 6 10 10 16 10 5 0 0
-9 -11 -20z m70 -28 c0 -5 -11 -15 -25 -22 -13 -7 -22 -16 -20 -20 3 -4 -3
-14 -12 -21 -15 -12 -16 -12 -10 4 4 10 3 16 -1 13 -4 -2 -14 -1 -22 5 -12 7
-10 9 8 9 13 0 22 6 22 16 0 11 6 15 20 11 11 -3 23 -1 26 4 7 11 14 12 14 1z
m1327 -84 c-3 -8 -6 -5 -6 6 -1 11 2 17 5 13 3 -3 4 -12 1 -19z m-1370 -28
c-1 -42 -10 -52 -22 -23 -3 10 -1 19 4 21 6 2 11 12 11 23 0 10 2 19 4 19 3 0
4 -18 3 -40z m1398 20 c3 -5 1 -10 -4 -10 -6 0 -11 5 -11 10 0 6 2 10 4 10 3
0 8 -4 11 -10z m-1372 -45 c-3 -9 -8 -14 -10 -11 -3 3 -2 9 2 15 9 16 15 13 8
-4z m-48 -73 c1 -1 14 2 29 7 28 11 35 0 16 -29 -8 -13 -10 -12 -10 3 0 14 -4
16 -19 8 -15 -8 -20 -6 -30 15 -14 32 -14 45 1 19 6 -11 12 -21 13 -23z m1479
-17 c3 -8 1 -15 -4 -15 -6 0 -10 7 -10 15 0 8 2 15 4 15 2 0 6 -7 10 -15z
m-80 -3 c3 -5 -1 -9 -9 -9 -8 0 -12 4 -9 9 3 4 7 8 9 8 2 0 6 -4 9 -8z m53
-24 c-3 -8 -6 -5 -6 6 -1 11 2 17 5 13 3 -3 4 -12 1 -19z m-1378 -9 c-16 -10
-23 -4 -14 10 3 6 11 8 17 5 6 -4 5 -9 -3 -15z m1411 -51 c0 -18 -1 -18 -16
-4 -19 19 -26 20 -42 4 -7 -7 -12 -8 -12 -2 0 5 -4 3 -9 -5 -6 -9 -11 -10 -15
-2 -4 6 -1 11 6 11 9 0 9 3 -2 10 -13 8 -12 10 3 10 9 0 17 -5 17 -12 0 -8 6
-7 16 4 20 20 54 12 54 -14z m-1400 10 c0 -4 -4 -8 -9 -8 -6 0 -12 4 -15 8 -3
5 1 9 9 9 8 0 15 -4 15 -9z m-35 -38 c3 -5 -1 -10 -9 -10 -9 0 -16 5 -16 10 0
6 4 10 9 10 6 0 13 -4 16 -10z m1427 0 c6 0 8 -3 4 -7 -7 -8 -12 -9 -38 -12
-7 -1 -5 -8 6 -20 12 -13 14 -21 6 -26 -8 -5 -6 -13 6 -26 9 -10 14 -19 10
-19 -4 0 -4 -5 -1 -10 5 -8 11 -7 21 1 11 9 14 8 14 -5 0 -9 7 -16 15 -16 12
0 11 -4 -5 -20 -16 -16 -19 -30 -16 -65 3 -27 1 -43 -5 -40 -5 4 -9 12 -9 19
0 18 -37 49 -49 42 -5 -4 -13 -1 -17 5 -4 8 -3 9 4 5 7 -4 13 -1 13 6 1 7 2
20 3 28 0 8 9 14 19 14 14 -2 15 1 6 12 -7 8 -20 12 -30 9 -11 -4 -21 1 -28
14 -16 29 -13 35 5 16 13 -13 19 -14 25 -4 10 16 2 29 -17 29 -8 0 -14 5 -14
11 0 5 5 7 10 4 6 -3 10 5 10 19 0 13 -3 26 -7 29 -5 2 -2 2 5 1 6 -2 12 1 12
7 0 6 7 8 16 5 9 -3 21 -6 26 -6z m-2009 -27 c-9 -3 -10 -10 -3 -22 5 -10 6
-22 2 -27 -4 -5 1 -2 11 5 15 12 20 9 19 -9 0 -3 11 -6 24 -6 14 -1 21 2 17 9
-3 6 -1 7 5 3 7 -4 12 -16 12 -27 0 -18 -5 -20 -37 -15 -21 3 -46 5 -56 6 -10
0 -15 4 -12 10 3 5 0 7 -8 4 -8 -3 -18 0 -22 5 -3 6 -11 9 -16 6 -5 -4 -9 -1
-9 4 0 6 -5 11 -11 11 -5 0 -7 -5 -3 -12 4 -7 3 -8 -4 -4 -17 10 -3 36 15 29
12 -5 14 -3 8 6 -5 10 -2 11 12 7 12 -4 25 -1 33 9 7 8 18 15 24 14 7 0 6 -2
-1 -6z m2067 -43 c0 -5 -5 -10 -11 -10 -5 0 -7 5 -4 10 3 6 8 10 11 10 2 0 4
-4 4 -10z m-1460 -20 c0 -5 -2 -10 -4 -10 -3 0 -8 5 -11 10 -3 6 -1 10 4 10 6
0 11 -4 11 -10z m-490 -24 c0 -3 -4 -8 -10 -11 -5 -3 -10 -1 -10 4 0 6 5 11
10 11 6 0 10 -2 10 -4z m430 -11 c7 -9 8 -15 2 -15 -5 0 -12 7 -16 15 -3 8 -4
15 -2 15 2 0 9 -7 16 -15z m1508 -96 c-3 -8 -7 -3 -11 10 -4 17 -3 21 5 13 5
-5 8 -16 6 -23z m-72 -26 c-7 -7 -26 7 -26 19 0 6 6 6 15 -2 9 -7 13 -15 11
-17z m-58 -125 c-2 -7 3 -12 10 -10 8 1 11 -2 8 -7 -4 -5 -15 -9 -25 -8 -16 1
-19 11 -12 35 3 9 20 -1 19 -10z m-1539 -131 c0 -21 -1 -21 -9 -2 -12 28 -12
37 0 30 6 -3 10 -16 9 -28z m10 -27 c12 0 21 -4 21 -10 0 -5 -8 -10 -18 -10
-19 0 -42 21 -56 50 -4 8 1 5 12 -7 11 -13 30 -23 41 -23z m61 -100 c0 -5 -2
-10 -4 -10 -3 0 -8 5 -11 10 -3 6 -1 10 4 10 6 0 11 -4 11 -10z m20 -94 c0 -2
-7 -7 -16 -10 -8 -3 -12 -2 -9 4 6 10 25 14 25 6z"/>
<path d="M10821 8174 c0 -11 3 -14 6 -6 3 7 2 16 -1 19 -3 4 -6 -2 -5 -13z"/>
<path d="M10180 7780 c0 -22 1 -23 24 -14 18 7 10 34 -10 34 -8 0 -14 -9 -14
-20z"/>
<path d="M10231 7614 c0 -11 3 -14 6 -6 3 7 2 16 -1 19 -3 4 -6 -2 -5 -13z"/>
<path d="M9886 7001 c-17 -6 -17 -8 -4 -14 10 -3 19 0 22 9 3 8 4 14 3 13 -1
0 -11 -4 -21 -8z"/>
<path d="M9940 6989 c0 -5 5 -7 10 -4 6 3 10 8 10 11 0 2 -4 4 -10 4 -5 0 -10
-5 -10 -11z"/>
<path d="M9935 6760 c3 -5 8 -10 11 -10 2 0 4 5 4 10 0 6 -5 10 -11 10 -5 0
-7 -4 -4 -10z"/>
<path d="M9912 6738 c-13 -13 -4 -38 14 -38 15 0 19 35 6 44 -5 3 -14 0 -20
-6z"/>
<path d="M9940 6620 c0 -5 5 -10 10 -10 6 0 10 5 10 10 0 6 -4 10 -10 10 -5 0
-10 -4 -10 -10z"/>
<path d="M9805 6340 c-3 -5 1 -10 9 -10 9 0 16 5 16 10 0 6 -4 10 -9 10 -6 0
-13 -4 -16 -10z"/>
<path d="M11503 6524 c-3 -8 -1 -20 6 -27 8 -8 11 -4 9 16 -3 31 -6 34 -15 11z"/>
<path d="M4640 8774 c0 -8 5 -12 10 -9 6 4 8 11 5 16 -9 14 -15 11 -15 -7z"/>
<path d="M9200 8770 c8 -5 20 -10 25 -10 6 0 3 5 -5 10 -8 5 -19 10 -25 10 -5
0 -3 -5 5 -10z"/>
<path d="M9750 8776 c0 -2 7 -9 15 -16 9 -7 15 -8 15 -2 0 5 -7 12 -15 16 -8
3 -15 4 -15 2z"/>
<path d="M5557 8663 c-10 -9 -9 -23 1 -23 5 0 9 7 9 15 0 17 -1 18 -10 8z"/>
<path d="M9170 8631 c0 -5 9 -7 20 -4 11 3 20 7 20 9 0 2 -9 4 -20 4 -11 0
-20 -4 -20 -9z"/>
<path d="M5570 8573 c0 -5 5 -15 10 -23 7 -12 9 -10 7 8 -1 19 -17 33 -17 15z"/>
<path d="M5575 8500 c3 -5 8 -10 11 -10 2 0 4 5 4 10 0 6 -5 10 -11 10 -5 0
-7 -4 -4 -10z"/>
<path d="M5575 8430 c3 -5 8 -10 11 -10 2 0 4 5 4 10 0 6 -5 10 -11 10 -5 0
-7 -4 -4 -10z"/>
<path d="M5425 8420 c3 -5 8 -10 11 -10 2 0 4 5 4 10 0 6 -5 10 -11 10 -5 0
-7 -4 -4 -10z"/>
<path d="M9975 8350 c-3 -5 -1 -10 4 -10 6 0 11 5 11 10 0 6 -2 10 -4 10 -3 0
-8 -4 -11 -10z"/>
<path d="M9945 8340 c-7 -11 22 -26 32 -16 4 3 -1 6 -11 6 -9 0 -14 5 -11 10
3 6 4 10 1 10 -3 0 -8 -5 -11 -10z"/>
<path d="M5320 8326 c0 -2 7 -9 15 -16 9 -7 15 -8 15 -2 0 5 -7 12 -15 16 -8
3 -15 4 -15 2z"/>
<path d="M5287 8304 c5 -13 2 -15 -16 -9 -20 6 -21 4 -14 -12 5 -10 9 -30 8
-45 0 -16 3 -28 8 -28 4 0 5 -6 1 -12 -4 -7 -4 -10 1 -6 4 4 14 3 21 -3 9 -7
14 -5 19 10 3 12 13 21 20 21 8 0 17 4 20 10 3 5 0 7 -9 4 -10 -4 -14 0 -13
14 0 12 5 18 9 16 16 -10 7 17 -12 36 -24 24 -52 27 -43 4z m33 -75 c0 -4 -9
-9 -20 -12 -12 -3 -20 0 -20 7 0 6 9 12 20 12 11 0 20 -3 20 -7z"/>
<path d="M9450 8310 l-25 -8 28 -1 c15 -1 27 4 27 9 0 6 -1 10 -2 9 -2 -1 -14
-5 -28 -9z"/>
<path d="M9925 8310 c3 -5 8 -10 11 -10 2 0 4 5 4 10 0 6 -5 10 -11 10 -5 0
-7 -4 -4 -10z"/>
<path d="M5360 8271 c0 -25 6 -27 13 -6 4 8 2 17 -3 20 -6 4 -10 -3 -10 -14z"/>
<path d="M5218 8273 c6 -2 18 -2 25 0 6 3 1 5 -13 5 -14 0 -19 -2 -12 -5z"/>
<path d="M5281 8173 c-1 -17 16 -25 25 -12 4 7 3 9 -4 5 -5 -3 -13 0 -15 6 -4
9 -6 10 -6 1z"/>
<path d="M4810 8111 c0 -6 4 -12 8 -15 5 -3 9 1 9 9 0 8 -4 15 -9 15 -4 0 -8
-4 -8 -9z"/>
<path d="M5274 8088 c-4 -6 -3 -8 4 -4 5 3 12 1 14 -6 3 -8 6 -9 11 -1 4 6 0
13 -8 17 -8 3 -17 0 -21 -6z"/>
<path d="M4741 8074 c0 -11 3 -14 6 -6 3 7 2 16 -1 19 -3 4 -6 -2 -5 -13z"/>
<path d="M4760 8080 c0 -5 5 -10 11 -10 5 0 7 5 4 10 -3 6 -8 10 -11 10 -2 0
-4 -4 -4 -10z"/>
<path d="M8894 7899 c-12 -20 11 -30 45 -18 24 9 29 14 19 20 -19 12 -56 11
-64 -2z"/>
<path d="M12787 7393 c-12 -12 -7 -22 8 -17 8 4 15 10 15 15 0 11 -14 12 -23
2z"/>
<path d="M12747 7363 c-4 -3 -7 -13 -7 -21 0 -12 3 -12 15 -2 8 7 15 16 15 21
0 11 -14 12 -23 2z"/>
<path d="M12535 7300 c-3 -5 -1 -10 4 -10 6 0 11 5 11 10 0 6 -2 10 -4 10 -3
0 -8 -4 -11 -10z"/>
<path d="M13150 7035 c-8 -9 -8 -15 -2 -15 12 0 26 19 19 26 -2 2 -10 -2 -17
-11z"/>
<path d="M13379 6451 c-1 -3 -1 -9 0 -13 0 -4 -9 -5 -20 -3 -21 4 -61 -23 -53
-36 3 -5 17 -6 32 -3 45 8 76 12 90 13 6 1 12 11 12 24 0 18 -6 22 -30 23 -17
1 -31 -2 -31 -5z"/>
<path d="M9808 5963 c7 -3 16 -2 19 1 4 3 -2 6 -13 5 -11 0 -14 -3 -6 -6z"/>
<path d="M9780 5943 c15 -7 12 -23 -6 -23 -8 0 -13 -4 -9 -10 3 -5 12 -7 21
-3 18 6 15 35 -4 39 -7 1 -8 0 -2 -3z"/>
<path d="M11550 5636 c0 -8 4 -17 9 -20 5 -4 7 3 4 14 -6 23 -13 26 -13 6z"/>
<path d="M11512 5570 c-24 -20 -20 -53 6 -48 9 2 14 8 11 13 -2 6 -7 9 -11 8
-15 -5 -8 10 9 23 10 7 16 15 13 17 -3 3 -15 -3 -28 -13z"/>
<path d="M11455 5460 c-3 -5 -2 -10 4 -10 5 0 13 5 16 10 3 6 2 10 -4 10 -5 0
-13 -4 -16 -10z"/>
<path d="M11467 5413 c-4 -3 -7 -11 -7 -17 0 -6 5 -5 12 2 6 6 9 14 7 17 -3 3
-9 2 -12 -2z"/>
<path d="M11400 5400 c0 -5 5 -10 11 -10 5 0 7 5 4 10 -3 6 -8 10 -11 10 -2 0
-4 -4 -4 -10z"/>
<path d="M13068 5328 c-42 -49 -90 -118 -82 -118 2 0 -1 -6 -8 -14 -7 -8 -15
-10 -18 -6 -3 4 -14 10 -25 12 -11 1 -23 7 -27 12 -4 6 -13 4 -22 -3 -9 -8
-16 -10 -16 -5 -1 5 -8 0 -18 -11 -31 -37 -76 -61 -117 -64 -63 -5 -69 -6 -90
-18 -11 -6 -31 -10 -45 -9 -14 1 -40 -6 -57 -16 -18 -10 -33 -16 -33 -13 0 8
-247 -121 -264 -138 -9 -8 -16 -17 -16 -19 0 -11 76 -13 163 -5 31 2 57 1 57
-3 0 -17 58 -17 108 -1 29 10 55 14 58 9 3 -5 12 -4 20 3 11 9 14 8 14 -5 0
-24 1 -30 11 -48 6 -12 6 -18 0 -18 -6 0 -8 -7 -5 -15 4 -11 11 -12 24 -5 9 5
21 6 26 2 5 -4 2 1 -5 11 -12 15 -12 17 3 11 9 -3 16 -12 16 -20 0 -8 7 -14
15 -14 8 0 15 -5 15 -12 0 -9 3 -9 12 0 17 17 32 15 58 -8 26 -22 46 -25 86
-10 17 7 31 7 37 1 5 -5 16 -7 23 -4 16 6 67 -44 59 -57 -3 -5 -1 -11 5 -15 5
-3 10 -11 10 -16 0 -6 -4 -8 -9 -4 -5 3 -22 -6 -37 -20 -26 -24 -61 -35 -49
-15 4 6 10 8 15 5 5 -3 12 0 16 6 5 9 -1 10 -21 5 -20 -5 -26 -4 -23 6 3 7 2
22 -3 33 -7 19 -8 19 -8 -3 -1 -15 -5 -21 -13 -16 -7 4 -22 8 -33 9 -17 0 -21
-4 -18 -20 2 -11 1 -14 -3 -7 -7 15 -34 16 -34 1 0 -5 4 -8 9 -5 5 4 12 0 15
-6 3 -9 9 -7 20 6 9 11 19 17 22 13 4 -4 1 -13 -6 -22 -10 -12 -10 -15 0 -15
7 0 10 -6 7 -14 -5 -12 -1 -13 23 -5 33 12 84 -6 59 -21 -7 -5 -17 -6 -23 -3
-5 3 -6 1 -2 -5 3 -6 -3 -16 -15 -23 -20 -10 -21 -9 -16 17 5 27 4 28 -10 9
-8 -11 -19 -19 -24 -17 -5 1 -9 -2 -9 -6 0 -4 -16 -7 -35 -7 -19 1 -35 -2 -35
-7 0 -5 -4 -6 -10 -3 -5 3 -10 -1 -10 -9 0 -8 6 -18 13 -22 6 -4 9 -4 5 1 -9
10 40 37 53 29 14 -8 0 -24 -15 -18 -8 3 -17 1 -21 -5 -3 -6 1 -11 11 -11 11
0 15 -6 11 -20 -3 -11 -1 -18 4 -14 5 3 9 -2 9 -10 0 -8 -10 -18 -22 -22 -13
-4 -28 -14 -34 -22 -10 -13 -11 -13 -17 1 -4 10 1 17 15 20 11 3 17 10 13 17
-4 6 -16 8 -27 4 -11 -3 -27 -7 -34 -8 -21 -3 -29 -16 -10 -16 10 0 14 -5 11
-11 -4 -6 -13 -8 -21 -5 -13 5 -18 -6 -15 -26 0 -5 -4 -8 -10 -8 -8 0 -8 -4 1
-15 10 -11 9 -18 -4 -31 -9 -8 -13 -20 -10 -26 4 -6 2 -8 -4 -4 -5 3 -13 0
-15 -6 -4 -10 -6 -10 -6 0 -1 6 -5 12 -11 12 -5 0 -9 -5 -7 -11 1 -6 -6 -13
-15 -14 -10 -2 -18 1 -18 6 0 5 5 9 12 9 6 0 9 2 7 5 -3 2 -18 0 -35 -4 -16
-5 -22 -10 -14 -10 13 -1 13 -3 1 -10 -12 -8 -12 -12 -2 -25 11 -13 11 -17 -3
-22 -9 -3 -15 -16 -15 -28 1 -19 2 -19 6 -2 4 15 7 16 14 5 7 -12 10 -12 21 0
11 12 10 13 -2 6 -8 -5 -1 5 15 21 17 16 36 28 43 26 9 -3 8 -8 -4 -17 -12 -8
-14 -14 -6 -19 7 -4 12 -12 12 -17 0 -6 -6 -7 -12 -3 -10 6 -10 5 -1 -7 9 -11
8 -18 -1 -31 -7 -10 -16 -15 -19 -12 -3 3 -3 -9 -1 -26 4 -20 2 -30 -5 -26 -5
4 -16 -3 -24 -15 -8 -11 -18 -16 -21 -11 -3 6 0 12 6 15 10 3 10 9 1 25 -8 13
-9 23 -3 27 13 8 13 35 1 35 -5 0 -27 -16 -49 -35 -28 -26 -38 -42 -36 -60 1
-15 -3 -25 -11 -25 -10 0 -10 -7 0 -36 11 -33 10 -38 -9 -58 -13 -14 -25 -19
-33 -14 -7 6 -14 4 -19 -3 -4 -8 -3 -9 4 -5 7 4 12 3 12 -3 0 -5 -6 -12 -12
-15 -7 -4 -3 -4 8 -2 17 3 20 0 16 -17 -3 -12 -1 -18 5 -14 5 3 9 -7 9 -24 0
-30 -10 -39 -20 -16 -3 6 -3 0 0 -15 4 -18 2 -28 -6 -28 -6 0 -9 4 -5 9 3 6
-16 3 -42 -7 -30 -10 -41 -18 -30 -20 10 -2 24 2 32 8 18 15 40 3 26 -14 -6
-7 -8 -16 -4 -19 3 -4 -1 -7 -11 -7 -9 0 -14 5 -11 10 10 16 -57 9 -77 -8 -10
-8 -18 -22 -19 -31 0 -9 -7 -2 -14 14 -7 17 -11 34 -8 38 3 5 -4 4 -16 -2 -14
-8 -21 -8 -21 -1 0 5 -5 10 -11 10 -5 0 -7 -4 -4 -10 3 -5 1 -10 -5 -10 -6 0
-8 -4 -5 -10 3 -5 1 -10 -4 -10 -6 0 -11 -7 -11 -15 0 -8 -4 -15 -8 -15 -4 0
-9 -16 -10 -35 -2 -28 1 -35 16 -35 10 0 19 -7 19 -14 0 -11 -5 -12 -17 -6
-13 7 -20 3 -29 -16 -15 -33 -14 -37 5 -30 8 3 12 2 9 -4 -3 -6 -14 -10 -24
-10 -14 0 -17 -6 -14 -24 4 -17 -2 -29 -19 -40 -21 -16 -21 -17 -3 -14 14 2
19 -2 17 -14 -2 -11 3 -18 13 -18 8 0 15 -5 15 -11 0 -6 12 -2 28 9 28 21 32
22 58 22 9 0 12 5 8 12 -5 8 -2 9 9 5 9 -3 19 -1 23 5 4 7 3 8 -4 4 -7 -4 -12
-2 -12 3 0 6 7 11 15 11 8 0 15 3 15 8 0 4 14 13 30 20 17 8 27 18 24 24 -5 7
2 9 20 4 15 -4 25 -3 23 1 -3 4 8 9 24 10 15 1 41 10 55 20 16 10 41 16 58 14
17 -1 28 0 24 5 -4 4 2 15 13 25 16 14 20 26 16 46 -4 15 -4 22 -1 16 3 -7 10
-13 15 -13 6 0 7 5 4 10 -4 7 6 9 29 7 20 -3 39 -1 42 4 2 4 11 6 19 2 9 -3
21 0 29 6 7 6 16 8 20 4 4 -4 4 1 0 12 -7 19 -6 19 12 3 18 -16 20 -16 40 5
11 12 24 30 27 41 4 10 13 16 21 13 8 -3 17 -1 19 6 3 9 8 9 18 0 10 -10 10
-13 0 -13 -7 0 -10 -4 -7 -9 7 -11 46 -2 46 10 0 5 5 9 11 9 5 0 7 -5 3 -12
-4 -7 -3 -8 4 -4 7 4 12 14 12 22 0 19 56 19 64 -1 7 -19 42 -20 49 -1 7 18
77 17 77 -1 0 -6 5 -15 11 -18 6 -4 9 0 7 11 -2 14 3 19 20 18 12 -1 22 3 22
7 0 5 7 9 15 9 8 0 15 -4 15 -10 0 -5 5 -10 10 -10 6 0 10 7 10 15 0 26 37 18
42 -9 6 -29 -6 -56 -15 -35 -4 10 -8 7 -12 -8 -4 -12 -13 -19 -20 -17 -7 3
-16 1 -19 -5 -4 -6 -13 -8 -20 -5 -17 7 -48 -24 -40 -38 5 -7 2 -8 -5 -4 -7 5
-16 18 -21 30 -7 16 -9 17 -9 4 -1 -9 -10 -20 -21 -23 -11 -3 -20 -13 -20 -21
0 -18 -31 -54 -46 -54 -7 0 -15 6 -17 13 -4 10 -6 10 -6 0 -1 -7 -8 -13 -16
-13 -8 0 -15 -4 -15 -8 0 -5 -13 -8 -30 -7 -26 2 -33 -4 -32 -25 0 -3 -16 -6
-36 -8 -22 -1 -46 -12 -62 -27 -15 -14 -30 -22 -35 -18 -4 5 -5 2 -1 -4 5 -9
-12 -21 -51 -38 -31 -14 -64 -31 -73 -38 -8 -7 -42 -24 -75 -37 -71 -28 -139
-56 -180 -76 -39 -18 -174 -58 -250 -74 -190 -40 -345 -86 -345 -102 0 -5 -8
-8 -18 -8 -10 0 -28 -7 -40 -16 -12 -8 -22 -13 -22 -10 0 2 -28 -2 -62 -10
-66 -16 -122 -23 -223 -28 -83 -5 -81 -4 -60 -20 11 -8 23 -12 27 -10 4 2 13
-4 20 -13 14 -20 29 -26 71 -27 15 -1 27 -4 27 -7 0 -7 59 -23 73 -20 4 0 7
-4 7 -10 0 -5 4 -8 9 -4 5 3 12 1 16 -5 4 -6 11 -8 16 -5 13 9 50 -5 44 -16
-4 -5 1 -9 9 -9 9 0 16 -4 16 -8 0 -4 14 -9 32 -10 18 -2 35 -6 38 -11 3 -4
14 -7 24 -5 11 1 25 0 30 -4 30 -18 246 8 246 30 0 6 12 8 27 5 27 -5 103 21
103 35 0 5 6 8 13 8 13 0 94 70 96 83 1 4 1 12 1 18 0 5 8 9 18 8 32 -3 42 1
42 18 0 9 3 13 7 10 3 -4 12 -2 19 4 7 6 25 12 40 14 14 1 29 6 33 11 3 5 17
10 31 12 57 7 67 9 105 21 22 7 50 17 62 23 13 6 44 12 70 12 27 1 54 7 61 14
9 8 19 9 29 3 9 -5 30 -5 47 0 71 19 85 18 101 -4 8 -12 15 -16 15 -9 0 6 5
12 11 12 5 0 8 -4 5 -8 -3 -5 1 -9 9 -9 8 0 13 5 12 11 -1 6 8 10 21 8 12 -2
22 1 22 7 0 6 7 8 15 5 8 -4 23 0 32 7 13 11 17 11 20 1 3 -6 9 -10 14 -7 5 4
6 -1 3 -9 -3 -9 -10 -16 -15 -16 -5 0 -9 -8 -9 -17 -1 -15 -3 -13 -13 5 -7 12
-16 19 -20 16 -11 -11 -8 -26 3 -19 19 12 10 -6 -16 -32 -25 -24 -28 -25 -66
-12 -41 13 -76 4 -71 -20 2 -6 -4 -8 -12 -5 -8 4 -17 -1 -21 -10 -4 -10 -18
-15 -42 -15 -55 1 -72 -3 -72 -15 0 -6 -5 -4 -10 4 -6 10 -10 11 -10 3 0 -7
-6 -13 -14 -13 -7 0 -46 -18 -86 -40 -40 -22 -77 -40 -82 -40 -4 0 -16 -4 -26
-9 -71 -37 -235 -105 -327 -135 -150 -50 -155 -51 -285 -84 -224 -57 -339 -81
-555 -116 -242 -39 -284 -51 -302 -86 -6 -13 -11 -26 -9 -27 4 -4 96 -13 166
-17 31 -2 70 -11 87 -20 20 -10 34 -12 38 -6 3 5 16 10 28 10 12 0 52 2 89 3
40 1 68 -2 68 -8 0 -6 3 -5 8 1 4 6 26 11 50 11 23 0 44 2 46 4 5 4 95 2 154
-4 17 -2 32 1 32 6 0 4 4 6 8 3 5 -3 21 2 36 9 16 8 33 12 38 9 6 -4 14 -1 18
6 4 7 20 13 36 15 16 1 48 8 72 15 37 12 45 12 53 -1 8 -12 10 -12 19 1 9 13
11 13 20 0 8 -13 10 -13 10 2 0 10 7 15 18 14 9 -2 31 1 47 6 54 16 93 19 99
9 5 -7 15 -7 32 -1 14 6 29 8 34 5 5 -3 11 1 13 7 4 10 8 9 16 -2 9 -12 13
-12 19 -2 5 7 24 16 43 18 19 3 44 12 55 19 13 8 25 10 30 5 6 -6 21 0 38 15
16 14 33 22 37 19 5 -3 9 -1 9 3 0 5 9 9 20 10 11 1 18 -2 15 -8 -4 -5 -1 -9
4 -9 6 0 11 -7 11 -15 0 -21 18 -19 23 3 3 12 5 11 6 -6 0 -13 5 -21 11 -17 5
3 6 13 3 22 -4 11 -3 14 5 9 7 -4 12 -13 12 -20 0 -17 -45 -40 -62 -31 -10 6
-10 5 -1 -5 14 -16 -6 -36 -71 -70 -26 -14 -57 -31 -69 -37 -12 -7 -34 -13
-49 -13 -16 0 -28 -4 -28 -10 0 -5 -9 -10 -20 -10 -11 0 -20 -5 -20 -11 0 -5
-4 -8 -9 -5 -5 3 -14 -1 -21 -9 -7 -8 -19 -15 -26 -15 -8 0 -14 -4 -14 -8 0
-14 -57 -30 -74 -20 -12 7 -29 0 -63 -24 -27 -18 -50 -31 -53 -30 -3 1 -49
-12 -103 -29 -54 -17 -109 -32 -121 -33 -12 -1 -26 -5 -31 -8 -11 -6 -90 -21
-90 -17 0 1 -10 -3 -22 -9 -12 -7 -38 -15 -58 -18 -78 -12 -185 -45 -218 -66
-14 -10 -33 -18 -42 -18 -9 0 -18 -7 -21 -15 -4 -8 -10 -15 -16 -15 -17 0 -33
-24 -34 -52 -1 -15 3 -25 7 -22 5 3 9 -2 9 -10 0 -10 6 -13 15 -10 9 4 26 -5
42 -20 14 -14 23 -26 19 -26 -4 0 -1 -6 6 -14 13 -14 33 -11 24 3 -3 4 5 7 17
6 17 -1 23 -10 28 -38 4 -25 1 -41 -7 -48 -10 -8 -11 -14 -1 -24 7 -7 16 -11
21 -8 4 3 2 9 -5 14 -11 7 -10 9 3 9 9 0 20 10 24 22 3 12 13 28 20 36 8 7 12
17 9 22 -3 4 2 10 10 14 8 3 15 0 15 -7 0 -9 2 -9 8 0 4 6 19 14 34 17 21 3
26 1 21 -11 -5 -13 -1 -15 20 -11 23 4 25 3 17 -13 -6 -10 -10 -28 -9 -41 0
-22 1 -22 8 -3 5 11 6 24 3 29 -3 5 2 7 11 3 12 -4 14 0 11 19 -3 19 0 24 16
24 12 0 18 5 15 10 -4 6 10 9 37 9 24 -1 33 -4 21 -6 -21 -4 -21 -5 -5 -22 9
-10 20 -16 25 -14 4 2 7 -6 7 -19 0 -18 -2 -20 -10 -8 -8 12 -10 13 -10 1 0
-8 7 -23 17 -33 18 -20 4 -25 -15 -6 -9 9 -15 9 -24 -1 -11 -11 -10 -13 3 -8
25 8 40 -12 27 -36 -7 -14 -7 -22 2 -27 6 -4 12 -11 12 -15 0 -12 -31 -27 -42
-20 -14 9 -12 -9 2 -23 9 -9 7 -12 -11 -12 -18 0 -22 4 -16 18 20 50 11 64
-37 55 -20 -4 -24 -9 -20 -29 2 -14 0 -24 -7 -24 -7 0 -9 5 -5 12 5 7 3 8 -5
3 -7 -4 -11 -16 -8 -26 3 -10 0 -17 -5 -16 -5 1 -14 -8 -19 -20 -5 -14 -5 -23
1 -23 6 0 10 -5 10 -11 0 -5 -4 -7 -10 -4 -5 3 -10 -3 -10 -15 0 -16 -5 -19
-24 -16 -19 3 -23 1 -19 -10 3 -9 0 -12 -9 -9 -9 4 -15 0 -15 -9 0 -8 6 -12
14 -9 9 3 13 -3 13 -21 0 -20 4 -24 18 -20 10 4 13 3 6 -3 -6 -4 -14 -18 -18
-31 -10 -30 -27 -17 -22 16 4 23 3 25 -7 11 -7 -9 -18 -14 -24 -12 -7 3 -16
-2 -19 -11 -3 -9 -12 -16 -20 -16 -14 0 -40 -39 -36 -53 1 -4 -6 -10 -15 -14
-26 -9 -32 -22 -24 -52 7 -25 -1 -65 -21 -105 -6 -11 -6 -16 0 -12 5 3 7 -5 4
-19 -8 -42 24 -43 65 -1 19 20 39 33 44 30 5 -3 16 2 25 11 9 9 23 14 31 11 8
-3 21 1 30 10 9 8 21 13 28 10 8 -3 16 2 19 9 3 9 16 13 35 10 17 -2 33 1 37
6 3 5 10 7 15 4 5 -4 9 -2 9 3 0 6 23 16 50 23 28 7 50 17 50 21 0 5 5 6 10 3
6 -3 13 1 16 10 4 9 17 21 30 26 13 4 24 15 24 23 0 8 8 17 18 20 11 4 25 17
32 31 7 13 17 22 22 19 5 -3 8 -2 7 3 -4 23 3 33 24 33 16 0 18 3 8 9 -19 12
-5 30 18 24 13 -3 21 2 26 16 3 11 9 20 13 19 16 -3 42 15 42 31 0 14 2 14 10
1 8 -13 10 -12 10 3 0 9 6 17 13 17 7 0 24 11 39 25 18 16 28 20 31 12 3 -7 6
-2 6 10 1 13 4 22 9 21 16 -5 114 90 107 103 -4 5 1 6 9 3 9 -3 16 -1 16 6 0
6 5 8 10 5 6 -3 10 1 10 9 0 9 3 16 8 16 4 0 15 14 24 30 9 17 24 30 33 30 8
0 15 7 15 15 0 9 12 27 26 40 16 15 23 29 18 37 -4 7 -3 10 1 5 5 -4 16 -1 24
7 9 8 29 17 44 20 28 5 83 43 80 54 -1 4 7 15 18 25 10 10 19 15 19 12 0 -7
47 23 78 50 14 12 34 19 49 17 16 -3 23 0 18 7 -3 6 -11 8 -17 5 -7 -4 -8 -2
-4 5 4 6 13 11 19 10 24 -3 38 1 33 10 -4 5 2 8 11 7 10 -2 25 4 33 14 8 9 23
19 33 23 11 4 15 12 11 19 -4 7 -4 10 1 6 4 -4 24 4 44 17 19 14 42 25 49 25
7 0 10 5 6 11 -4 8 0 9 15 4 12 -4 32 0 50 11 34 20 64 13 54 -13 -4 -10 -10
-21 -15 -24 -5 -3 -10 -15 -11 -27 0 -11 -5 -18 -9 -16 -4 3 -8 -2 -8 -10 0
-8 -4 -18 -10 -21 -6 -4 -7 1 -4 12 6 15 4 15 -9 -2 -8 -11 -13 -23 -11 -27 3
-5 -2 -8 -10 -8 -9 0 -16 -5 -16 -10 0 -6 -12 -22 -26 -35 -15 -14 -23 -25
-19 -25 5 0 -1 -9 -13 -20 -12 -12 -22 -25 -22 -31 0 -6 -4 -7 -10 -4 -5 3
-10 1 -10 -6 0 -7 -17 -28 -37 -48 -21 -20 -59 -59 -85 -86 -26 -28 -53 -55
-60 -61 -7 -6 -32 -32 -55 -58 -23 -25 -45 -46 -48 -46 -10 0 -35 -28 -35 -38
0 -14 -73 -67 -87 -64 -6 1 -14 -7 -18 -18 -3 -11 -10 -20 -15 -20 -12 0 -61
-47 -99 -98 -25 -32 -38 -41 -52 -37 -14 5 -17 2 -13 -9 5 -12 2 -15 -10 -10
-10 4 -18 0 -22 -10 -3 -9 -10 -14 -14 -11 -8 5 -28 -14 -29 -27 -2 -18 -45
-56 -57 -51 -8 3 -17 -2 -20 -11 -3 -9 -10 -16 -15 -16 -6 0 -23 -14 -39 -30
-16 -17 -34 -30 -39 -30 -5 0 -11 -4 -13 -8 -1 -4 -20 -18 -40 -31 -21 -12
-38 -29 -38 -37 0 -8 -8 -14 -18 -14 -9 0 -30 -12 -45 -26 -15 -14 -42 -30
-60 -36 -17 -6 -45 -22 -61 -36 -41 -33 -75 -45 -92 -32 -9 9 -18 7 -32 -7
-10 -10 -25 -19 -32 -21 -21 -5 -70 -42 -70 -53 0 -6 -4 -8 -10 -4 -5 3 -18 1
-30 -5 -11 -5 -29 -15 -41 -21 -11 -5 -34 -7 -50 -4 -21 5 -29 3 -27 -6 2 -7
-8 -16 -22 -20 -34 -10 -90 -11 -90 -1 0 4 -4 13 -9 21 -8 12 -16 10 -45 -12
-19 -15 -38 -27 -43 -27 -4 0 -16 -14 -26 -31 -10 -19 -23 -29 -31 -26 -8 3
-17 3 -21 -1 -4 -4 -17 -7 -28 -7 -12 0 -21 -6 -20 -12 2 -7 -2 -13 -7 -13 -6
0 -10 5 -10 10 0 6 -7 10 -16 10 -10 0 -14 7 -12 17 2 10 10 17 17 15 7 -1 10
2 6 8 -3 6 -10 8 -15 5 -4 -3 -10 -2 -13 2 -2 5 -2 2 -1 -4 2 -7 -6 -19 -16
-26 -11 -8 -17 -17 -13 -20 3 -4 3 -7 0 -7 -3 0 -11 9 -17 20 -8 15 -8 18 3
14 8 -3 17 1 20 9 7 18 -26 17 -61 -2 -18 -10 -23 -9 -28 4 -10 24 -22 18 -35
-18 -7 -19 -23 -38 -38 -45 -26 -12 -43 -59 -18 -49 8 3 12 -5 12 -22 0 -18 5
-26 16 -25 11 1 14 -5 11 -22 -2 -14 0 -24 7 -24 7 0 9 4 6 10 -3 5 -2 10 2
10 5 0 14 -14 20 -31 11 -28 14 -29 35 -18 13 7 24 12 26 11 1 -1 10 -2 20 -2
15 1 15 2 -3 15 -18 14 -17 15 18 13 37 -3 48 -12 25 -21 -10 -4 -10 -6 0 -6
7 -1 15 6 18 14 4 8 10 15 15 15 5 0 9 -7 9 -15 0 -8 5 -15 11 -15 7 0 5 -10
-5 -25 -9 -13 -16 -32 -16 -43 0 -11 -8 -18 -21 -19 -12 -1 -29 -9 -38 -17
-10 -9 -21 -13 -24 -9 -4 3 -7 1 -7 -5 0 -7 -5 -12 -11 -12 -6 0 -8 7 -5 17 4
10 4 14 0 11 -10 -10 -46 11 -39 23 10 15 -15 10 -31 -6 -18 -17 -34 -20 -34
-5 0 16 -37 11 -44 -6 -3 -9 -11 -14 -17 -12 -7 2 -24 -8 -40 -22 -15 -14 -43
-38 -63 -53 -45 -36 -73 -94 -86 -182 -17 -107 -17 -130 -1 -127 12 3 12 0 1
-12 -10 -13 -10 -16 3 -16 25 0 41 -38 25 -57 -7 -9 -11 -17 -8 -17 12 -3 -39
-56 -54 -56 -12 0 -16 10 -16 46 0 25 -4 43 -9 40 -5 -3 -11 4 -14 15 -3 12
-10 18 -16 14 -6 -3 -11 -1 -11 4 0 6 5 11 10 11 6 0 -12 23 -40 50 -50 50
-50 50 -35 79 8 16 20 32 27 35 7 4 3 4 -9 2 -19 -3 -21 -1 -13 14 9 17 4 30
-12 30 -5 0 -7 -4 -3 -9 3 -5 -7 -8 -22 -7 -16 2 -31 -2 -35 -8 -5 -7 -8 -5
-8 5 0 24 -29 33 -37 11 -4 -9 -10 -20 -15 -23 -11 -7 -14 -80 -5 -144 12 -86
15 -117 22 -237 l8 -118 866 1 c592 0 857 4 839 11 -19 6 -28 17 -28 31 0 29
42 115 73 150 l25 28 26 -32 c14 -17 26 -36 26 -43 0 -20 -18 -108 -25 -129
-7 -16 23 -17 534 -17 l541 0 0 2384 c0 1966 -2 2389 -13 2415 -15 35 -72 76
-99 72 -14 -2 -18 5 -18 29 0 25 4 31 15 26 25 -9 40 35 27 83 -8 35 -7 45 9
65 10 13 19 31 19 40 0 9 9 25 20 36 11 11 16 20 10 20 -5 0 -1 9 10 20 26 26
28 105 3 114 -10 4 -23 0 -32 -10 -9 -9 -10 -14 -3 -10 7 5 12 1 12 -9 0 -9
-5 -13 -10 -10 -6 3 -13 -1 -16 -9 -3 -9 -10 -13 -15 -10 -5 3 -13 -6 -19 -20
-5 -14 -13 -26 -18 -26 -5 0 -8 -11 -7 -24 2 -16 -1 -23 -9 -20 -6 2 -12 28
-12 61 -1 45 -5 57 -18 59 -21 3 -37 -35 -24 -58 8 -17 4 -22 -15 -19 -5 1 -6
-3 -3 -8 4 -5 -2 -15 -11 -21 -17 -11 -17 -11 0 -6 20 6 24 -9 3 -17 -7 -3
-16 -24 -20 -47 -4 -26 -10 -38 -17 -34 -8 5 -9 2 -1 -12 18 -32 -29 -97 -58
-79 -5 3 -12 1 -15 -5 -5 -8 -15 -6 -32 5 -23 16 -26 15 -46 -7 -21 -23 -64
-27 -51 -6 5 7 0 9 -14 6 -12 -4 -22 -2 -22 3 0 6 -9 5 -20 -1 -11 -6 -25 -8
-30 -5 -5 3 -11 1 -15 -5 -3 -5 -16 -10 -28 -10 -18 0 -19 2 -7 11 12 8 12 10
1 7 -8 -2 -15 -12 -17 -22 -1 -10 -5 -20 -8 -23 -7 -8 -36 17 -36 30 0 6 7 2
15 -9 14 -18 14 -17 5 9 -7 19 -7 26 1 22 5 -4 25 10 44 30 36 37 74 53 77 32
0 -7 2 -16 3 -22 2 -5 3 -13 4 -17 2 -16 66 30 69 50 2 12 8 22 13 22 5 0 9 4
9 10 0 5 -6 7 -14 4 -10 -4 -14 1 -13 15 1 12 5 21 9 21 4 0 8 5 8 11 0 5 -6
7 -12 4 -7 -4 -6 -1 2 7 17 14 80 136 80 155 0 6 5 13 11 15 6 2 9 16 7 32
l-3 28 -37 -44z m14 -593 c24 6 30 3 35 -14 3 -12 13 -21 22 -22 10 0 11 -2 4
-6 -7 -2 -13 -9 -13 -14 0 -4 7 -6 15 -3 10 4 13 2 10 -8 -3 -8 -16 -14 -29
-13 -25 0 -76 42 -76 63 0 7 -4 11 -9 8 -5 -4 -6 4 -3 16 5 20 7 20 10 5 3
-15 10 -17 34 -12z m-337 -382 c-19 -19 -25 -16 -23 11 2 19 5 22 19 13 14 -9
15 -13 4 -24z m45 -17 c0 -8 -7 -17 -16 -20 -23 -9 -24 -8 -24 14 0 13 7 20
20 20 11 0 20 -6 20 -14z m-230 -176 c0 -5 -2 -10 -4 -10 -3 0 -8 5 -11 10 -3
6 -1 10 4 10 6 0 11 -4 11 -10z m-30 -10 c0 -5 -5 -10 -11 -10 -5 0 -7 5 -4
10 3 6 8 10 11 10 2 0 4 -4 4 -10z m355 -281 c-10 -15 -25 -10 -19 6 4 8 10
12 15 9 5 -3 7 -10 4 -15z m115 11 c0 -5 -4 -10 -10 -10 -5 0 -10 5 -10 10 0
6 5 10 10 10 6 0 10 -4 10 -10z m130 -4 c0 -3 -4 -8 -10 -11 -5 -3 -10 -1 -10
4 0 6 5 11 10 11 6 0 10 -2 10 -4z m-735 -106 c3 -5 1 -10 -4 -10 -6 0 -11 5
-11 10 0 6 2 10 4 10 3 0 8 -4 11 -10z m-107 -130 c-13 -20 -28 -27 -28 -12 0
4 5 13 10 20 7 9 7 9 -2 2 -18 -15 -38 -12 -38 5 0 9 9 15 25 15 14 0 25 6 25
13 0 7 5 5 11 -5 7 -12 6 -23 -3 -38z m-34 -25 c4 -10 -1 -15 -15 -15 -17 0
-18 2 -7 15 16 18 15 18 22 0z m-4 -35 c-8 -5 -19 -10 -25 -10 -5 0 -3 5 5 10
8 5 20 10 25 10 6 0 3 -5 -5 -10z m-15 -58 c-3 -3 -11 0 -18 7 -9 10 -8 11 6
5 10 -3 15 -9 12 -12z m-200 -362 c3 -5 1 -10 -4 -10 -6 0 -11 5 -11 10 0 6 2
10 4 10 3 0 8 -4 11 -10z m989 -311 c4 6 13 11 21 11 17 0 16 -40 -3 -59 -7
-7 -11 -19 -9 -25 3 -6 -2 -17 -9 -24 -12 -10 -14 -10 -14 3 0 19 -14 19 -33
0 -8 -8 -18 -11 -22 -7 -5 4 -5 1 -1 -6 4 -7 0 -15 -11 -19 -10 -4 -21 -11
-24 -16 -3 -4 -13 -1 -22 7 -8 9 -20 16 -26 16 -6 0 -11 5 -11 11 0 6 -9 8
-21 4 -15 -5 -19 -4 -14 5 4 6 16 10 26 7 12 -3 19 1 21 16 2 14 12 21 32 23
16 2 32 7 35 12 3 5 14 12 25 15 14 6 17 4 12 -9 -5 -13 -3 -14 6 -7 7 6 21 9
31 8 9 -2 15 1 11 6 -3 5 -9 7 -14 4 -12 -7 -23 12 -14 26 5 8 9 8 14 -1 5 -9
9 -9 14 -1z m351 -289 c-3 -5 -10 -10 -16 -10 -5 0 -9 5 -9 10 0 6 7 10 16 10
8 0 12 -4 9 -10z m-1600 -870 c3 -5 1 -10 -4 -10 -6 0 -11 5 -11 10 0 6 2 10
4 10 3 0 8 -4 11 -10z m-630 -790 c3 -5 1 -10 -4 -10 -6 0 -11 5 -11 10 0 6 2
10 4 10 3 0 8 -4 11 -10z m1619 -16 c9 -3 16 -14 16 -24 0 -11 5 -22 11 -25 6
-4 8 -13 5 -20 -2 -7 0 -17 5 -22 7 -7 5 -16 -6 -27 -11 -11 -16 -27 -13 -46
3 -22 0 -31 -14 -36 -13 -4 -16 -12 -12 -30 4 -14 2 -24 -5 -24 -6 0 -8 -7 -5
-15 4 -10 2 -13 -8 -10 -20 8 -42 -20 -35 -46 6 -24 -13 -81 -20 -61 -3 6 -9
10 -14 6 -5 -3 -9 1 -9 8 -1 8 -6 6 -15 -6 -8 -10 -12 -23 -8 -29 3 -5 9 -3
14 4 7 11 9 10 9 -3 0 -10 -7 -18 -15 -18 -8 0 -14 -3 -14 -7 3 -20 -2 -31
-17 -37 -10 -4 -13 -2 -8 7 4 6 -3 3 -16 -8 l-23 -20 8 25 c7 25 7 25 -12 5
-14 -14 -17 -23 -9 -28 7 -6 7 -10 1 -13 -26 -11 -36 -22 -40 -44 -5 -28 -15
-39 -15 -17 0 38 -17 32 -97 -33 -46 -37 -23 35 52 165 36 63 65 118 65 123 0
6 4 12 8 14 5 2 33 39 63 83 30 44 57 82 62 83 4 2 7 9 7 15 0 20 70 113 87
117 1 0 8 -3 17 -6z m-1584 -38 c0 -2 -7 -6 -15 -10 -8 -3 -15 -1 -15 4 0 6 7
10 15 10 8 0 15 -2 15 -4z m208 -55 c3 -8 0 -11 -6 -7 -6 3 -12 1 -14 -5 -5
-16 -68 -20 -68 -5 0 28 79 44 88 17z m1074 -483 c-7 -7 -12 -8 -12 -2 0 14
12 26 19 19 2 -3 -1 -11 -7 -17z m-84 -53 c-3 -3 -9 2 -12 12 -6 14 -5 15 5 6
7 -7 10 -15 7 -18z"/>
<path d="M13365 5340 c3 -5 8 -10 11 -10 2 0 4 5 4 10 0 6 -5 10 -11 10 -5 0
-7 -4 -4 -10z"/>
<path d="M11415 5320 c-3 -6 1 -7 9 -4 18 7 21 14 7 14 -6 0 -13 -4 -16 -10z"/>
<path d="M12925 5231 c-3 -5 -1 -12 5 -16 5 -3 10 1 10 9 0 18 -6 21 -15 7z"/>
<path d="M12250 5163 c0 -5 -26 -7 -57 -7 -32 1 -71 -4 -88 -11 -16 -6 -32
-12 -35 -12 -39 -3 -231 -89 -250 -112 -3 -3 -30 -19 -60 -35 -142 -75 -294
-208 -339 -295 -12 -24 -27 -49 -34 -57 -26 -29 -33 -41 -49 -81 -9 -24 -15
-43 -13 -43 1 0 28 35 60 78 85 114 209 231 286 269 177 88 303 144 389 173
127 43 220 88 220 106 0 7 7 14 16 14 8 0 12 5 9 10 -7 12 -55 14 -55 3z"/>
<path d="M10916 5124 c-3 -9 -4 -20 0 -25 3 -5 0 -9 -6 -9 -6 0 -10 -8 -9 -17
2 -10 0 -31 -4 -46 -11 -41 16 -128 49 -156 15 -13 42 -32 61 -44 42 -24 59
-17 128 53 l46 47 -48 46 c-106 100 -186 167 -198 167 -7 0 -16 -7 -19 -16z"/>
<path d="M11540 5047 c-14 -6 -28 -15 -31 -20 -3 -4 -10 -7 -15 -5 -14 4 -124
-75 -124 -89 0 -7 -4 -13 -9 -13 -5 0 -33 -25 -64 -55 -30 -30 -57 -52 -61
-48 -5 6 -8 -4 -5 -23 0 -3 -12 -17 -28 -32 -15 -14 -29 -29 -29 -34 -1 -4 -2
-13 -3 -19 0 -5 -5 -8 -10 -5 -9 6 -21 -14 -27 -43 -1 -8 -9 -18 -16 -22 -7
-5 -9 -9 -4 -9 5 0 3 -7 -4 -15 -7 -8 -9 -15 -4 -15 4 0 -2 -9 -14 -20 -12
-12 -22 -31 -22 -43 0 -18 -2 -19 -11 -7 -10 15 -9 -11 7 -107 8 -50 34 -68
34 -23 0 17 5 30 10 30 6 0 10 9 10 20 0 11 4 20 9 20 15 0 71 53 71 67 0 7 5
13 10 13 6 0 14 8 18 18 7 17 85 125 110 151 7 7 22 31 33 53 11 21 65 84 119
139 85 86 99 104 94 125 -7 27 -9 27 -44 11z"/>
<path d="M11596 5045 c-3 -8 -1 -15 3 -15 5 0 11 7 15 15 3 8 1 15 -3 15 -5 0
-11 -7 -15 -15z"/>
<path d="M12965 4990 c4 -6 11 -8 16 -5 14 9 11 15 -7 15 -8 0 -12 -5 -9 -10z"/>
<path d="M12828 4723 c7 -3 16 -2 19 1 4 3 -2 6 -13 5 -11 0 -14 -3 -6 -6z"/>
<path d="M12801 4688 c0 -16 2 -18 6 -8 3 8 11 18 17 22 7 5 4 8 -6 8 -12 0
-18 -7 -17 -22z"/>
<path d="M10954 4439 c-15 -17 -19 -36 -18 -98 0 -42 4 -96 8 -121 4 -25 7
-58 7 -73 -1 -15 4 -37 10 -48 6 -12 12 -42 14 -68 2 -25 8 -59 14 -74 6 -16
11 -32 11 -37 0 -4 7 -31 17 -59 22 -68 43 -65 60 9 13 51 17 162 9 220 -3 22
-17 81 -47 190 -5 19 -12 53 -14 75 -15 107 -32 127 -71 84z"/>
<path d="M12377 3928 c-8 -29 -8 -28 -2 -28 3 0 5 3 4 6 0 4 4 10 10 13 5 4 6
12 2 20 -6 9 -10 6 -14 -11z"/>
<path d="M12360 3866 c0 -9 5 -16 10 -16 6 0 10 4 10 9 0 6 -4 13 -10 16 -5 3
-10 -1 -10 -9z"/>
<path d="M12265 3851 c-3 -5 -2 -12 3 -15 5 -3 9 1 9 9 0 17 -3 19 -12 6z"/>
<path d="M12050 3559 c0 -6 -4 -8 -8 -5 -4 2 -9 -5 -9 -17 -2 -14 1 -17 6 -9
4 7 14 10 23 7 9 -4 15 0 15 9 0 8 -6 17 -14 20 -7 3 -13 1 -13 -5z"/>
<path d="M12006 3472 c-8 -13 35 -45 46 -34 6 6 0 12 -17 16 -14 4 -23 11 -20
16 3 6 4 10 1 10 -3 0 -7 -4 -10 -8z"/>
<path d="M10275 2899 c-7 -10 66 -32 195 -58 52 -11 102 -22 110 -25 8 -4 46
-13 84 -21 71 -14 88 -11 120 21 19 18 21 70 4 71 -7 1 -53 4 -103 8 -153 10
-405 13 -410 4z"/>
<path d="M13330 2509 c0 -5 5 -7 10 -4 6 3 10 8 10 11 0 2 -4 4 -10 4 -5 0
-10 -5 -10 -11z"/>
<path d="M11061 2451 c-8 -5 -9 -11 -3 -15 5 -3 12 1 16 9 6 17 6 18 -13 6z"/>
<path d="M11845 1999 c-4 -6 -5 -12 -2 -15 2 -3 7 2 10 11 7 17 1 20 -8 4z"/>
<path d="M11883 1963 c-7 -2 -13 -12 -13 -21 0 -23 45 -25 64 -3 14 15 14 18
1 18 -8 0 -12 -5 -9 -11 3 -6 -1 -3 -9 7 -15 18 -15 18 -34 10z"/>
<path d="M11566 1473 c-6 -14 -5 -15 5 -6 7 7 10 15 7 18 -3 3 -9 -2 -12 -12z"/>
<path d="M11518 1451 c4 -10 1 -13 -11 -8 -9 3 -17 2 -17 -4 0 -5 12 -8 27 -6
30 4 42 36 13 34 -11 -1 -16 -6 -12 -16z"/>
<path d="M11398 1363 c-10 -2 -18 -9 -18 -14 0 -6 7 -6 19 0 10 6 22 7 26 3 5
-4 5 -1 1 6 -4 6 -8 11 -9 11 -1 -1 -10 -3 -19 -6z"/>
<path d="M7089 1331 c-51 -32 -115 -54 -309 -107 -74 -20 -143 -39 -153 -41
-10 -3 -16 -12 -13 -19 3 -8 -1 -14 -10 -14 -9 0 -29 -9 -44 -20 -43 -31 -77
-33 -175 -11 -50 11 -125 23 -167 27 -72 6 -81 4 -129 -21 -29 -15 -70 -46
-91 -68 -21 -23 -43 -42 -49 -42 -13 0 -29 -27 -23 -37 3 -4 1 -8 -5 -8 -5 0
-12 -8 -15 -18 -3 -10 -39 -52 -79 -95 -52 -54 -83 -79 -105 -83 -35 -7 -54
-24 -27 -24 9 0 13 -4 10 -10 -3 -5 -15 -10 -25 -10 -10 0 -21 -4 -24 -9 -4
-5 4 -7 16 -3 20 4 17 -1 -17 -40 -37 -43 -43 -45 -80 -41 -56 7 -104 22 -112
37 -5 7 -17 18 -28 24 -16 9 -6 11 53 12 85 0 90 15 6 19 -32 1 -62 5 -67 8
-14 9 -127 24 -127 17 0 -9 76 -44 86 -40 7 3 16 1 19 -4 8 -14 -60 -25 -149
-25 -55 0 -81 4 -84 13 -2 6 -9 12 -17 12 -7 0 -17 6 -23 13 -8 10 -6 13 10
14 12 1 26 7 31 12 8 8 -2 11 -34 12 -24 1 -34 4 -21 6 32 6 27 23 -8 23 -16
0 -30 4 -30 9 0 5 -9 11 -20 14 -11 3 -20 10 -20 16 0 15 67 14 72 -1 4 -10
10 -10 32 0 33 15 108 16 123 1 6 -6 21 -9 34 -7 l24 4 -27 13 c-15 8 -24 19
-21 27 6 16 38 23 142 29 47 3 87 7 89 10 3 3 0 5 -6 5 -19 0 -14 18 6 23 9 3
0 5 -21 6 -40 1 -385 -60 -622 -110 -208 -44 -304 -63 -580 -113 -137 -26
-333 -62 -435 -81 -324 -62 -453 -59 -730 18 -240 67 -425 109 -495 112 -39 2
-75 4 -80 5 -6 1 -22 2 -37 1 -21 -1 -26 -5 -21 -17 3 -10 -8 -29 -31 -53 -20
-21 -36 -42 -35 -47 1 -5 -1 -17 -6 -27 -4 -9 -4 -33 -1 -52 6 -32 15 -40 40
-36 5 1 6 -5 3 -12 -3 -8 0 -20 6 -26 9 -10 8 -15 -6 -26 -22 -16 -23 -25 -5
-36 10 -6 9 -11 -7 -23 -11 -9 -15 -16 -10 -17 6 -1 15 -3 20 -4 6 -2 24 -4
40 -5 17 -1 24 -4 15 -7 -8 -3 -18 -11 -22 -17 -4 -6 -11 -11 -15 -12 -4 0
-20 -6 -35 -14 -26 -12 -29 -30 -7 -30 6 0 7 6 2 12 -4 7 6 2 23 -12 27 -22
29 -26 15 -38 -9 -7 -11 -12 -6 -11 24 3 36 -2 29 -12 -3 -6 -15 -9 -25 -6
-10 3 -22 1 -25 -5 -12 -18 16 -25 69 -17 29 5 68 11 87 14 19 3 77 15 130 26
52 11 109 22 125 25 33 5 101 20 279 60 65 15 132 27 147 28 16 1 29 3 29 6 0
3 15 6 33 7 l32 2 -33 -10 c-18 -5 -30 -14 -27 -19 4 -6 -6 -7 -24 -4 -18 4
-37 2 -44 -5 -8 -6 -17 -8 -20 -5 -3 3 -11 2 -18 -2 -7 -4 -24 -9 -37 -10 -13
-2 -29 -8 -36 -14 -8 -5 -21 -8 -30 -4 -9 3 -16 1 -16 -6 0 -7 -8 -9 -19 -5
-11 3 -25 0 -32 -8 -7 -7 -25 -11 -42 -9 -21 3 -34 -1 -44 -14 -7 -10 -13 -12
-13 -6 0 7 -4 12 -10 12 -5 0 -10 -7 -10 -15 0 -18 -12 -19 -28 -3 -9 9 -12 8
-12 -5 0 -9 -3 -16 -7 -16 -21 3 -33 -2 -27 -12 5 -8 1 -8 -14 0 -26 14 -32
14 -32 0 0 -5 5 -7 12 -3 6 4 8 3 5 -3 -4 -6 -28 -13 -54 -17 -73 -10 -76 -11
-100 -24 -12 -7 -31 -12 -42 -12 -11 0 -23 -4 -26 -10 -3 -5 -17 -10 -30 -10
-13 0 -25 -5 -27 -11 -3 -9 -22 -15 -51 -18 -5 -1 -5 -6 -1 -12 3 -6 15 -8 26
-6 15 4 17 3 8 -8 -8 -10 -7 -14 2 -18 7 -3 0 -4 -17 -4 -19 1 -29 -2 -28 -10
2 -7 0 -12 -5 -11 -11 2 -84 -12 -107 -22 -11 -4 -31 -12 -45 -18 -18 -8 733
-11 2533 -11 2427 -1 2558 0 2564 17 4 9 29 54 55 100 47 83 60 124 36 121
-29 -3 -38 2 -35 24 1 17 -3 22 -20 21 -13 -1 -23 2 -23 6 0 12 -73 10 -120
-4 -28 -8 -54 -10 -67 -5 -16 6 -23 5 -23 -4 0 -8 -3 -8 -9 1 -4 8 -11 13 -15
13 -20 -3 -26 0 -21 9 4 6 11 8 16 5 5 -3 6 1 3 10 -5 11 -2 16 7 14 8 -1 21
1 29 4 8 3 42 14 75 23 33 9 62 20 65 25 3 4 17 10 30 12 48 9 70 19 70 33 0
8 3 15 8 15 74 13 206 13 262 0 64 -15 131 -13 229 5 53 10 114 14 165 11 132
-7 389 -45 437 -64 37 -15 79 -18 269 -18 207 0 229 1 282 21 53 21 73 25 170
40 20 3 67 14 104 24 37 11 69 18 72 16 2 -3 -6 -14 -18 -26 -22 -22 -21 -38
2 -24 7 4 19 9 28 9 27 2 120 36 126 46 3 6 1 16 -6 24 -9 10 -5 14 17 19 15
3 54 10 86 16 36 7 62 18 69 30 6 10 18 16 25 13 41 -16 104 49 143 147 22 53
122 248 169 328 32 53 42 79 39 104 -3 37 -2 37 -108 25 -139 -16 -155 -19
-165 -29 -7 -8 -6 -9 3 -4 6 4 12 2 12 -3 0 -14 -26 -14 -51 -1 -14 8 -19 7
-19 -1 0 -7 -3 -9 -6 -6 -11 11 -46 -14 -40 -28 4 -11 -2 -13 -26 -8 -26 5
-30 4 -25 -10 4 -11 1 -17 -8 -17 -12 0 -14 -12 -10 -65 3 -36 11 -93 19 -128
9 -34 22 -92 31 -128 8 -36 15 -72 14 -80 -1 -28 -22 39 -64 208 -24 94 -51
183 -62 197 l-18 24 -255 2 c-263 1 -492 -13 -498 -30 -2 -6 -14 -10 -26 -10
-12 0 -28 -6 -35 -12 -8 -9 -38 -12 -99 -9 -48 2 -103 4 -122 4 -19 1 -81 -5
-136 -12 -114 -16 -160 -12 -224 16 -70 31 -80 34 -160 43 -41 5 -123 25 -181
44 -58 19 -128 37 -155 41 -27 4 -101 25 -164 47 -63 22 -143 43 -178 48 -39
5 -93 22 -137 44 -41 20 -84 36 -97 36 -13 0 -44 -13 -69 -29z m2751 -201 c0
-5 -7 -10 -16 -10 -8 0 -12 5 -9 10 3 6 10 10 16 10 5 0 9 -4 9 -10z m-3051
-24 c-2 -2 -26 -15 -52 -28 -43 -22 -54 -24 -110 -16 -57 8 -63 7 -80 -14 -13
-16 -17 -31 -12 -54 4 -22 1 -37 -10 -48 -12 -11 -13 -16 -4 -16 50 0 -70 -36
-143 -43 -9 -1 -14 -5 -12 -9 3 -4 -2 -8 -10 -8 -8 0 -13 6 -10 13 3 9 -14 17
-53 25 -32 7 -70 15 -85 18 -16 4 -25 11 -21 17 3 5 1 7 -4 4 -6 -4 -25 -4
-41 -1 -22 5 -29 10 -25 22 4 10 2 13 -5 8 -6 -3 -13 -2 -17 4 -4 6 -11 8 -16
4 -21 -12 -2 23 28 54 33 33 53 41 53 21 0 -8 5 -7 15 1 13 11 14 10 9 -6 -7
-18 -6 -18 15 1 18 15 24 16 30 6 6 -8 17 -11 31 -6 15 5 20 4 16 -4 -4 -6 -3
-11 3 -11 5 0 13 5 16 10 4 6 12 7 18 3 12 -7 78 -5 86 3 3 3 -1 9 -8 14 -17
10 70 26 94 17 8 -4 17 -2 19 2 3 5 35 2 70 -6 61 -14 70 -14 128 5 61 19 96
26 87 18z m291 -110 c73 -22 153 -66 122 -66 -6 0 -17 6 -24 13 -7 6 -20 14
-28 16 -98 27 -230 83 -230 97 0 3 17 -4 38 -15 20 -10 75 -30 122 -45z m225
-76 c3 -5 1 -10 -4 -10 -6 0 -11 5 -11 10 0 6 2 10 4 10 3 0 8 -4 11 -10z
m-2318 -115 c-4 -10 3 -16 26 -20 35 -7 85 -40 76 -50 -4 -3 -57 -6 -118 -6
-84 0 -117 4 -133 16 -13 8 -30 15 -40 15 -10 0 -18 5 -18 10 0 6 12 10 28 10
20 1 128 24 181 39 2 1 1 -6 -2 -14z m1048 -35 c3 -5 1 -10 -4 -10 -6 0 -11 5
-11 10 0 6 2 10 4 10 3 0 8 -4 11 -10z m59 -23 c-6 -18 -4 -20 7 -10 18 15 79
24 79 12 0 -6 5 -7 12 -3 6 4 24 8 40 9 23 2 26 0 17 -11 -9 -11 -9 -14 1 -14
6 0 14 9 17 20 6 23 38 27 46 6 4 -11 1 -13 -11 -9 -13 4 -12 2 3 -10 17 -13
18 -16 4 -22 -10 -4 -14 -15 -12 -33 6 -45 -11 -56 -76 -53 -16 1 -21 5 -17
16 4 10 -1 15 -14 15 -13 0 -17 5 -14 15 4 10 0 13 -16 10 -15 -3 -20 0 -17 9
4 10 0 12 -14 9 -10 -3 -19 -1 -19 5 0 6 -9 9 -20 7 -13 -2 -20 2 -20 11 0 8
-4 12 -10 9 -5 -3 -10 0 -10 8 0 18 5 22 30 24 17 2 20 -2 14 -20z m-1294 -15
c0 -5 11 -15 25 -22 38 -20 16 -27 -108 -36 -98 -6 -107 -5 -107 11 0 15 -6
17 -35 12 -34 -6 -59 8 -33 18 13 5 167 21 226 24 17 0 32 -3 32 -7z m1230 -2
c0 -5 -2 -10 -4 -10 -3 0 -8 5 -11 10 -3 6 -1 10 4 10 6 0 11 -4 11 -10z
m-915 -30 c14 -5 25 -14 25 -20 0 -5 7 -10 15 -10 8 0 15 -4 15 -9 0 -25 -197
-26 -268 0 -32 11 -32 12 -15 28 10 10 36 18 58 20 21 1 41 3 42 5 6 6 104 -5
128 -14z m-599 -26 l39 -17 -30 -9 c-16 -5 -49 -7 -72 -6 -23 1 -45 -1 -49 -5
-13 -13 -101 -7 -113 7 -10 12 0 16 61 26 40 6 78 13 83 15 22 7 44 4 81 -11z
m947 -24 c20 -12 37 -25 37 -30 0 -4 -42 -10 -94 -14 -84 -6 -100 -5 -140 14
-68 31 -59 45 34 52 79 6 126 0 163 -22z m-586 -11 c13 -13 30 -20 41 -17 11
3 26 2 33 -2 18 -12 -38 -20 -151 -23 -74 -2 -103 2 -129 16 -19 9 -43 17 -55
17 -12 0 -16 4 -10 9 11 12 178 31 219 25 16 -2 39 -14 52 -25z m-622 -4 l37
-24 -26 -7 c-48 -12 -91 -11 -133 4 -24 7 -43 18 -43 22 0 11 84 24 110 17 11
-3 18 -1 14 4 -9 15 3 10 41 -16z m313 0 c-8 -8 -159 -44 -198 -47 -25 -2 -30
-5 -15 -9 11 -3 66 4 122 15 l103 20 29 -21 c19 -15 37 -20 52 -16 13 3 21 3
18 -1 -11 -11 -198 -37 -254 -34 -27 1 -89 -6 -138 -15 -53 -10 -107 -14 -139
-10 -33 4 -49 3 -45 -4 12 -19 -141 -15 -187 6 -37 16 -129 37 -148 33 -11 -2
-18 27 -8 33 6 4 10 1 10 -4 0 -7 28 -11 71 -11 38 0 100 -5 137 -10 52 -8 88
-8 157 4 115 18 185 34 207 46 10 6 41 11 70 11 29 1 67 5 83 9 36 9 80 12 73
5z m631 -19 c19 -7 36 -17 38 -23 4 -11 -41 -23 -83 -23 -13 0 -24 -4 -24 -8
0 -5 26 -6 58 -4 45 3 68 -1 105 -18 26 -12 50 -26 52 -31 3 -4 -16 -11 -42
-14 -27 -3 -66 -12 -88 -20 -70 -24 -120 -35 -206 -44 -46 -5 -154 -21 -239
-36 -148 -26 -156 -26 -186 -10 -28 15 -39 15 -88 4 -48 -10 -68 -10 -141 6
-129 27 -126 38 13 56 84 11 94 11 134 -7 43 -19 56 -20 121 -3 61 16 33 31
-44 23 -55 -5 -74 -3 -94 10 -14 9 -29 15 -33 12 -4 -2 -52 -12 -106 -21 -77
-13 -104 -14 -124 -5 -36 16 -19 26 77 45 64 13 89 15 108 6 13 -6 28 -9 33
-6 18 11 176 36 214 34 62 -3 76 0 73 13 -2 13 63 26 143 27 54 1 125 -35 98
-50 -33 -18 -171 -39 -184 -28 -8 6 -29 15 -49 19 -27 6 -35 5 -35 -6 0 -8 5
-14 10 -14 21 0 9 -21 -17 -31 -58 -23 0 -19 141 10 l147 30 50 -19 c53 -21
144 -27 154 -10 4 6 -17 9 -57 8 -35 -1 -72 4 -83 10 -18 10 -18 11 -2 12 10
0 15 5 12 10 -4 6 8 16 26 24 l32 13 -36 5 c-21 2 -35 0 -34 -7 3 -18 -49 -17
-64 1 -13 16 -11 17 19 12 22 -3 29 -1 23 5 -6 6 -24 10 -41 10 -59 0 -9 25
70 35 101 13 110 12 149 -2z m-1159 -5 c0 -5 -14 -11 -31 -15 -41 -8 -124 -8
-116 0 18 18 147 31 147 15z m1544 -13 c-62 -70 -60 -69 -131 -75 -50 -4 -79
-1 -104 9 -19 9 -45 20 -59 25 -23 10 -21 11 25 17 28 4 73 11 100 16 65 12
156 27 174 29 10 1 9 -5 -5 -21z m-52 -108 c-2 -14 -5 -26 -7 -28 -2 -2 -34
-11 -72 -20 l-68 -16 40 -9 c22 -4 52 -10 68 -11 15 -2 30 -4 35 -5 4 -1 -4
-11 -17 -21 -13 -11 -17 -20 -10 -20 14 0 49 -29 49 -41 0 -4 -26 -11 -57 -15
-32 -4 -78 -13 -103 -20 -25 -8 -63 -14 -85 -14 -22 0 -56 -4 -75 -9 -19 -6
-54 -15 -78 -21 -35 -9 -41 -14 -32 -25 18 -21 -4 -27 -52 -14 -24 6 -47 12
-53 13 -5 1 -14 4 -20 7 -5 3 -38 12 -73 19 -48 10 -62 17 -60 29 2 12 41 24
158 48 85 17 175 34 200 37 25 3 61 10 80 16 19 5 57 8 85 5 l50 -5 -65 20
c-63 19 -65 19 -126 1 -213 -66 -467 -94 -532 -58 -19 10 -32 20 -29 23 5 5
263 50 342 59 33 4 123 22 200 41 77 19 151 34 165 35 14 0 45 6 70 14 62 18
76 15 72 -15z m1045 -177 c9 -11 9 -21 2 -34 -7 -13 -6 -19 1 -19 6 0 8 -6 4
-12 -4 -7 1 -6 12 3 18 16 93 31 92 19 0 -3 0 -13 1 -24 1 -15 4 -16 16 -6 12
10 16 9 21 -3 3 -9 13 -13 25 -10 14 4 19 0 19 -13 1 -16 3 -15 15 6 8 14 15
21 16 15 5 -34 5 -81 0 -90 -11 -20 -9 -34 5 -28 9 3 12 -2 8 -19 -3 -12 -6
-29 -6 -35 -2 -16 -15 -17 -20 -2 -2 6 -17 11 -33 11 -17 0 -37 7 -47 15 -11
9 -18 11 -23 4 -10 -16 -29 -13 -52 8 -12 11 -24 17 -29 13 -4 -4 -5 1 -1 10
3 10 0 19 -9 22 -8 3 -12 2 -9 -3 3 -6 -7 -8 -22 -6 -16 2 -31 4 -35 4 -5 1
-8 6 -8 12 0 5 4 8 8 5 5 -3 6 8 4 25 -2 17 -10 29 -19 29 -8 0 -12 -4 -9 -9
3 -5 -1 -12 -10 -15 -10 -4 -13 -2 -8 7 5 9 4 9 -7 0 -14 -14 -40 -17 -38 -5
4 25 -4 41 -23 47 l-23 7 23 6 c13 4 23 10 23 15 -2 22 0 26 13 21 8 -3 19 3
26 16 6 11 15 18 21 15 5 -4 9 1 9 10 0 14 6 16 28 11 15 -4 32 -14 39 -23z
m-957 -51 c89 -39 89 -47 3 -46 -95 0 -177 33 -159 63 9 15 108 4 156 -17z
m-1046 -11 c4 -5 -3 -7 -14 -4 -23 6 -26 13 -6 13 8 0 17 -4 20 -9z m831 -5
c18 -13 18 -14 -1 -24 -66 -35 -226 -46 -238 -16 -7 19 5 24 87 38 99 17 131
18 152 2z m172 -72 c12 -8 30 -14 40 -14 36 -1 -52 -31 -108 -37 -73 -7 -209
21 -209 44 0 13 9 15 53 10 28 -4 62 -9 75 -13 13 -4 22 -2 22 5 0 6 -9 11
-19 11 -11 0 -23 5 -27 11 -10 17 145 1 173 -17z"/>
<path d="M6520 1076 c0 -2 7 -7 16 -10 8 -3 12 -2 9 4 -6 10 -25 14 -25 6z"/>
<path d="M6450 1060 c0 -5 5 -10 11 -10 5 0 7 5 4 10 -3 6 -8 10 -11 10 -2 0
-4 -4 -4 -10z"/>
<path d="M6106 1025 c-17 -26 -13 -34 7 -12 12 12 20 37 13 37 -2 0 -11 -11
-20 -25z"/>
<path d="M4268 573 c12 -2 30 -2 40 0 9 3 -1 5 -23 4 -22 0 -30 -2 -17 -4z"/>
<path d="M11406 1327 c3 -10 9 -15 12 -12 3 3 0 11 -7 18 -10 9 -11 8 -5 -6z"/>
<path d="M11369 1308 c-7 -33 -7 -68 1 -68 5 0 6 7 3 17 -4 11 -3 14 5 9 8 -5
12 0 12 13 0 16 -18 41 -21 29z"/>
<path d="M8978 1183 c6 -2 18 -2 25 0 6 3 1 5 -13 5 -14 0 -19 -2 -12 -5z"/>
<path d="M11350 1079 c0 -5 -5 -7 -12 -3 -7 4 -8 3 -4 -4 10 -16 23 -15 30 3
3 8 1 15 -4 15 -6 0 -10 -5 -10 -11z"/>
<path d="M5615 970 c-8 -13 15 -13 35 0 12 8 11 10 -7 10 -12 0 -25 -4 -28
-10z"/>
<path d="M5578 953 c7 -3 16 -2 19 1 4 3 -2 6 -13 5 -11 0 -14 -3 -6 -6z"/>
<path d="M5500 886 c0 -3 14 -19 31 -36 22 -21 28 -31 18 -34 -8 -2 -21 -7
-29 -9 -8 -3 3 -6 26 -6 22 -1 45 -6 50 -11 10 -10 54 -22 54 -15 0 2 -18 14
-40 26 -22 13 -40 29 -40 36 0 7 -5 13 -10 13 -6 0 -10 8 -8 18 2 12 -5 18
-24 20 -16 2 -28 1 -28 -2z"/>
<path d="M5588 853 c7 -3 16 -2 19 1 4 3 -2 6 -13 5 -11 0 -14 -3 -6 -6z"/>
<path d="M10139 818 c-8 -20 -14 -71 -14 -130 0 -92 1 -97 23 -101 25 -5 24
-9 24 147 -1 109 -11 136 -33 84z"/>
<path d="M5314 798 c-8 -13 41 -20 68 -9 14 5 29 7 32 4 3 -4 6 -1 6 5 0 13
-98 13 -106 0z"/>
<path d="M9920 335 c-18 -21 -17 -57 4 -169 9 -49 16 -106 16 -127 l0 -39 80
0 c44 0 80 2 80 4 0 2 -20 43 -43 92 -24 49 -54 116 -66 149 -12 33 -30 70
-40 83 -16 22 -18 22 -31 7z"/>
<path d="M7560 301 c0 -6 5 -11 11 -11 6 0 3 -7 -6 -16 -8 -9 -22 -14 -29 -11
-9 4 -13 0 -11 -11 2 -9 4 -20 4 -24 2 -15 22 -8 28 10 3 9 19 29 36 45 16 15
25 27 19 27 -6 0 -14 -5 -17 -10 -5 -8 -11 -7 -21 1 -10 8 -14 8 -14 0z"/>
<path d="M9707 240 c-26 -29 -54 -64 -62 -79 -11 -23 -45 -137 -45 -155 0 -3
23 -6 50 -6 38 0 50 4 50 15 0 21 37 133 54 165 22 41 27 75 13 94 -12 16 -17
13 -60 -34z"/>
<path d="M9807 258 c4 -18 3 -20 -6 -8 -9 13 -11 13 -11 -2 0 -25 18 -31 29
-9 8 14 7 22 -3 31 -12 9 -14 7 -9 -12z"/>
<path d="M2375 260 c-3 -6 -2 -10 4 -10 5 0 16 -3 24 -6 8 -3 17 1 20 8 6 16
-39 23 -48 8z"/>
<path d="M9274 258 c-3 -4 4 -8 15 -8 12 0 21 4 21 8 0 5 -7 9 -15 9 -9 0 -18
-4 -21 -9z"/>
<path d="M10138 247 c-9 -6 -8 -7 5 -3 20 6 20 6 7 -30 -8 -20 -5 -48 12 -120
l23 -94 93 0 93 0 -13 23 c-7 12 -11 25 -10 30 1 4 -2 7 -8 7 -5 0 -10 11 -10
25 0 16 -6 25 -15 25 -8 0 -14 3 -14 8 3 20 -2 32 -13 26 -6 -4 -8 -3 -5 3 4
6 0 19 -8 29 -8 11 -14 14 -15 7 0 -7 -5 -13 -11 -13 -5 0 -8 4 -5 8 3 5 -4
18 -14 30 -11 12 -20 25 -20 31 0 5 -10 7 -22 3 -12 -3 -19 -1 -15 5 8 12 -18
13 -35 0z"/>
<path d="M1953 233 c-14 -3 -23 -11 -22 -21 0 -11 3 -12 6 -4 2 6 13 12 24 12
10 0 19 5 19 10 0 6 -1 9 -2 9 -2 -1 -13 -4 -25 -6z"/>
<path d="M9268 233 c7 -3 16 -2 19 1 4 3 -2 6 -13 5 -11 0 -14 -3 -6 -6z"/>
<path d="M2295 220 c-3 -5 -1 -10 4 -10 6 0 11 5 11 10 0 6 -2 10 -4 10 -3 0
-8 -4 -11 -10z"/>
<path d="M1726 195 c-11 -8 -15 -15 -10 -15 6 0 19 7 30 15 10 8 15 14 9 14
-5 0 -19 -6 -29 -14z"/>
<path d="M2140 196 c0 -10 28 -13 41 -5 10 6 7 9 -13 9 -16 0 -28 -2 -28 -4z"/>
<path d="M1795 183 c-41 -9 -75 -26 -69 -34 3 -5 1 -9 -5 -9 -5 0 -14 7 -19
16 -5 9 -12 13 -14 8 -3 -5 8 -22 24 -39 17 -18 26 -23 22 -12 -3 9 -1 17 4
17 6 0 14 9 17 21 5 16 13 20 31 16 13 -2 24 0 24 5 0 5 5 6 10 3 6 -3 10 -1
10 4 0 11 -2 12 -35 4z"/>
<path d="M1645 150 c-3 -5 -12 -7 -20 -3 -8 3 -15 0 -15 -6 0 -6 13 -11 30
-11 22 0 28 4 24 15 -7 17 -11 19 -19 5z"/>
<path d="M1489 134 c-12 -14 -11 -16 5 -13 11 2 21 10 24 17 5 17 -13 15 -29
-4z"/>
<path d="M9491 121 c-12 -10 -33 -41 -46 -67 l-25 -49 46 -3 c25 -2 48 -1 50
1 3 2 7 34 11 71 6 71 1 79 -36 47z"/>
<path d="M1240 120 c-12 -7 -12 -12 -3 -21 15 -15 26 -7 21 15 -2 11 -7 13
-18 6z"/>
<path d="M1335 120 c-3 -5 -1 -10 4 -10 6 0 11 5 11 10 0 6 -2 10 -4 10 -3 0
-8 -4 -11 -10z"/>
<path d="M1417 109 c-3 -12 -10 -18 -16 -14 -6 3 -11 1 -11 -4 0 -14 13 -14
26 -1 5 5 15 6 23 1 11 -7 8 -14 -14 -35 -25 -23 -30 -25 -37 -11 -7 12 -14
13 -29 5 -11 -6 -24 -8 -29 -5 -6 3 -10 1 -10 -5 0 -6 -4 -9 -8 -6 -4 3 -26 1
-47 -4 -49 -11 -59 -4 -16 11 37 13 36 34 -2 33 -19 0 -26 5 -24 15 1 11 -5
15 -18 14 -11 -1 -23 3 -26 9 -4 5 -9 3 -12 -6 -4 -9 -1 -16 5 -16 6 0 9 -2 6
-5 -3 -3 -17 -1 -32 5 -20 7 -34 6 -55 -4 -15 -8 -42 -14 -59 -14 -17 1 -38
-5 -47 -12 -11 -9 -15 -9 -15 -1 0 8 -5 9 -19 2 -10 -6 -21 -8 -24 -4 -4 3
-12 1 -19 -4 -16 -12 -79 -13 -72 -1 3 4 0 8 -5 8 -6 0 -11 -4 -11 -9 0 -5 -7
-12 -16 -15 -8 -3 -12 -2 -9 4 3 6 -3 10 -14 10 -12 0 -21 -3 -21 -7 0 -5 -27
-8 -59 -8 -36 1 -57 -3 -54 -9 4 -5 -1 -7 -10 -3 -9 3 -31 0 -49 -8 -29 -13 5
-14 311 -15 189 0 372 4 405 10 34 5 82 12 107 15 44 6 46 7 45 39 -1 18 -9
40 -18 49 -15 15 -16 15 -21 -4z"/>
<path d="M1510 110 c-8 -5 -10 -10 -5 -10 6 0 17 5 25 10 8 5 11 10 5 10 -5 0
-17 -5 -25 -10z"/>
<path d="M1358 93 c7 -3 16 -2 19 1 4 3 -2 6 -13 5 -11 0 -14 -3 -6 -6z"/>
<path d="M8380 87 c0 -8 -9 -22 -19 -31 -10 -10 -21 -26 -24 -37 -5 -17 -1
-20 20 -17 21 2 28 11 38 45 7 23 10 45 7 48 -10 10 -22 5 -22 -8z"/>
<path d="M1296 64 c-24 -24 -19 -30 7 -8 12 10 24 20 26 21 2 2 -1 3 -7 3 -6
0 -18 -7 -26 -16z"/>
<path d="M1488 73 c6 -2 18 -2 25 0 6 3 1 5 -13 5 -14 0 -19 -2 -12 -5z"/>
<path d="M1545 70 c-3 -5 -5 -10 -3 -11 29 -7 36 -5 31 7 -6 16 -19 18 -28 4z"/>
<path d="M1495 50 c3 -5 14 -10 23 -10 15 0 15 2 2 10 -20 13 -33 13 -25 0z"/>
<path d="M15 40 c-3 -5 1 -10 9 -10 9 0 16 5 16 10 0 6 -4 10 -9 10 -6 0 -13
-4 -16 -10z"/>
</g>
</svg>
