<svg xmlns="http://www.w3.org/2000/svg" viewbox="0 0 1220 728" width="1220" height="728"><defs></defs><g transform="matrix(1, -0, -0, 1, -272.1236385216996, -293.18318713749295)">
<g transform="matrix(1, 0, 0, 1, 0, 0)">
	<rect class="artboard-bg" fill="#00000000" x="24" y="128" width="1920" height="1080"/>
	<g class="artboard" transform="matrix(1, 0, 0, 1, 24, 128)">
		<path class="vector-data" d="M662.027833,232.063189C1177.869983,226.696483 1061.693206,193.577591 1123.082439,437.033252 C1149.663423,542.447355 1161.968131,471.521083 693.132993,515.814120 C390.028083,544.449851 560.876703,539.031894 363.653944,416.900278 C180.461446,303.457004 171.576944,237.165730 662.027833,232.063189 L 662.027833,232.063189 ZM662.027833,232.063189C1177.869983,226.696483 1061.693206,193.577591 1123.082439,437.033252 C1149.663423,542.447355 1161.968131,471.521083 693.132993,515.814120 C390.028083,544.449851 560.876703,539.031894 363.653944,416.900278 C180.461446,303.457004 171.576944,237.165730 662.027833,232.063189 L 662.027833,232.063189 Z" fill="#E1DF00" stroke="#000000" stroke-opacity="0.000" stroke-width="5" stroke-dasharray="none" stroke-dashoffset="0" stroke-linecap="butt" stroke-linejoin="miter" stroke-miterlimit="4" />
		<path class="vector-data" d="M690.714188,205.907324C1107.136833,165.159130 1040.217362,428.106960 1025.121560,330.832691 C1008.910455,226.371642 1128.363187,347.463027 719.834712,405.578376 C403.002222,450.649483 403.145784,493.597341 351.388534,394.735391 C227.159232,157.443972 274.291542,246.655517 690.714188,205.907324 L 690.714188,205.907324 ZM690.714188,205.907324C1107.136833,165.159130 1040.217362,428.106960 1025.121560,330.832691 C1008.910455,226.371642 1128.363187,347.463027 719.834712,405.578376 C403.002222,450.649483 403.145784,493.597341 351.388534,394.735391 C227.159232,157.443972 274.291542,246.655517 690.714188,205.907324 L 690.714188,205.907324 Z" fill="#09013E" stroke="#000000" stroke-opacity="0.000" stroke-width="5" stroke-dasharray="none" stroke-dashoffset="0" stroke-linecap="butt" stroke-linejoin="miter" stroke-miterlimit="4" />
		<path class="vector-data" d="M659.852845,433.954423C1131.057384,426.554750 1153.541259,390.782668 1277.329557,519.425410 C1376.956593,622.959389 1469.080059,660.204259 1058.681282,682.638634 C564.057569,709.677149 504.561961,711.284446 451.463207,567.969841 C412.468674,462.722814 285.151016,439.838643 659.852845,433.954423 L 659.852845,433.954423 ZM659.852845,433.954423C1131.057384,426.554750 1153.541259,390.782668 1277.329557,519.425410 C1376.956593,622.959389 1469.080059,660.204259 1058.681282,682.638634 C564.057569,709.677149 504.561961,711.284446 451.463207,567.969841 C412.468674,462.722814 285.151016,439.838643 659.852845,433.954423 L 659.852845,433.954423 Z" fill="#09023E" stroke="#000000" stroke-opacity="0.000" stroke-width="5" stroke-dasharray="none" stroke-dashoffset="0" stroke-linecap="butt" stroke-linejoin="miter" stroke-miterlimit="4" />
		<path class="vector-data" d="M681.178103,169.657410C1218.919926,164.290704 1097.810955,131.171812 1161.806420,374.627473 C1189.515879,480.041576 1202.342974,409.115304 713.603809,453.408341 C397.630818,482.044073 415.247549,470.527597 368.937674,342.238237 C323.229518,215.615781 169.905508,174.759951 681.178103,169.657410 L 681.178103,169.657410 ZM681.178103,169.657410C1218.919926,164.290704 1097.810955,131.171812 1161.806420,374.627473 C1189.515879,480.041576 1202.342974,409.115304 713.603809,453.408341 C397.630818,482.044073 415.247549,470.527597 368.937674,342.238237 C323.229518,215.615781 169.905508,174.759951 681.178103,169.657410 L 681.178103,169.657410 Z" fill="#FFFFFF" stroke="#000000" stroke-opacity="0.000" stroke-width="5" stroke-dasharray="none" stroke-dashoffset="0" stroke-linecap="butt" stroke-linejoin="miter" stroke-miterlimit="4" />
		<path class="vector-data" d="M700.504585,433.954423C1171.709123,426.554750 1194.192998,390.782668 1317.981297,519.425410 C1417.608333,622.959389 1509.731798,660.204259 1099.333021,682.638634 C604.709308,709.677149 582.533170,660.204259 504.551173,567.861306 C416.735191,463.873366 325.802756,439.838643 700.504585,433.954423 L 700.504585,433.954423 ZM700.504585,433.954423C1171.709123,426.554750 1194.192998,390.782668 1317.981297,519.425410 C1417.608333,622.959389 1509.731798,660.204259 1099.333021,682.638634 C604.709308,709.677149 582.533170,660.204259 504.551173,567.861306 C416.735191,463.873366 325.802756,439.838643 700.504585,433.954423 L 700.504585,433.954423 Z" fill="#FFFFFF" stroke="#000000" stroke-opacity="0.000" stroke-width="5" stroke-dasharray="none" stroke-dashoffset="0" stroke-linecap="butt" stroke-linejoin="miter" stroke-miterlimit="4" />
		<path class="vector-data" d="M535.207182,472.183100C535.207182,472.183100 1105.319179,466.336830 1105.319179,466.336830 C1105.319179,466.336830 1157.676404,503.211100 1157.676404,503.211100 C1157.676404,503.211100 598.283714,515.814120 598.283714,515.814120 C598.283714,515.814120 535.207182,472.183100 535.207182,472.183100 L 535.207182,472.183100 ZM535.207182,472.183100C535.207182,472.183100 1105.319179,466.336830 1105.319179,466.336830 C1105.319179,466.336830 1157.676404,503.211100 1157.676404,503.211100 C1157.676404,503.211100 598.283714,515.814120 598.283714,515.814120 C598.283714,515.814120 535.207182,472.183100 535.207182,472.183100 L 535.207182,472.183100 Z" fill="#09023E" stroke="#000000" stroke-width="5" stroke-dasharray="none" stroke-dashoffset="0" stroke-linecap="butt" stroke-linejoin="miter" stroke-miterlimit="4" />
		<path class="vector-data" d="M603.637211,530.001672C603.637211,530.001672 1173.749209,524.155401 1173.749209,524.155401 C1173.749209,524.155401 1226.106433,561.029672 1226.106433,561.029672 C1226.106433,561.029672 666.713743,573.632692 666.713743,573.632692 C666.713743,573.632692 603.637211,530.001672 603.637211,530.001672 L 603.637211,530.001672 ZM603.637211,530.001672C603.637211,530.001672 1173.749209,524.155401 1173.749209,524.155401 C1173.749209,524.155401 1226.106433,561.029672 1226.106433,561.029672 C1226.106433,561.029672 666.713743,573.632692 666.713743,573.632692 C666.713743,573.632692 603.637211,530.001672 603.637211,530.001672 L 603.637211,530.001672 Z" fill="#09023E" stroke="#000000" stroke-width="5" stroke-dasharray="none" stroke-dashoffset="0" stroke-linecap="butt" stroke-linejoin="miter" stroke-miterlimit="4" />
		<path class="vector-data" d="M763.004117,579.478962C763.004117,579.478962 1187.153902,573.632692 1187.153902,573.632692 C1187.153902,573.632692 1226.106433,610.506962 1226.106433,610.506962 C1226.106433,610.506962 809.931559,623.109982 809.931559,623.109982 C809.931559,623.109982 763.004117,579.478962 763.004117,579.478962 L 763.004117,579.478962 ZM763.004117,579.478962C763.004117,579.478962 1187.153902,573.632692 1187.153902,573.632692 C1187.153902,573.632692 1226.106433,610.506962 1226.106433,610.506962 C1226.106433,610.506962 809.931559,623.109982 809.931559,623.109982 C809.931559,623.109982 763.004117,579.478962 763.004117,579.478962 L 763.004117,579.478962 Z" fill="#09023E" stroke="#000000" stroke-width="5" stroke-dasharray="none" stroke-dashoffset="0" stroke-linecap="butt" stroke-linejoin="miter" stroke-miterlimit="4" />
		<path class="vector-data" d="M435.049985,852.881287C419.811736,852.881287 407.597572,845.072160 407.597572,845.072160 C395.383409,837.263033 388.274844,822.953572 388.274844,822.953572 C381.166280,808.644110 381.166280,789.186733 381.166280,789.186733 C381.166280,769.903861 388.510487,755.681652 388.510487,755.681652 C395.854695,741.459444 408.697240,733.650317 408.697240,733.650317 C421.539785,725.841190 438.034796,725.841190 438.034796,725.841190 C446.910684,725.841190 454.961820,727.891631 454.961820,727.891631 C463.012957,729.942072 468.982580,732.821415 468.982580,732.821415 C468.982580,732.821415 467.568722,747.305382 467.568722,747.305382 C461.127813,744.513292 453.901427,742.680983 453.901427,742.680983 C446.675041,740.848674 438.506082,740.848674 438.506082,740.848674 C424.446049,740.848674 415.373792,747.349009 415.373792,747.349009 C406.301536,753.849343 401.902866,764.843198 401.902866,764.843198 C397.504196,775.837052 397.504196,789.361239 397.504196,789.361239 C397.504196,803.321689 401.981413,814.271917 401.981413,814.271917 C406.458631,825.222145 415.727257,831.547974 415.727257,831.547974 C424.995882,837.873803 439.291559,837.873803 439.291559,837.873803 C442.826205,837.873803 448.088899,837.175780 448.088899,837.175780 C453.351593,836.477758 457.671715,834.558196 457.671715,834.558196 C457.671715,834.558196 457.671715,804.194217 457.671715,804.194217 C457.671715,804.194217 440.391227,804.194217 440.391227,804.194217 C440.391227,804.194217 440.391227,789.186733 440.391227,789.186733 C440.391227,789.186733 472.595773,789.186733 472.595773,789.186733 C472.595773,789.186733 472.595773,843.632489 472.595773,843.632489 C466.154864,847.558865 456.572048,850.220076 456.572048,850.220076 C446.989231,852.881287 435.049985,852.881287 435.049985,852.881287 C435.049985,852.881287 435.049985,852.881287 435.049985,852.881287 L 435.049985,852.881287 ZM526.322383,852.183264C512.733635,852.183264 503.465010,845.988315 503.465010,845.988315 C494.196384,839.793365 489.444250,829.541159 489.444250,829.541159 C484.692115,819.288954 484.692115,806.986307 484.692115,806.986307 C484.692115,795.032671 489.130059,785.085851 489.130059,785.085851 C493.568003,775.139030 502.011878,769.162212 502.011878,769.162212 C510.455753,763.185394 522.394999,763.185394 522.394999,763.185394 C531.977816,763.185394 539.479119,767.417156 539.479119,767.417156 C546.980422,771.648917 551.261270,779.719803 551.261270,779.719803 C555.542118,787.790688 555.542118,799.308059 555.542118,799.308059 C555.542118,801.140368 555.424297,803.278062 555.424297,803.278062 C555.306475,805.415756 554.913737,807.684329 554.913737,807.684329 C554.913737,807.684329 499.144888,807.684329 499.144888,807.684329 C500.166007,819.550712 504.250487,826.181926 504.250487,826.181926 C508.334966,832.813140 514.540232,835.517977 514.540232,835.517977 C520.745498,838.222814 528.050432,838.222814 528.050432,838.222814 C533.391674,838.222814 539.204202,837.001275 539.204202,837.001275 C545.016730,835.779735 550.200876,833.162151 550.200876,833.162151 C550.200876,833.162151 552.086021,845.552050 552.086021,845.552050 C547.608803,847.733371 541.167894,849.958318 541.167894,849.958318 C534.726984,852.183264 526.322383,852.183264 526.322383,852.183264 C526.322383,852.183264 526.322383,852.183264 526.322383,852.183264 L 526.322383,852.183264 ZM500.401650,796.864981C500.401650,796.864981 540.932251,796.864981 540.932251,796.864981 C540.932251,790.844536 538.890011,786.394643 538.890011,786.394643 C536.847772,781.944749 532.684745,779.545297 532.684745,779.545297 C528.521718,777.145845 522.080809,777.145845 522.080809,777.145845 C512.655088,777.145845 507.588763,782.337387 507.588763,782.337387 C502.522438,787.528929 500.401650,796.864981 500.401650,796.864981 C500.401650,796.864981 500.401650,796.864981 500.401650,796.864981 L 500.401650,796.864981 ZM591.674049,852.183264C581.462851,852.183264 574.747025,849.478427 574.747025,849.478427 C568.031199,846.773590 565.282030,844.679522 565.282030,844.679522 C565.282030,844.679522 567.010079,829.497533 567.010079,829.497533 C569.523605,831.940612 575.885966,835.081713 575.885966,835.081713 C582.248328,838.222814 591.045668,838.222814 591.045668,838.222814 C598.507697,838.222814 602.474354,835.430724 602.474354,835.430724 C606.441012,832.638634 606.441012,827.577971 606.441012,827.577971 C606.441012,823.128077 603.888212,820.379614 603.888212,820.379614 C601.335413,817.631150 597.761494,816.016973 597.761494,816.016973 C594.187575,814.402796 591.045668,813.443015 591.045668,813.443015 C585.782973,811.872464 580.166815,809.473012 580.166815,809.473012 C574.550656,807.073560 570.701820,802.274655 570.701820,802.274655 C566.852984,797.475750 566.852984,788.837722 566.852984,788.837722 C566.852984,782.293761 569.680700,776.404196 569.680700,776.404196 C572.508416,770.514631 578.870778,766.850013 578.870778,766.850013 C585.233140,763.185394 595.758528,763.185394 595.758528,763.185394 C603.456200,763.185394 608.286882,764.974077 608.286882,764.974077 C613.117564,766.762760 616.652210,768.769575 616.652210,768.769575 C616.652210,768.769575 614.924161,783.079036 614.924161,783.079036 C611.546611,779.937935 607.069393,777.756614 607.069393,777.756614 C602.592176,775.575294 596.072719,775.575294 596.072719,775.575294 C589.474714,775.575294 585.311687,778.323758 585.311687,778.323758 C581.148660,781.072221 581.148660,787.092665 581.148660,787.092665 C581.148660,793.113110 585.586604,795.643441 585.586604,795.643441 C590.024548,798.173773 599.057530,801.227621 599.057530,801.227621 C601.885247,802.100149 605.616261,803.757953 605.616261,803.757953 C609.347276,805.415756 612.881921,808.207846 612.881921,808.207846 C616.416567,810.999936 618.733723,815.493456 618.733723,815.493456 C621.050879,819.986976 621.050879,826.705443 621.050879,826.705443 C621.050879,832.376876 618.615902,838.266441 618.615902,838.266441 C616.180924,844.156005 609.818562,848.169635 609.818562,848.169635 C603.456200,852.183264 591.674049,852.183264 591.674049,852.183264 C591.674049,852.183264 591.674049,852.183264 591.674049,852.183264 L 591.674049,852.183264 ZM661.424384,852.183264C654.119451,852.183264 649.720781,849.216669 649.720781,849.216669 C645.322111,846.250073 643.319145,841.582047 643.319145,841.582047 C641.316180,836.914022 641.316180,831.766106 641.316180,831.766106 C641.316180,831.766106 641.316180,777.145845 641.316180,777.145845 C641.316180,777.145845 628.120170,777.145845 628.120170,777.145845 C628.120170,777.145845 629.376933,764.930451 629.376933,764.930451 C629.376933,764.930451 641.316180,764.930451 641.316180,764.930451 C641.316180,764.930451 641.316180,743.815270 641.316180,743.815270 C641.316180,743.815270 655.454761,742.244719 655.454761,742.244719 C655.454761,742.244719 655.454761,764.930451 655.454761,764.930451 C655.454761,764.930451 675.720061,764.930451 675.720061,764.930451 C675.720061,764.930451 675.720061,777.145845 675.720061,777.145845 C675.720061,777.145845 655.454761,777.145845 655.454761,777.145845 C655.454761,777.145845 655.454761,822.168296 655.454761,822.168296 C655.454761,830.370061 656.318786,834.034679 656.318786,834.034679 C657.182810,837.699297 660.599634,838.659078 660.599634,838.659078 C664.016458,839.618859 671.635582,839.618859 671.635582,839.618859 C671.635582,839.618859 675.248775,839.618859 675.248775,839.618859 C675.248775,839.618859 674.149108,852.183264 674.149108,852.183264 C674.149108,852.183264 661.424384,852.183264 661.424384,852.183264 C661.424384,852.183264 661.424384,852.183264 661.424384,852.183264 L 661.424384,852.183264 ZM687.816403,850.438208C687.816403,850.438208 687.816403,764.930451 687.816403,764.930451 C687.816403,764.930451 701.954985,764.930451 701.954985,764.930451 C701.954985,764.930451 701.954985,850.438208 701.954985,850.438208 C701.954985,850.438208 687.816403,850.438208 687.816403,850.438208 C687.816403,850.438208 687.816403,850.438208 687.816403,850.438208 L 687.816403,850.438208 ZM687.816403,745.734832C687.816403,745.734832 687.816403,728.284269 687.816403,728.284269 C687.816403,728.284269 701.954985,728.284269 701.954985,728.284269 C701.954985,728.284269 701.954985,745.734832 701.954985,745.734832 C701.954985,745.734832 687.816403,745.734832 687.816403,745.734832 C687.816403,745.734832 687.816403,745.734832 687.816403,745.734832 L 687.816403,745.734832 ZM754.739023,852.183264C742.642681,852.183264 734.120258,846.206447 734.120258,846.206447 C725.597835,840.229629 721.081344,830.151929 721.081344,830.151929 C716.564852,820.074229 716.564852,807.684329 716.564852,807.684329 C716.564852,795.294430 721.081344,785.216730 721.081344,785.216730 C725.597835,775.139030 734.120258,769.162212 734.120258,769.162212 C742.642681,763.185394 754.739023,763.185394 754.739023,763.185394 C766.756817,763.185394 775.318513,769.162212 775.318513,769.162212 C783.880210,775.139030 788.396701,785.216730 788.396701,785.216730 C792.913193,795.294430 792.913193,807.684329 792.913193,807.684329 C792.913193,820.074229 788.396701,830.151929 788.396701,830.151929 C783.880210,840.229629 775.318513,846.206447 775.318513,846.206447 C766.756817,852.183264 754.739023,852.183264 754.739023,852.183264 C754.739023,852.183264 754.739023,852.183264 754.739023,852.183264 L 754.739023,852.183264 ZM754.739023,838.222814C766.206983,838.222814 772.333702,830.151929 772.333702,830.151929 C778.460420,822.081044 778.460420,807.684329 778.460420,807.684329 C778.460420,793.287615 772.333702,785.216730 772.333702,785.216730 C766.206983,777.145845 754.739023,777.145845 754.739023,777.145845 C743.349610,777.145845 737.183617,785.216730 737.183617,785.216730 C731.017625,793.287615 731.017625,807.684329 731.017625,807.684329 C731.017625,822.081044 737.183617,830.151929 737.183617,830.151929 C743.349610,838.222814 754.739023,838.222814 754.739023,838.222814 C754.739023,838.222814 754.739023,838.222814 754.739023,838.222814 L 754.739023,838.222814 ZM807.523060,850.438208C807.523060,850.438208 807.523060,728.284269 807.523060,728.284269 C807.523060,728.284269 843.812086,728.284269 843.812086,728.284269 C854.887308,728.284269 863.291910,732.210646 863.291910,732.210646 C871.696511,736.137022 876.370098,744.862304 876.370098,744.862304 C881.043684,753.587585 881.043684,767.897046 881.043684,767.897046 C881.043684,781.944749 876.370098,790.713657 876.370098,790.713657 C871.696511,799.482565 863.291910,803.583447 863.291910,803.583447 C854.887308,807.684329 843.812086,807.684329 843.812086,807.684329 C843.812086,807.684329 823.232595,807.684329 823.232595,807.684329 C823.232595,807.684329 823.232595,850.438208 823.232595,850.438208 C823.232595,850.438208 807.523060,850.438208 807.523060,850.438208 C807.523060,850.438208 807.523060,850.438208 807.523060,850.438208 L 807.523060,850.438208 ZM823.232595,792.851351C823.232595,792.851351 841.612751,792.851351 841.612751,792.851351 C853.630546,792.851351 859.639443,786.787281 859.639443,786.787281 C865.648340,780.723210 865.648340,768.071552 865.648340,768.071552 C865.648340,755.332641 859.953633,749.224944 859.953633,749.224944 C854.258927,743.117247 841.612751,743.117247 841.612751,743.117247 C841.612751,743.117247 823.232595,743.117247 823.232595,743.117247 C823.232595,743.117247 823.232595,792.851351 823.232595,792.851351 C823.232595,792.851351 823.232595,792.851351 823.232595,792.851351 L 823.232595,792.851351 ZM893.140026,850.438208C893.140026,850.438208 893.140026,764.930451 893.140026,764.930451 C893.140026,764.930451 904.765082,764.930451 904.765082,764.930451 C904.765082,764.930451 906.493131,779.065407 906.493131,779.065407 C912.384207,770.950895 917.764722,767.068145 917.764722,767.068145 C923.145238,763.185394 929.271957,763.185394 929.271957,763.185394 C931.235649,763.185394 932.885150,763.708911 932.885150,763.708911 C932.885150,763.708911 931.471292,780.984968 931.471292,780.984968 C930.450172,780.723210 929.311231,780.592331 929.311231,780.592331 C928.172289,780.461452 926.758431,780.461452 926.758431,780.461452 C920.631712,780.461452 915.486840,783.471674 915.486840,783.471674 C910.341967,786.481896 908.221180,790.059261 908.221180,790.059261 C908.221180,790.059261 908.221180,850.438208 908.221180,850.438208 C908.221180,850.438208 893.140026,850.438208 893.140026,850.438208 C893.140026,850.438208 893.140026,850.438208 893.140026,850.438208 L 893.140026,850.438208 ZM974.358322,852.183264C962.261980,852.183264 953.739558,846.206447 953.739558,846.206447 C945.217135,840.229629 940.700643,830.151929 940.700643,830.151929 C936.184152,820.074229 936.184152,807.684329 936.184152,807.684329 C936.184152,795.294430 940.700643,785.216730 940.700643,785.216730 C945.217135,775.139030 953.739558,769.162212 953.739558,769.162212 C962.261980,763.185394 974.358322,763.185394 974.358322,763.185394 C986.376117,763.185394 994.937813,769.162212 994.937813,769.162212 C1003.499510,775.139030 1008.016001,785.216730 1008.016001,785.216730 C1012.532492,795.294430 1012.532492,807.684329 1012.532492,807.684329 C1012.532492,820.074229 1008.016001,830.151929 1008.016001,830.151929 C1003.499510,840.229629 994.937813,846.206447 994.937813,846.206447 C986.376117,852.183264 974.358322,852.183264 974.358322,852.183264 C974.358322,852.183264 974.358322,852.183264 974.358322,852.183264 L 974.358322,852.183264 ZM974.358322,838.222814C985.826283,838.222814 991.953002,830.151929 991.953002,830.151929 C998.079720,822.081044 998.079720,807.684329 998.079720,807.684329 C998.079720,793.287615 991.953002,785.216730 991.953002,785.216730 C985.826283,777.145845 974.358322,777.145845 974.358322,777.145845 C962.968909,777.145845 956.802917,785.216730 956.802917,785.216730 C950.636924,793.287615 950.636924,807.684329 950.636924,807.684329 C950.636924,822.081044 956.802917,830.151929 956.802917,830.151929 C962.968909,838.222814 974.358322,838.222814 974.358322,838.222814 C974.358322,838.222814 974.358322,838.222814 974.358322,838.222814 L 974.358322,838.222814 ZM1058.247239,894.064615C1047.721851,894.064615 1039.435071,891.185272 1039.435071,891.185272 C1031.148291,888.305929 1026.396157,882.634496 1026.396157,882.634496 C1021.644023,876.963063 1021.644023,868.586793 1021.644023,868.586793 C1021.644023,861.606568 1025.217942,856.589531 1025.217942,856.589531 C1028.791861,851.572495 1034.997127,848.518646 1034.997127,848.518646 C1031.305387,846.511831 1029.380969,843.763368 1029.380969,843.763368 C1027.456551,841.014904 1027.456551,837.699297 1027.456551,837.699297 C1027.456551,833.772921 1029.616612,830.588193 1029.616612,830.588193 C1031.776673,827.403465 1036.568081,825.309398 1036.568081,825.309398 C1030.127172,820.859504 1026.671074,813.312136 1026.671074,813.312136 C1023.214976,805.764767 1023.214976,796.515969 1023.214976,796.515969 C1023.214976,787.179918 1026.985265,779.632550 1026.985265,779.632550 C1030.755553,772.085181 1037.864118,767.635288 1037.864118,767.635288 C1044.972682,763.185394 1054.948237,763.185394 1054.948237,763.185394 C1060.289479,763.185394 1065.041613,764.930451 1065.041613,764.930451 C1069.793748,766.675507 1073.799679,769.816608 1073.799679,769.816608 C1077.334324,767.548035 1082.165006,766.064737 1082.165006,766.064737 C1086.995688,764.581439 1092.965312,764.581439 1092.965312,764.581439 C1093.358050,764.581439 1093.632967,764.581439 1093.632967,764.581439 C1093.907884,764.581439 1094.222075,764.581439 1094.222075,764.581439 C1094.222075,764.581439 1092.494026,775.051777 1092.494026,775.051777 C1091.551454,775.051777 1090.687429,775.051777 1090.687429,775.051777 C1089.823405,775.051777 1088.880833,775.051777 1088.880833,775.051777 C1088.095356,775.051777 1085.267640,775.313536 1085.267640,775.313536 C1082.439923,775.575294 1080.083493,776.273317 1080.083493,776.273317 C1083.303948,780.461452 1085.071270,785.652994 1085.071270,785.652994 C1086.838593,790.844536 1086.838593,796.515969 1086.838593,796.515969 C1086.838593,806.288284 1083.029031,814.010158 1083.029031,814.010158 C1079.219469,821.732032 1072.071630,826.225552 1072.071630,826.225552 C1064.923792,830.719072 1054.948237,830.719072 1054.948237,830.719072 C1052.120521,830.719072 1049.528447,830.326435 1049.528447,830.326435 C1046.936374,829.933797 1044.579944,829.148522 1044.579944,829.148522 C1040.966751,830.457314 1040.966751,833.685668 1040.966751,833.685668 C1040.966751,835.605230 1043.008990,837.044901 1043.008990,837.044901 C1045.051230,838.484573 1049.606995,839.269848 1049.606995,839.269848 C1049.606995,839.269848 1070.186486,842.934466 1070.186486,842.934466 C1082.675566,845.115786 1089.469940,850.961725 1089.469940,850.961725 C1096.264314,856.807663 1096.264314,867.539760 1096.264314,867.539760 C1096.264314,876.439547 1091.590727,882.329111 1091.590727,882.329111 C1086.917141,888.218676 1078.355444,891.141646 1078.355444,891.141646 C1069.793748,894.064615 1058.247239,894.064615 1058.247239,894.064615 C1058.247239,894.064615 1058.247239,894.064615 1058.247239,894.064615 L 1058.247239,894.064615 ZM1059.504002,880.104165C1070.343581,880.104165 1076.156109,877.006690 1076.156109,877.006690 C1081.968637,873.909215 1081.968637,867.888771 1081.968637,867.888771 C1081.968637,863.177119 1078.316170,860.472282 1078.316170,860.472282 C1074.663703,857.767444 1067.830056,856.371399 1067.830056,856.371399 C1067.830056,856.371399 1045.915254,852.270517 1045.915254,852.270517 C1041.595132,854.364585 1038.374678,857.898324 1038.374678,857.898324 C1035.154223,861.432063 1035.154223,866.143715 1035.154223,866.143715 C1035.154223,873.472951 1041.791501,876.788558 1041.791501,876.788558 C1048.428780,880.104165 1059.504002,880.104165 1059.504002,880.104165 C1059.504002,880.104165 1059.504002,880.104165 1059.504002,880.104165 L 1059.504002,880.104165 ZM1054.948237,818.154667C1063.902672,818.154667 1068.615532,812.177849 1068.615532,812.177849 C1073.328393,806.201032 1073.328393,796.690475 1073.328393,796.690475 C1073.328393,787.528929 1068.615532,781.639365 1068.615532,781.639365 C1063.902672,775.749800 1054.948237,775.749800 1054.948237,775.749800 C1045.993802,775.749800 1041.359489,781.639365 1041.359489,781.639365 C1036.725176,787.528929 1036.725176,796.690475 1036.725176,796.690475 C1036.725176,806.201032 1041.359489,812.177849 1041.359489,812.177849 C1045.993802,818.154667 1054.948237,818.154667 1054.948237,818.154667 C1054.948237,818.154667 1054.948237,818.154667 1054.948237,818.154667 L 1054.948237,818.154667 ZM1105.375844,850.438208C1105.375844,850.438208 1105.375844,764.930451 1105.375844,764.930451 C1105.375844,764.930451 1117.000900,764.930451 1117.000900,764.930451 C1117.000900,764.930451 1118.728949,779.065407 1118.728949,779.065407 C1124.620025,770.950895 1130.000541,767.068145 1130.000541,767.068145 C1135.381056,763.185394 1141.507775,763.185394 1141.507775,763.185394 C1143.471467,763.185394 1145.120968,763.708911 1145.120968,763.708911 C1145.120968,763.708911 1143.707110,780.984968 1143.707110,780.984968 C1142.685990,780.723210 1141.547049,780.592331 1141.547049,780.592331 C1140.408108,780.461452 1138.994249,780.461452 1138.994249,780.461452 C1132.867531,780.461452 1127.722658,783.471674 1127.722658,783.471674 C1122.577785,786.481896 1120.456998,790.059261 1120.456998,790.059261 C1120.456998,790.059261 1120.456998,850.438208 1120.456998,850.438208 C1120.456998,850.438208 1105.375844,850.438208 1105.375844,850.438208 C1105.375844,850.438208 1105.375844,850.438208 1105.375844,850.438208 L 1105.375844,850.438208 ZM1189.893143,852.183264C1176.304395,852.183264 1167.035769,845.988315 1167.035769,845.988315 C1157.767144,839.793365 1153.015009,829.541159 1153.015009,829.541159 C1148.262875,819.288954 1148.262875,806.986307 1148.262875,806.986307 C1148.262875,795.032671 1152.700819,785.085851 1152.700819,785.085851 C1157.138762,775.139030 1165.582637,769.162212 1165.582637,769.162212 C1174.026513,763.185394 1185.965759,763.185394 1185.965759,763.185394 C1195.548576,763.185394 1203.049878,767.417156 1203.049878,767.417156 C1210.551181,771.648917 1214.832030,779.719803 1214.832030,779.719803 C1219.112878,787.790688 1219.112878,799.308059 1219.112878,799.308059 C1219.112878,801.140368 1218.995057,803.278062 1218.995057,803.278062 C1218.877235,805.415756 1218.484497,807.684329 1218.484497,807.684329 C1218.484497,807.684329 1162.715647,807.684329 1162.715647,807.684329 C1163.736767,819.550712 1167.821246,826.181926 1167.821246,826.181926 C1171.905725,832.813140 1178.110992,835.517977 1178.110992,835.517977 C1184.316258,838.222814 1191.621192,838.222814 1191.621192,838.222814 C1196.962434,838.222814 1202.774962,837.001275 1202.774962,837.001275 C1208.587490,835.779735 1213.771636,833.162151 1213.771636,833.162151 C1213.771636,833.162151 1215.656780,845.552050 1215.656780,845.552050 C1211.179563,847.733371 1204.738653,849.958318 1204.738653,849.958318 C1198.297744,852.183264 1189.893143,852.183264 1189.893143,852.183264 C1189.893143,852.183264 1189.893143,852.183264 1189.893143,852.183264 L 1189.893143,852.183264 ZM1163.972410,796.864981C1163.972410,796.864981 1204.503010,796.864981 1204.503010,796.864981 C1204.503010,790.844536 1202.460771,786.394643 1202.460771,786.394643 C1200.418531,781.944749 1196.255505,779.545297 1196.255505,779.545297 C1192.092478,777.145845 1185.651568,777.145845 1185.651568,777.145845 C1176.225847,777.145845 1171.159522,782.337387 1171.159522,782.337387 C1166.093197,787.528929 1163.972410,796.864981 1163.972410,796.864981 C1163.972410,796.864981 1163.972410,796.864981 1163.972410,796.864981 L 1163.972410,796.864981 ZM1255.244809,852.183264C1245.033611,852.183264 1238.317785,849.478427 1238.317785,849.478427 C1231.601958,846.773590 1228.852790,844.679522 1228.852790,844.679522 C1228.852790,844.679522 1230.580839,829.497533 1230.580839,829.497533 C1233.094364,831.940612 1239.456726,835.081713 1239.456726,835.081713 C1245.819088,838.222814 1254.616427,838.222814 1254.616427,838.222814 C1262.078456,838.222814 1266.045114,835.430724 1266.045114,835.430724 C1270.011772,832.638634 1270.011772,827.577971 1270.011772,827.577971 C1270.011772,823.128077 1267.458972,820.379614 1267.458972,820.379614 C1264.906173,817.631150 1261.332253,816.016973 1261.332253,816.016973 C1257.758334,814.402796 1254.616427,813.443015 1254.616427,813.443015 C1249.353733,811.872464 1243.737574,809.473012 1243.737574,809.473012 C1238.121415,807.073560 1234.272579,802.274655 1234.272579,802.274655 C1230.423743,797.475750 1230.423743,788.837722 1230.423743,788.837722 C1230.423743,782.293761 1233.251460,776.404196 1233.251460,776.404196 C1236.079176,770.514631 1242.441538,766.850013 1242.441538,766.850013 C1248.803899,763.185394 1259.329288,763.185394 1259.329288,763.185394 C1267.026960,763.185394 1271.857642,764.974077 1271.857642,764.974077 C1276.688324,766.762760 1280.222969,768.769575 1280.222969,768.769575 C1280.222969,768.769575 1278.494920,783.079036 1278.494920,783.079036 C1275.117370,779.937935 1270.640153,777.756614 1270.640153,777.756614 C1266.162935,775.575294 1259.643478,775.575294 1259.643478,775.575294 C1253.045474,775.575294 1248.882447,778.323758 1248.882447,778.323758 C1244.719420,781.072221 1244.719420,787.092665 1244.719420,787.092665 C1244.719420,793.113110 1249.157364,795.643441 1249.157364,795.643441 C1253.595307,798.173773 1262.628290,801.227621 1262.628290,801.227621 C1265.456006,802.100149 1269.187021,803.757953 1269.187021,803.757953 C1272.918036,805.415756 1276.452681,808.207846 1276.452681,808.207846 C1279.987326,810.999936 1282.304483,815.493456 1282.304483,815.493456 C1284.621639,819.986976 1284.621639,826.705443 1284.621639,826.705443 C1284.621639,832.376876 1282.186661,838.266441 1282.186661,838.266441 C1279.751683,844.156005 1273.389322,848.169635 1273.389322,848.169635 C1267.026960,852.183264 1255.244809,852.183264 1255.244809,852.183264 C1255.244809,852.183264 1255.244809,852.183264 1255.244809,852.183264 L 1255.244809,852.183264 ZM1320.282284,852.183264C1310.071086,852.183264 1303.355260,849.478427 1303.355260,849.478427 C1296.639433,846.773590 1293.890265,844.679522 1293.890265,844.679522 C1293.890265,844.679522 1295.618314,829.497533 1295.618314,829.497533 C1298.131839,831.940612 1304.494201,835.081713 1304.494201,835.081713 C1310.856563,838.222814 1319.653902,838.222814 1319.653902,838.222814 C1327.115931,838.222814 1331.082589,835.430724 1331.082589,835.430724 C1335.049247,832.638634 1335.049247,827.577971 1335.049247,827.577971 C1335.049247,823.128077 1332.496447,820.379614 1332.496447,820.379614 C1329.943648,817.631150 1326.369728,816.016973 1326.369728,816.016973 C1322.795809,814.402796 1319.653902,813.443015 1319.653902,813.443015 C1314.391208,811.872464 1308.775049,809.473012 1308.775049,809.473012 C1303.158890,807.073560 1299.310054,802.274655 1299.310054,802.274655 C1295.461218,797.475750 1295.461218,788.837722 1295.461218,788.837722 C1295.461218,782.293761 1298.288935,776.404196 1298.288935,776.404196 C1301.116651,770.514631 1307.479013,766.850013 1307.479013,766.850013 C1313.841374,763.185394 1324.366763,763.185394 1324.366763,763.185394 C1332.064435,763.185394 1336.895117,764.974077 1336.895117,764.974077 C1341.725799,766.762760 1345.260444,768.769575 1345.260444,768.769575 C1345.260444,768.769575 1343.532395,783.079036 1343.532395,783.079036 C1340.154845,779.937935 1335.677628,777.756614 1335.677628,777.756614 C1331.200410,775.575294 1324.680953,775.575294 1324.680953,775.575294 C1318.082949,775.575294 1313.919922,778.323758 1313.919922,778.323758 C1309.756895,781.072221 1309.756895,787.092665 1309.756895,787.092665 C1309.756895,793.113110 1314.194839,795.643441 1314.194839,795.643441 C1318.632782,798.173773 1327.665765,801.227621 1327.665765,801.227621 C1330.493481,802.100149 1334.224496,803.757953 1334.224496,803.757953 C1337.955511,805.415756 1341.490156,808.207846 1341.490156,808.207846 C1345.024801,810.999936 1347.341958,815.493456 1347.341958,815.493456 C1349.659114,819.986976 1349.659114,826.705443 1349.659114,826.705443 C1349.659114,832.376876 1347.224136,838.266441 1347.224136,838.266441 C1344.789158,844.156005 1338.426797,848.169635 1338.426797,848.169635 C1332.064435,852.183264 1320.282284,852.183264 1320.282284,852.183264 C1320.282284,852.183264 1320.282284,852.183264 1320.282284,852.183264 L 1320.282284,852.183264 ZM1363.483505,850.438208C1363.483505,850.438208 1363.483505,764.930451 1363.483505,764.930451 C1363.483505,764.930451 1377.622086,764.930451 1377.622086,764.930451 C1377.622086,764.930451 1377.622086,850.438208 1377.622086,850.438208 C1377.622086,850.438208 1363.483505,850.438208 1363.483505,850.438208 C1363.483505,850.438208 1363.483505,850.438208 1363.483505,850.438208 L 1363.483505,850.438208 ZM1363.483505,745.734832C1363.483505,745.734832 1363.483505,728.284269 1363.483505,728.284269 C1363.483505,728.284269 1377.622086,728.284269 1377.622086,728.284269 C1377.622086,728.284269 1377.622086,745.734832 1377.622086,745.734832 C1377.622086,745.734832 1363.483505,745.734832 1363.483505,745.734832 C1363.483505,745.734832 1363.483505,745.734832 1363.483505,745.734832 L 1363.483505,745.734832 ZM1430.406124,852.183264C1418.309782,852.183264 1409.787359,846.206447 1409.787359,846.206447 C1401.264937,840.229629 1396.748445,830.151929 1396.748445,830.151929 C1392.231954,820.074229 1392.231954,807.684329 1392.231954,807.684329 C1392.231954,795.294430 1396.748445,785.216730 1396.748445,785.216730 C1401.264937,775.139030 1409.787359,769.162212 1409.787359,769.162212 C1418.309782,763.185394 1430.406124,763.185394 1430.406124,763.185394 C1442.423918,763.185394 1450.985615,769.162212 1450.985615,769.162212 C1459.547312,775.139030 1464.063803,785.216730 1464.063803,785.216730 C1468.580294,795.294430 1468.580294,807.684329 1468.580294,807.684329 C1468.580294,820.074229 1464.063803,830.151929 1464.063803,830.151929 C1459.547312,840.229629 1450.985615,846.206447 1450.985615,846.206447 C1442.423918,852.183264 1430.406124,852.183264 1430.406124,852.183264 C1430.406124,852.183264 1430.406124,852.183264 1430.406124,852.183264 L 1430.406124,852.183264 ZM1430.406124,838.222814C1441.874085,838.222814 1448.000803,830.151929 1448.000803,830.151929 C1454.127522,822.081044 1454.127522,807.684329 1454.127522,807.684329 C1454.127522,793.287615 1448.000803,785.216730 1448.000803,785.216730 C1441.874085,777.145845 1430.406124,777.145845 1430.406124,777.145845 C1419.016711,777.145845 1412.850719,785.216730 1412.850719,785.216730 C1406.684726,793.287615 1406.684726,807.684329 1406.684726,807.684329 C1406.684726,822.081044 1412.850719,830.151929 1412.850719,830.151929 C1419.016711,838.222814 1430.406124,838.222814 1430.406124,838.222814 C1430.406124,838.222814 1430.406124,838.222814 1430.406124,838.222814 L 1430.406124,838.222814 ZM435.049985,852.881287C419.811736,852.881287 407.597572,845.072160 407.597572,845.072160 C395.383409,837.263033 388.274844,822.953572 388.274844,822.953572 C381.166280,808.644110 381.166280,789.186733 381.166280,789.186733 C381.166280,769.903861 388.510487,755.681652 388.510487,755.681652 C395.854695,741.459444 408.697240,733.650317 408.697240,733.650317 C421.539785,725.841190 438.034796,725.841190 438.034796,725.841190 C446.910684,725.841190 454.961820,727.891631 454.961820,727.891631 C463.012957,729.942072 468.982580,732.821415 468.982580,732.821415 C468.982580,732.821415 467.568722,747.305382 467.568722,747.305382 C461.127813,744.513292 453.901427,742.680983 453.901427,742.680983 C446.675041,740.848674 438.506082,740.848674 438.506082,740.848674 C424.446049,740.848674 415.373792,747.349009 415.373792,747.349009 C406.301536,753.849343 401.902866,764.843198 401.902866,764.843198 C397.504196,775.837052 397.504196,789.361239 397.504196,789.361239 C397.504196,803.321689 401.981413,814.271917 401.981413,814.271917 C406.458631,825.222145 415.727257,831.547974 415.727257,831.547974 C424.995882,837.873803 439.291559,837.873803 439.291559,837.873803 C442.826205,837.873803 448.088899,837.175780 448.088899,837.175780 C453.351593,836.477758 457.671715,834.558196 457.671715,834.558196 C457.671715,834.558196 457.671715,804.194217 457.671715,804.194217 C457.671715,804.194217 440.391227,804.194217 440.391227,804.194217 C440.391227,804.194217 440.391227,789.186733 440.391227,789.186733 C440.391227,789.186733 472.595773,789.186733 472.595773,789.186733 C472.595773,789.186733 472.595773,843.632489 472.595773,843.632489 C466.154864,847.558865 456.572048,850.220076 456.572048,850.220076 C446.989231,852.881287 435.049985,852.881287 435.049985,852.881287 C435.049985,852.881287 435.049985,852.881287 435.049985,852.881287 L 435.049985,852.881287 ZM526.322383,852.183264C512.733635,852.183264 503.465010,845.988315 503.465010,845.988315 C494.196384,839.793365 489.444250,829.541159 489.444250,829.541159 C484.692115,819.288954 484.692115,806.986307 484.692115,806.986307 C484.692115,795.032671 489.130059,785.085851 489.130059,785.085851 C493.568003,775.139030 502.011878,769.162212 502.011878,769.162212 C510.455753,763.185394 522.394999,763.185394 522.394999,763.185394 C531.977816,763.185394 539.479119,767.417156 539.479119,767.417156 C546.980422,771.648917 551.261270,779.719803 551.261270,779.719803 C555.542118,787.790688 555.542118,799.308059 555.542118,799.308059 C555.542118,801.140368 555.424297,803.278062 555.424297,803.278062 C555.306475,805.415756 554.913737,807.684329 554.913737,807.684329 C554.913737,807.684329 499.144888,807.684329 499.144888,807.684329 C500.166007,819.550712 504.250487,826.181926 504.250487,826.181926 C508.334966,832.813140 514.540232,835.517977 514.540232,835.517977 C520.745498,838.222814 528.050432,838.222814 528.050432,838.222814 C533.391674,838.222814 539.204202,837.001275 539.204202,837.001275 C545.016730,835.779735 550.200876,833.162151 550.200876,833.162151 C550.200876,833.162151 552.086021,845.552050 552.086021,845.552050 C547.608803,847.733371 541.167894,849.958318 541.167894,849.958318 C534.726984,852.183264 526.322383,852.183264 526.322383,852.183264 C526.322383,852.183264 526.322383,852.183264 526.322383,852.183264 L 526.322383,852.183264 ZM500.401650,796.864981C500.401650,796.864981 540.932251,796.864981 540.932251,796.864981 C540.932251,790.844536 538.890011,786.394643 538.890011,786.394643 C536.847772,781.944749 532.684745,779.545297 532.684745,779.545297 C528.521718,777.145845 522.080809,777.145845 522.080809,777.145845 C512.655088,777.145845 507.588763,782.337387 507.588763,782.337387 C502.522438,787.528929 500.401650,796.864981 500.401650,796.864981 C500.401650,796.864981 500.401650,796.864981 500.401650,796.864981 L 500.401650,796.864981 ZM591.674049,852.183264C581.462851,852.183264 574.747025,849.478427 574.747025,849.478427 C568.031199,846.773590 565.282030,844.679522 565.282030,844.679522 C565.282030,844.679522 567.010079,829.497533 567.010079,829.497533 C569.523605,831.940612 575.885966,835.081713 575.885966,835.081713 C582.248328,838.222814 591.045668,838.222814 591.045668,838.222814 C598.507697,838.222814 602.474354,835.430724 602.474354,835.430724 C606.441012,832.638634 606.441012,827.577971 606.441012,827.577971 C606.441012,823.128077 603.888212,820.379614 603.888212,820.379614 C601.335413,817.631150 597.761494,816.016973 597.761494,816.016973 C594.187575,814.402796 591.045668,813.443015 591.045668,813.443015 C585.782973,811.872464 580.166815,809.473012 580.166815,809.473012 C574.550656,807.073560 570.701820,802.274655 570.701820,802.274655 C566.852984,797.475750 566.852984,788.837722 566.852984,788.837722 C566.852984,782.293761 569.680700,776.404196 569.680700,776.404196 C572.508416,770.514631 578.870778,766.850013 578.870778,766.850013 C585.233140,763.185394 595.758528,763.185394 595.758528,763.185394 C603.456200,763.185394 608.286882,764.974077 608.286882,764.974077 C613.117564,766.762760 616.652210,768.769575 616.652210,768.769575 C616.652210,768.769575 614.924161,783.079036 614.924161,783.079036 C611.546611,779.937935 607.069393,777.756614 607.069393,777.756614 C602.592176,775.575294 596.072719,775.575294 596.072719,775.575294 C589.474714,775.575294 585.311687,778.323758 585.311687,778.323758 C581.148660,781.072221 581.148660,787.092665 581.148660,787.092665 C581.148660,793.113110 585.586604,795.643441 585.586604,795.643441 C590.024548,798.173773 599.057530,801.227621 599.057530,801.227621 C601.885247,802.100149 605.616261,803.757953 605.616261,803.757953 C609.347276,805.415756 612.881921,808.207846 612.881921,808.207846 C616.416567,810.999936 618.733723,815.493456 618.733723,815.493456 C621.050879,819.986976 621.050879,826.705443 621.050879,826.705443 C621.050879,832.376876 618.615902,838.266441 618.615902,838.266441 C616.180924,844.156005 609.818562,848.169635 609.818562,848.169635 C603.456200,852.183264 591.674049,852.183264 591.674049,852.183264 C591.674049,852.183264 591.674049,852.183264 591.674049,852.183264 L 591.674049,852.183264 ZM661.424384,852.183264C654.119451,852.183264 649.720781,849.216669 649.720781,849.216669 C645.322111,846.250073 643.319145,841.582047 643.319145,841.582047 C641.316180,836.914022 641.316180,831.766106 641.316180,831.766106 C641.316180,831.766106 641.316180,777.145845 641.316180,777.145845 C641.316180,777.145845 628.120170,777.145845 628.120170,777.145845 C628.120170,777.145845 629.376933,764.930451 629.376933,764.930451 C629.376933,764.930451 641.316180,764.930451 641.316180,764.930451 C641.316180,764.930451 641.316180,743.815270 641.316180,743.815270 C641.316180,743.815270 655.454761,742.244719 655.454761,742.244719 C655.454761,742.244719 655.454761,764.930451 655.454761,764.930451 C655.454761,764.930451 675.720061,764.930451 675.720061,764.930451 C675.720061,764.930451 675.720061,777.145845 675.720061,777.145845 C675.720061,777.145845 655.454761,777.145845 655.454761,777.145845 C655.454761,777.145845 655.454761,822.168296 655.454761,822.168296 C655.454761,830.370061 656.318786,834.034679 656.318786,834.034679 C657.182810,837.699297 660.599634,838.659078 660.599634,838.659078 C664.016458,839.618859 671.635582,839.618859 671.635582,839.618859 C671.635582,839.618859 675.248775,839.618859 675.248775,839.618859 C675.248775,839.618859 674.149108,852.183264 674.149108,852.183264 C674.149108,852.183264 661.424384,852.183264 661.424384,852.183264 C661.424384,852.183264 661.424384,852.183264 661.424384,852.183264 L 661.424384,852.183264 ZM687.816403,850.438208C687.816403,850.438208 687.816403,764.930451 687.816403,764.930451 C687.816403,764.930451 701.954985,764.930451 701.954985,764.930451 C701.954985,764.930451 701.954985,850.438208 701.954985,850.438208 C701.954985,850.438208 687.816403,850.438208 687.816403,850.438208 C687.816403,850.438208 687.816403,850.438208 687.816403,850.438208 L 687.816403,850.438208 ZM687.816403,745.734832C687.816403,745.734832 687.816403,728.284269 687.816403,728.284269 C687.816403,728.284269 701.954985,728.284269 701.954985,728.284269 C701.954985,728.284269 701.954985,745.734832 701.954985,745.734832 C701.954985,745.734832 687.816403,745.734832 687.816403,745.734832 C687.816403,745.734832 687.816403,745.734832 687.816403,745.734832 L 687.816403,745.734832 ZM754.739023,852.183264C742.642681,852.183264 734.120258,846.206447 734.120258,846.206447 C725.597835,840.229629 721.081344,830.151929 721.081344,830.151929 C716.564852,820.074229 716.564852,807.684329 716.564852,807.684329 C716.564852,795.294430 721.081344,785.216730 721.081344,785.216730 C725.597835,775.139030 734.120258,769.162212 734.120258,769.162212 C742.642681,763.185394 754.739023,763.185394 754.739023,763.185394 C766.756817,763.185394 775.318513,769.162212 775.318513,769.162212 C783.880210,775.139030 788.396701,785.216730 788.396701,785.216730 C792.913193,795.294430 792.913193,807.684329 792.913193,807.684329 C792.913193,820.074229 788.396701,830.151929 788.396701,830.151929 C783.880210,840.229629 775.318513,846.206447 775.318513,846.206447 C766.756817,852.183264 754.739023,852.183264 754.739023,852.183264 C754.739023,852.183264 754.739023,852.183264 754.739023,852.183264 L 754.739023,852.183264 ZM754.739023,838.222814C766.206983,838.222814 772.333702,830.151929 772.333702,830.151929 C778.460420,822.081044 778.460420,807.684329 778.460420,807.684329 C778.460420,793.287615 772.333702,785.216730 772.333702,785.216730 C766.206983,777.145845 754.739023,777.145845 754.739023,777.145845 C743.349610,777.145845 737.183617,785.216730 737.183617,785.216730 C731.017625,793.287615 731.017625,807.684329 731.017625,807.684329 C731.017625,822.081044 737.183617,830.151929 737.183617,830.151929 C743.349610,838.222814 754.739023,838.222814 754.739023,838.222814 C754.739023,838.222814 754.739023,838.222814 754.739023,838.222814 L 754.739023,838.222814 ZM807.523060,850.438208C807.523060,850.438208 807.523060,728.284269 807.523060,728.284269 C807.523060,728.284269 843.812086,728.284269 843.812086,728.284269 C854.887308,728.284269 863.291910,732.210646 863.291910,732.210646 C871.696511,736.137022 876.370098,744.862304 876.370098,744.862304 C881.043684,753.587585 881.043684,767.897046 881.043684,767.897046 C881.043684,781.944749 876.370098,790.713657 876.370098,790.713657 C871.696511,799.482565 863.291910,803.583447 863.291910,803.583447 C854.887308,807.684329 843.812086,807.684329 843.812086,807.684329 C843.812086,807.684329 823.232595,807.684329 823.232595,807.684329 C823.232595,807.684329 823.232595,850.438208 823.232595,850.438208 C823.232595,850.438208 807.523060,850.438208 807.523060,850.438208 C807.523060,850.438208 807.523060,850.438208 807.523060,850.438208 L 807.523060,850.438208 ZM823.232595,792.851351C823.232595,792.851351 841.612751,792.851351 841.612751,792.851351 C853.630546,792.851351 859.639443,786.787281 859.639443,786.787281 C865.648340,780.723210 865.648340,768.071552 865.648340,768.071552 C865.648340,755.332641 859.953633,749.224944 859.953633,749.224944 C854.258927,743.117247 841.612751,743.117247 841.612751,743.117247 C841.612751,743.117247 823.232595,743.117247 823.232595,743.117247 C823.232595,743.117247 823.232595,792.851351 823.232595,792.851351 C823.232595,792.851351 823.232595,792.851351 823.232595,792.851351 L 823.232595,792.851351 ZM893.140026,850.438208C893.140026,850.438208 893.140026,764.930451 893.140026,764.930451 C893.140026,764.930451 904.765082,764.930451 904.765082,764.930451 C904.765082,764.930451 906.493131,779.065407 906.493131,779.065407 C912.384207,770.950895 917.764722,767.068145 917.764722,767.068145 C923.145238,763.185394 929.271957,763.185394 929.271957,763.185394 C931.235649,763.185394 932.885150,763.708911 932.885150,763.708911 C932.885150,763.708911 931.471292,780.984968 931.471292,780.984968 C930.450172,780.723210 929.311231,780.592331 929.311231,780.592331 C928.172289,780.461452 926.758431,780.461452 926.758431,780.461452 C920.631712,780.461452 915.486840,783.471674 915.486840,783.471674 C910.341967,786.481896 908.221180,790.059261 908.221180,790.059261 C908.221180,790.059261 908.221180,850.438208 908.221180,850.438208 C908.221180,850.438208 893.140026,850.438208 893.140026,850.438208 C893.140026,850.438208 893.140026,850.438208 893.140026,850.438208 L 893.140026,850.438208 ZM974.358322,852.183264C962.261980,852.183264 953.739558,846.206447 953.739558,846.206447 C945.217135,840.229629 940.700643,830.151929 940.700643,830.151929 C936.184152,820.074229 936.184152,807.684329 936.184152,807.684329 C936.184152,795.294430 940.700643,785.216730 940.700643,785.216730 C945.217135,775.139030 953.739558,769.162212 953.739558,769.162212 C962.261980,763.185394 974.358322,763.185394 974.358322,763.185394 C986.376117,763.185394 994.937813,769.162212 994.937813,769.162212 C1003.499510,775.139030 1008.016001,785.216730 1008.016001,785.216730 C1012.532492,795.294430 1012.532492,807.684329 1012.532492,807.684329 C1012.532492,820.074229 1008.016001,830.151929 1008.016001,830.151929 C1003.499510,840.229629 994.937813,846.206447 994.937813,846.206447 C986.376117,852.183264 974.358322,852.183264 974.358322,852.183264 C974.358322,852.183264 974.358322,852.183264 974.358322,852.183264 L 974.358322,852.183264 ZM974.358322,838.222814C985.826283,838.222814 991.953002,830.151929 991.953002,830.151929 C998.079720,822.081044 998.079720,807.684329 998.079720,807.684329 C998.079720,793.287615 991.953002,785.216730 991.953002,785.216730 C985.826283,777.145845 974.358322,777.145845 974.358322,777.145845 C962.968909,777.145845 956.802917,785.216730 956.802917,785.216730 C950.636924,793.287615 950.636924,807.684329 950.636924,807.684329 C950.636924,822.081044 956.802917,830.151929 956.802917,830.151929 C962.968909,838.222814 974.358322,838.222814 974.358322,838.222814 C974.358322,838.222814 974.358322,838.222814 974.358322,838.222814 L 974.358322,838.222814 ZM1058.247239,894.064615C1047.721851,894.064615 1039.435071,891.185272 1039.435071,891.185272 C1031.148291,888.305929 1026.396157,882.634496 1026.396157,882.634496 C1021.644023,876.963063 1021.644023,868.586793 1021.644023,868.586793 C1021.644023,861.606568 1025.217942,856.589531 1025.217942,856.589531 C1028.791861,851.572495 1034.997127,848.518646 1034.997127,848.518646 C1031.305387,846.511831 1029.380969,843.763368 1029.380969,843.763368 C1027.456551,841.014904 1027.456551,837.699297 1027.456551,837.699297 C1027.456551,833.772921 1029.616612,830.588193 1029.616612,830.588193 C1031.776673,827.403465 1036.568081,825.309398 1036.568081,825.309398 C1030.127172,820.859504 1026.671074,813.312136 1026.671074,813.312136 C1023.214976,805.764767 1023.214976,796.515969 1023.214976,796.515969 C1023.214976,787.179918 1026.985265,779.632550 1026.985265,779.632550 C1030.755553,772.085181 1037.864118,767.635288 1037.864118,767.635288 C1044.972682,763.185394 1054.948237,763.185394 1054.948237,763.185394 C1060.289479,763.185394 1065.041613,764.930451 1065.041613,764.930451 C1069.793748,766.675507 1073.799679,769.816608 1073.799679,769.816608 C1077.334324,767.548035 1082.165006,766.064737 1082.165006,766.064737 C1086.995688,764.581439 1092.965312,764.581439 1092.965312,764.581439 C1093.358050,764.581439 1093.632967,764.581439 1093.632967,764.581439 C1093.907884,764.581439 1094.222075,764.581439 1094.222075,764.581439 C1094.222075,764.581439 1092.494026,775.051777 1092.494026,775.051777 C1091.551454,775.051777 1090.687429,775.051777 1090.687429,775.051777 C1089.823405,775.051777 1088.880833,775.051777 1088.880833,775.051777 C1088.095356,775.051777 1085.267640,775.313536 1085.267640,775.313536 C1082.439923,775.575294 1080.083493,776.273317 1080.083493,776.273317 C1083.303948,780.461452 1085.071270,785.652994 1085.071270,785.652994 C1086.838593,790.844536 1086.838593,796.515969 1086.838593,796.515969 C1086.838593,806.288284 1083.029031,814.010158 1083.029031,814.010158 C1079.219469,821.732032 1072.071630,826.225552 1072.071630,826.225552 C1064.923792,830.719072 1054.948237,830.719072 1054.948237,830.719072 C1052.120521,830.719072 1049.528447,830.326435 1049.528447,830.326435 C1046.936374,829.933797 1044.579944,829.148522 1044.579944,829.148522 C1040.966751,830.457314 1040.966751,833.685668 1040.966751,833.685668 C1040.966751,835.605230 1043.008990,837.044901 1043.008990,837.044901 C1045.051230,838.484573 1049.606995,839.269848 1049.606995,839.269848 C1049.606995,839.269848 1070.186486,842.934466 1070.186486,842.934466 C1082.675566,845.115786 1089.469940,850.961725 1089.469940,850.961725 C1096.264314,856.807663 1096.264314,867.539760 1096.264314,867.539760 C1096.264314,876.439547 1091.590727,882.329111 1091.590727,882.329111 C1086.917141,888.218676 1078.355444,891.141646 1078.355444,891.141646 C1069.793748,894.064615 1058.247239,894.064615 1058.247239,894.064615 C1058.247239,894.064615 1058.247239,894.064615 1058.247239,894.064615 L 1058.247239,894.064615 ZM1059.504002,880.104165C1070.343581,880.104165 1076.156109,877.006690 1076.156109,877.006690 C1081.968637,873.909215 1081.968637,867.888771 1081.968637,867.888771 C1081.968637,863.177119 1078.316170,860.472282 1078.316170,860.472282 C1074.663703,857.767444 1067.830056,856.371399 1067.830056,856.371399 C1067.830056,856.371399 1045.915254,852.270517 1045.915254,852.270517 C1041.595132,854.364585 1038.374678,857.898324 1038.374678,857.898324 C1035.154223,861.432063 1035.154223,866.143715 1035.154223,866.143715 C1035.154223,873.472951 1041.791501,876.788558 1041.791501,876.788558 C1048.428780,880.104165 1059.504002,880.104165 1059.504002,880.104165 C1059.504002,880.104165 1059.504002,880.104165 1059.504002,880.104165 L 1059.504002,880.104165 ZM1054.948237,818.154667C1063.902672,818.154667 1068.615532,812.177849 1068.615532,812.177849 C1073.328393,806.201032 1073.328393,796.690475 1073.328393,796.690475 C1073.328393,787.528929 1068.615532,781.639365 1068.615532,781.639365 C1063.902672,775.749800 1054.948237,775.749800 1054.948237,775.749800 C1045.993802,775.749800 1041.359489,781.639365 1041.359489,781.639365 C1036.725176,787.528929 1036.725176,796.690475 1036.725176,796.690475 C1036.725176,806.201032 1041.359489,812.177849 1041.359489,812.177849 C1045.993802,818.154667 1054.948237,818.154667 1054.948237,818.154667 C1054.948237,818.154667 1054.948237,818.154667 1054.948237,818.154667 L 1054.948237,818.154667 ZM1105.375844,850.438208C1105.375844,850.438208 1105.375844,764.930451 1105.375844,764.930451 C1105.375844,764.930451 1117.000900,764.930451 1117.000900,764.930451 C1117.000900,764.930451 1118.728949,779.065407 1118.728949,779.065407 C1124.620025,770.950895 1130.000541,767.068145 1130.000541,767.068145 C1135.381056,763.185394 1141.507775,763.185394 1141.507775,763.185394 C1143.471467,763.185394 1145.120968,763.708911 1145.120968,763.708911 C1145.120968,763.708911 1143.707110,780.984968 1143.707110,780.984968 C1142.685990,780.723210 1141.547049,780.592331 1141.547049,780.592331 C1140.408108,780.461452 1138.994249,780.461452 1138.994249,780.461452 C1132.867531,780.461452 1127.722658,783.471674 1127.722658,783.471674 C1122.577785,786.481896 1120.456998,790.059261 1120.456998,790.059261 C1120.456998,790.059261 1120.456998,850.438208 1120.456998,850.438208 C1120.456998,850.438208 1105.375844,850.438208 1105.375844,850.438208 C1105.375844,850.438208 1105.375844,850.438208 1105.375844,850.438208 L 1105.375844,850.438208 ZM1189.893143,852.183264C1176.304395,852.183264 1167.035769,845.988315 1167.035769,845.988315 C1157.767144,839.793365 1153.015009,829.541159 1153.015009,829.541159 C1148.262875,819.288954 1148.262875,806.986307 1148.262875,806.986307 C1148.262875,795.032671 1152.700819,785.085851 1152.700819,785.085851 C1157.138762,775.139030 1165.582637,769.162212 1165.582637,769.162212 C1174.026513,763.185394 1185.965759,763.185394 1185.965759,763.185394 C1195.548576,763.185394 1203.049878,767.417156 1203.049878,767.417156 C1210.551181,771.648917 1214.832030,779.719803 1214.832030,779.719803 C1219.112878,787.790688 1219.112878,799.308059 1219.112878,799.308059 C1219.112878,801.140368 1218.995057,803.278062 1218.995057,803.278062 C1218.877235,805.415756 1218.484497,807.684329 1218.484497,807.684329 C1218.484497,807.684329 1162.715647,807.684329 1162.715647,807.684329 C1163.736767,819.550712 1167.821246,826.181926 1167.821246,826.181926 C1171.905725,832.813140 1178.110992,835.517977 1178.110992,835.517977 C1184.316258,838.222814 1191.621192,838.222814 1191.621192,838.222814 C1196.962434,838.222814 1202.774962,837.001275 1202.774962,837.001275 C1208.587490,835.779735 1213.771636,833.162151 1213.771636,833.162151 C1213.771636,833.162151 1215.656780,845.552050 1215.656780,845.552050 C1211.179563,847.733371 1204.738653,849.958318 1204.738653,849.958318 C1198.297744,852.183264 1189.893143,852.183264 1189.893143,852.183264 C1189.893143,852.183264 1189.893143,852.183264 1189.893143,852.183264 L 1189.893143,852.183264 ZM1163.972410,796.864981C1163.972410,796.864981 1204.503010,796.864981 1204.503010,796.864981 C1204.503010,790.844536 1202.460771,786.394643 1202.460771,786.394643 C1200.418531,781.944749 1196.255505,779.545297 1196.255505,779.545297 C1192.092478,777.145845 1185.651568,777.145845 1185.651568,777.145845 C1176.225847,777.145845 1171.159522,782.337387 1171.159522,782.337387 C1166.093197,787.528929 1163.972410,796.864981 1163.972410,796.864981 C1163.972410,796.864981 1163.972410,796.864981 1163.972410,796.864981 L 1163.972410,796.864981 ZM1255.244809,852.183264C1245.033611,852.183264 1238.317785,849.478427 1238.317785,849.478427 C1231.601958,846.773590 1228.852790,844.679522 1228.852790,844.679522 C1228.852790,844.679522 1230.580839,829.497533 1230.580839,829.497533 C1233.094364,831.940612 1239.456726,835.081713 1239.456726,835.081713 C1245.819088,838.222814 1254.616427,838.222814 1254.616427,838.222814 C1262.078456,838.222814 1266.045114,835.430724 1266.045114,835.430724 C1270.011772,832.638634 1270.011772,827.577971 1270.011772,827.577971 C1270.011772,823.128077 1267.458972,820.379614 1267.458972,820.379614 C1264.906173,817.631150 1261.332253,816.016973 1261.332253,816.016973 C1257.758334,814.402796 1254.616427,813.443015 1254.616427,813.443015 C1249.353733,811.872464 1243.737574,809.473012 1243.737574,809.473012 C1238.121415,807.073560 1234.272579,802.274655 1234.272579,802.274655 C1230.423743,797.475750 1230.423743,788.837722 1230.423743,788.837722 C1230.423743,782.293761 1233.251460,776.404196 1233.251460,776.404196 C1236.079176,770.514631 1242.441538,766.850013 1242.441538,766.850013 C1248.803899,763.185394 1259.329288,763.185394 1259.329288,763.185394 C1267.026960,763.185394 1271.857642,764.974077 1271.857642,764.974077 C1276.688324,766.762760 1280.222969,768.769575 1280.222969,768.769575 C1280.222969,768.769575 1278.494920,783.079036 1278.494920,783.079036 C1275.117370,779.937935 1270.640153,777.756614 1270.640153,777.756614 C1266.162935,775.575294 1259.643478,775.575294 1259.643478,775.575294 C1253.045474,775.575294 1248.882447,778.323758 1248.882447,778.323758 C1244.719420,781.072221 1244.719420,787.092665 1244.719420,787.092665 C1244.719420,793.113110 1249.157364,795.643441 1249.157364,795.643441 C1253.595307,798.173773 1262.628290,801.227621 1262.628290,801.227621 C1265.456006,802.100149 1269.187021,803.757953 1269.187021,803.757953 C1272.918036,805.415756 1276.452681,808.207846 1276.452681,808.207846 C1279.987326,810.999936 1282.304483,815.493456 1282.304483,815.493456 C1284.621639,819.986976 1284.621639,826.705443 1284.621639,826.705443 C1284.621639,832.376876 1282.186661,838.266441 1282.186661,838.266441 C1279.751683,844.156005 1273.389322,848.169635 1273.389322,848.169635 C1267.026960,852.183264 1255.244809,852.183264 1255.244809,852.183264 C1255.244809,852.183264 1255.244809,852.183264 1255.244809,852.183264 L 1255.244809,852.183264 ZM1320.282284,852.183264C1310.071086,852.183264 1303.355260,849.478427 1303.355260,849.478427 C1296.639433,846.773590 1293.890265,844.679522 1293.890265,844.679522 C1293.890265,844.679522 1295.618314,829.497533 1295.618314,829.497533 C1298.131839,831.940612 1304.494201,835.081713 1304.494201,835.081713 C1310.856563,838.222814 1319.653902,838.222814 1319.653902,838.222814 C1327.115931,838.222814 1331.082589,835.430724 1331.082589,835.430724 C1335.049247,832.638634 1335.049247,827.577971 1335.049247,827.577971 C1335.049247,823.128077 1332.496447,820.379614 1332.496447,820.379614 C1329.943648,817.631150 1326.369728,816.016973 1326.369728,816.016973 C1322.795809,814.402796 1319.653902,813.443015 1319.653902,813.443015 C1314.391208,811.872464 1308.775049,809.473012 1308.775049,809.473012 C1303.158890,807.073560 1299.310054,802.274655 1299.310054,802.274655 C1295.461218,797.475750 1295.461218,788.837722 1295.461218,788.837722 C1295.461218,782.293761 1298.288935,776.404196 1298.288935,776.404196 C1301.116651,770.514631 1307.479013,766.850013 1307.479013,766.850013 C1313.841374,763.185394 1324.366763,763.185394 1324.366763,763.185394 C1332.064435,763.185394 1336.895117,764.974077 1336.895117,764.974077 C1341.725799,766.762760 1345.260444,768.769575 1345.260444,768.769575 C1345.260444,768.769575 1343.532395,783.079036 1343.532395,783.079036 C1340.154845,779.937935 1335.677628,777.756614 1335.677628,777.756614 C1331.200410,775.575294 1324.680953,775.575294 1324.680953,775.575294 C1318.082949,775.575294 1313.919922,778.323758 1313.919922,778.323758 C1309.756895,781.072221 1309.756895,787.092665 1309.756895,787.092665 C1309.756895,793.113110 1314.194839,795.643441 1314.194839,795.643441 C1318.632782,798.173773 1327.665765,801.227621 1327.665765,801.227621 C1330.493481,802.100149 1334.224496,803.757953 1334.224496,803.757953 C1337.955511,805.415756 1341.490156,808.207846 1341.490156,808.207846 C1345.024801,810.999936 1347.341958,815.493456 1347.341958,815.493456 C1349.659114,819.986976 1349.659114,826.705443 1349.659114,826.705443 C1349.659114,832.376876 1347.224136,838.266441 1347.224136,838.266441 C1344.789158,844.156005 1338.426797,848.169635 1338.426797,848.169635 C1332.064435,852.183264 1320.282284,852.183264 1320.282284,852.183264 C1320.282284,852.183264 1320.282284,852.183264 1320.282284,852.183264 L 1320.282284,852.183264 ZM1363.483505,850.438208C1363.483505,850.438208 1363.483505,764.930451 1363.483505,764.930451 C1363.483505,764.930451 1377.622086,764.930451 1377.622086,764.930451 C1377.622086,764.930451 1377.622086,850.438208 1377.622086,850.438208 C1377.622086,850.438208 1363.483505,850.438208 1363.483505,850.438208 C1363.483505,850.438208 1363.483505,850.438208 1363.483505,850.438208 L 1363.483505,850.438208 ZM1363.483505,745.734832C1363.483505,745.734832 1363.483505,728.284269 1363.483505,728.284269 C1363.483505,728.284269 1377.622086,728.284269 1377.622086,728.284269 C1377.622086,728.284269 1377.622086,745.734832 1377.622086,745.734832 C1377.622086,745.734832 1363.483505,745.734832 1363.483505,745.734832 C1363.483505,745.734832 1363.483505,745.734832 1363.483505,745.734832 L 1363.483505,745.734832 ZM1430.406124,852.183264C1418.309782,852.183264 1409.787359,846.206447 1409.787359,846.206447 C1401.264937,840.229629 1396.748445,830.151929 1396.748445,830.151929 C1392.231954,820.074229 1392.231954,807.684329 1392.231954,807.684329 C1392.231954,795.294430 1396.748445,785.216730 1396.748445,785.216730 C1401.264937,775.139030 1409.787359,769.162212 1409.787359,769.162212 C1418.309782,763.185394 1430.406124,763.185394 1430.406124,763.185394 C1442.423918,763.185394 1450.985615,769.162212 1450.985615,769.162212 C1459.547312,775.139030 1464.063803,785.216730 1464.063803,785.216730 C1468.580294,795.294430 1468.580294,807.684329 1468.580294,807.684329 C1468.580294,820.074229 1464.063803,830.151929 1464.063803,830.151929 C1459.547312,840.229629 1450.985615,846.206447 1450.985615,846.206447 C1442.423918,852.183264 1430.406124,852.183264 1430.406124,852.183264 C1430.406124,852.183264 1430.406124,852.183264 1430.406124,852.183264 L 1430.406124,852.183264 ZM1430.406124,838.222814C1441.874085,838.222814 1448.000803,830.151929 1448.000803,830.151929 C1454.127522,822.081044 1454.127522,807.684329 1454.127522,807.684329 C1454.127522,793.287615 1448.000803,785.216730 1448.000803,785.216730 C1441.874085,777.145845 1430.406124,777.145845 1430.406124,777.145845 C1419.016711,777.145845 1412.850719,785.216730 1412.850719,785.216730 C1406.684726,793.287615 1406.684726,807.684329 1406.684726,807.684329 C1406.684726,822.081044 1412.850719,830.151929 1412.850719,830.151929 C1419.016711,838.222814 1430.406124,838.222814 1430.406124,838.222814 C1430.406124,838.222814 1430.406124,838.222814 1430.406124,838.222814 L 1430.406124,838.222814 Z" fill="#FFFFFF" stroke="#FFFFFF" stroke-width="0" stroke-dasharray="none" stroke-dashoffset="0" stroke-linecap="butt" stroke-linejoin="miter" stroke-miterlimit="4" />
	</g>
</g></g></svg>